<svg xmlns="http://www.w3.org/2000/svg" viewBox="0 0 942 1032"><g fill="#fff" stroke-width="0"><path d="M0 463.6v463.6l4.3-.6c2.3-.3 16.4-1 31.2-1.6 57.6-2.2 89.2-4.1 95-5.7 1.9-.6 1.8-.6-.4-1.4-6.8-2.6 3.3-6 27-9.1 16.3-2.2 16.9-2.3 16.9-4.6q0-2.25 2.7-3.3c3.9-1.5 20.3-3.6 37.8-4.8 16.8-1.2 38.5-5 43.6-7.7 1.9-.9 5.9-2.5 8.9-3.5 3-.9 4.8-1.8 3.9-1.8-.9-.1-2.2-.7-2.8-1.5-1.6-1.9 0-2.8 10.9-5.6 4.7-1.3 8.9-2.6 9.4-3.1.5-.4-5.5-.8-13.2-.8-21.9-.2-21.4-1.7.8-2.4 10.6-.4 22.4-1 26.1-1.3 6.7-.7 6.8-.7 6.3-3.3-.4-1.6 0-3.1.8-3.8 2.1-1.7 11.4-3.3 23.1-4 11.5-.7 54.9 1.5 54.2 2.7-.3.4-3.7 1-7.7 1.2-4 .3-9.1 1.3-11.2 2.2l-3.9 1.6 3.1 3.3c4 4.1 4 5.3.1 6.1s-14.9 5.8-14.9 6.8c0 .4 1.7 1.9 3.8 3.2l3.7 2.4 20-1c16.7-.9 20.3-1.3 22-2.8 3.9-3.4 8.9-5.1 26-9 10.6-2.4 25.6-8 24.9-9.2-.3-.4-2.7-.8-5.5-.8-7.7 0-5.8-1.8 2.8-2.5 12.6-1.2 12.9-2.4.7-2.4-6.1-.1-14.7-.4-19-.8l-7.9-.8 7-.6c3.9-.4 10.2-1.2 14-1.8 3.9-.5 12.2-1.1 18.5-1.1 11.2-.1 11.4-.2 7.6-1.6-7.6-2.7-7.9-3.5-7.3-15.9.3-7.2 1.2-13.2 2.6-17.4 1.2-3.5 2.6-9.5 3.2-13.5.6-3.9 1.9-8.7 2.8-10.6 1.9-4 7.3-8 10.9-8h2.5l-.6-15.2c-.4-8.3-.7-21-.7-28.3v-13.2l-10.6 1.3c-9.2 1.1-16.1 2.6-18.6 4.1-.4.2.2 1.8 1.2 3.6 2.4 3.9 2.5 7 .3 10.7-2 3.5-5.2 5-10.3 5-4.6 0-6.9 2.4-9.9 10.3-1 2.9-3.3 8.2-5 11.9-2.6 5.8-3.4 6.8-5.5 6.8-2.9 0-2.9.2 1.8-10.4 3.4-7.6 3.3-7.8-.7-2-4.6 6.9-6.3 11.2-9.6 24.4-3.6 14.2-6.7 21.5-11.6 26.8-4.5 5-9 6.6-16.3 5.9-7.7-.8-13.1-5.6-19.1-16.9-9.6-17.7-11.1-34.1-5.3-56.7 3.8-14.6 4-21.9 1.2-34.6-3.4-16-4.3-26.6-3-36.8 1.4-10.6 3.6-16 8.5-20.7 3.1-3 4.3-3.5 9.8-3.8 7.1-.5 15.6 2.4 18.2 6.2.8 1.1 1.5 1.5 1.5.7 0-.9.9-.7 3.3.7 1.7 1.1 9.3 3.2 16.7 4.7 14.8 3 20.3 5.4 22.2 9.7.8 1.7 1.8 2.6 2.8 2.3.8-.2 6.5-1.8 12.5-3.5 20.3-5.6 22.5-6.3 23.4-7.4.5-.6 1.6-3.8 2.6-7.1.9-3.3 3.5-10.5 5.7-15.9 4-9.6 4-10 2.4-12.7-.9-1.6-2-5.2-2.3-8-.5-4.1-1.1-5.3-3-6.2-3.7-1.6-5.5-6-4.8-11.1.9-5.8-1.8-10-14.9-23.6-15.6-16-22.1-27.2-24.7-41.8l-1.2-7.2h-9l.7-6.7c1.5-15.1 1.8-21.2 1.2-23.7-.3-1.4-2.9-4.9-5.6-7.7-6-6.2-6.4-7.4-5.5-15.6.4-3.5.8-15.3.9-26.1.2-12.8.9-22.5 1.9-27.7 1.3-6.8 1.4-10 .5-21.2l-1.2-13.2-2.8 1.5c-2.1 1.1-2.7 2-2.3 3.3 1.9 6 .2 11.3-5.2 16.7-3.1 3.1-3.7 6.6-2.3 13.6l1.2 6.1-3.6 3.6c-2.8 2.9-3.8 5-5 11.1-2.3 10.8-3.3 14.1-5 15.4-1 .7-1.7 3.8-2.2 8.7-.7 7.9.4 12.2 4.4 16.5 7.8 8.5 11.3 17.3 11.4 28.5.1 8-1 11.2-4.3 12.9-1.6.9-2.6.8-4.5-.5-2-1.3-2.4-2.3-2.4-6.9 0-3.9-.5-5.7-1.8-6.9-2.7-2.5-4.6-2.2-3.8.5.3 1.3.6 2.8.6 3.4 0 .7.8 1.1 1.8 1 3.2-.2 2.6 4.6-1 8.7-2.7 3.1-4.6 4.2-10.3 5.7-3.8 1-8.4 2.4-10.1 3.1-2.7 1.1-3.9 1-7.9-.5-6.1-2.4-7.4-5.5-7.7-17.8-.2-8.2.1-10.4 2.9-18.3 3.3-9.5 3.9-14.6 3.5-31.6-.2-8.7-.4-9.7-2.2-10.2s-2-1.4-2-8.2c0-7-1.6-12.8-4-14.5-1.4-1-4-6.9-4-9.2 0-1.3 1.6-4.8 3.5-7.8 4.1-6.4 4.2-7 1.4-16.2-1.5-4.7-2-8.4-1.6-11.5.4-4.1 1.2-5.4 6.6-10.5 3.4-3.2 6.2-6.4 6.2-7.1.1-.7.3-5.3.4-10.3.2-6.3.8-10.1 2-12.5 2.8-5.5 9.8-14.1 16.4-20.1 5.6-5.3 6-5.8 5.4-9.1-1-6.5.1-8.3 7.8-12.3 7.9-4.2 14.2-10 20.2-18.9 8.5-12.5 15.6-18.4 23.9-19.9 3.6-.6 3.6-.7 2.7-3.9-1.3-4.4-.8-12.6.8-12 .6.3 1.6-.5 2.2-1.6s4.5-3.6 8.6-5.6c7.1-3.3 7.9-3.5 18.3-3.5 7.8 0 11.3-.4 12-1.3 1.6-1.9 1.7-7.8.3-10.6-.8-1.3-8-9.1-16.2-17.3-13.4-13.4-14.8-14.6-14.3-11.6.9 4.9 4.9 10.5 10.1 14.1 4.4 3.1 4.4 3.2 1.9 3.5-3.6.5-11-4-14.1-8.5-1.3-2-3.6-7.1-5.1-11.2-3.4-9.6-4.4-10.7-4.4-5 0 2.6 1 6.6 2.5 9.7 1.4 3 2.5 5.9 2.5 6.5-.1 1.4-6.5-5.8-8.5-9.4-2.1-3.9-3.6-14.8-2.4-17.1 1-1.8.9-1.8-3 .1-4.9 2.6-5.8 1.5-2.6-3l2.5-3.3-4.7-1.8c-5.4-2-10.3-6.1-10.3-8.5 0-1.5.1-1.5 1.3-.1 2.5 3.2 6.2 4.8 10.9 4.8 2.7 0 4.8-.3 4.8-.8-.1-.4-1.2-2.7-2.5-5.2l-2.4-4.5-.1 3.9c0 3.3-.2 3.7-1.5 2.6-1-.9-1.5-3.2-1.5-7.4 0-5.8-.2-6.4-3.6-9.7-4.3-4.1-7.6-9.6-10.8-17.7-2.4-6.2-4.2-14.2-3.2-14.2.3 0 1.5 2.3 2.7 5 1.2 2.8 3.7 6.4 5.6 8 2.9 2.6 4.1 3 8.6 2.9 2.9-.1 4.3-.3 3.2-.6-9.3-1.9-16-8.6-17.4-17.2-.9-5.6.3-9.4 1.4-4.5 3.3 14.6 17 22 26 14.1 2.4-2.1 2.9-3.9 3.9-13.9.4-3.7 10-15.9 17.9-22.7 8.9-7.8 15.4-10.8 23.6-11.3 2.8-.2 5.1-.6 5.1-1 0-1.6-6.4-1.8-12.2-.3-8.1 2-14.1 5.6-20 11.8-3.3 3.4-4.8 4.4-4.8 3.2 0-2.7 7.8-13.8 11.6-16.4 3.7-2.5 4.4-4.1 1.8-4.1-3.1 0-8.7-3.4-10.5-6.4q-3.45-5.7-.3-11.7c2-3.9 2.8-3.1 1.6 1.5-1.6 5.7.2 9.7 5.5 12.5 2.2 1.1 2.2 1 1.2-1.2-2.1-4.6.6-10.5 7.9-17.7 4.1-4 6.7-5.9 7-5.1.2.7-.9 2.7-2.6 4.4-4.3 4.5-8.1 12-7.5 15 .3 1.4 1.5 3.5 2.8 4.7 1.9 1.8 2.7 2 4.5 1 4-2.1 15.9-2.4 24.1-.5 6 1.3 8.5 1.4 11.5.6 2.2-.6 6-1.1 8.6-1.1 5.1 0 17.6 4.1 22 7.1 1.4 1.1 3 1.9 3.6 1.9.5 0 1.3 1 1.7 2.2.3 1.3.9 1.8 1.1 1.1 1.4-3.2-6.5-12.7-13.5-16.2-2.4-1.3-4.1-2.4-3.9-2.7 1-.9 11.2 1.7 14.4 3.6 4.4 2.8 8.9 8 11.9 14 1.4 2.8 2.7 5 3 5s.3-1.5.1-3.4c-.7-5.3-8-18.9-12.1-22.5-2.1-1.8-3.5-3.5-3.2-3.8 1.2-1.1 18.6 7.1 24 11.2 6.4 5.1 12.7 13.8 15.1 20.9 2.6 7.6 3.1 7.6 3.6.1.5-6.7.6-6.9 2-4.5 2 3.4 1.9 18.1-.3 23.9-.8 2.4-1.1 3.9-.6 3.4 1.6-1.6 4.9-12.1 4.9-15.5 0-2.5.3-2.9 1.2-2 1.4 1.4 1.8 15.4.5 18.7-.4 1.1.2.1 1.5-2.3 2.6-5 3.8-5.3 3.8-1 0 4.6-4.1 12.8-8.4 17.1l-3.6 3.6 2.8 2c1.5 1 4.4 2.2 6.5 2.6 2 .4 3.7 1.1 3.7 1.6 0 1.2-10.6 1.2-14.8 0-2.9-.9-3.1-.8-2.2.9.5 1 1.3 2 1.7 2.2.5.1 1.6 1.8 2.6 3.5 1.6 2.8 1.6 3.3.3 3.3-.8 0-2.4-1-3.6-2.2l-2-2.2v2.4c0 1.3.5 5.1 1.1 8.5.8 4.9.7 7.3-.4 11.9-1.3 4.9-1.3 5.5-.1 4.5.8-.6 1.8-.9 2.2-.5s-.4 1.6-1.7 2.7l-2.3 1.9 2.1 9.3c3.6 15.7 2.3 24.7-6 41.4-6.6 13.3-10 17.1-15.9 18.1l-4.5.8 4.6 2.7c4.7 2.8 10.5 4.2 21.4 5.3 5.6.6 6.4 1 11.3 5.9 3 3 5.1 5.9 4.7 6.4-1.1 1.9 1.4 4.9 5 6.1 5.9 1.9 11.8 9.6 14.4 18.7 3.8 13.2 4.1 14.1 6.8 18 5.3 7.7 6.6 12.2 7.1 23.5.5 12.2.2 11.7 11.7 18.8 11.7 7.1 13.5 9.8 10 14.7-1.4 1.9-1.2 2.2 2 4.4 3 2 3.5 3 3.4 5.9 0 1.9.6 5.3 1.5 7.5.8 2.2 1.5 5 1.6 6.2 0 2 3.2 4.9 13.5 12.2 1.8 1.3 4.8 5 6.5 8.3 2.8 5.3 3.2 6.7 2.7 11-.4 2.8-2.1 8-3.9 11.7-4 8-10.5 13.1-16.8 13.1-5.5 0-6.7-.7-10.2-5.7l-3.1-4.5-2.4 3.1c-3.1 3.9-6.6 4.1-11.9.4-2.1-1.4-7.1-4.1-11-5.9-4-1.8-7.5-3.7-7.8-4.2s-2.1-1.3-4-1.6c-4.1-.8-5.7-2.6-6.1-6.8-.2-1.9-.8-3.2-1.5-3-.6.1-.9-.1-.6-.6s-1.3-3.1-3.6-5.8-5.4-6.8-6.9-9.2l-2.8-4.4-1.6 2.6c-2.2 3.3-4.4 9.5-4.4 12.1-.1 5.7 6.4 17.8 16.5 31.2 4.8 6.3 7.4 14.2 7.4 22.1-.1 9.9-2.3 19.5-5.7 25.1-2.8 4.5-3 5.3-2.6 11.8.7 9.1-.7 13.2-6.8 19.9-2.7 3-4.9 6.2-4.9 7.2s1.4 6.1 3 11.2c4.4 13.6 4.5 13.2-4.6 12.4l-7.5-.7.6 4.9c.3 2.7 1 10.5 1.5 17.4.8 11 1.4 14 5.3 25 6 16.9 6.4 19.7 3.6 25.2-2.2 4.1-2.3 5.4-2.4 26.8-.1 19.7-.4 23.3-2.2 29-3.3 10.4-7.6 18.1-13.5 23.6-7 6.7-9.5 7.9-23.6 11.5-9.7 2.5-26.9 7.7-28 8.5-.2.1-1.2 5.1-2.3 11-1.6 9.3-7.8 34.4-9.5 38.9-.4.9.6 1.9 2.9 2.8 1.9.8 4.2 2.5 5.1 3.8 2.2 3.2 2.1 10.6-.2 14.4-1.7 2.7-1.7 3.2-.4 5.2.9 1.5 1.2 3.4.8 5.5-.4 1.8-.9 4.4-1.2 5.8-.3 1.9.4 3.5 3.1 6.5 8.9 9.8 15.1 21.6 14 26.5-.5 2.3-1.5 3.2-4.8 4.4-2.3.9-5.5 1.7-7.2 1.8-1.6.2.8.8 5.5 1.2l8.5.9-7 .9c-31.6 3.7-33.6 4.1-35 6.1-1 1.5-6.1 3.2-20.7 6.8-10.6 2.7-19.4 4.9-19.5 4.9-.2 0-.3.4-.3.8 0 .5 2.4 1.6 5.4 2.5 8.3 2.7 9.8 6 3.9 9-2.3 1.2-18.3 5.6-29.7 8.2l-3 .6 2.9 2.3c2.5 2 2.7 2.6 1.7 3.9-1.8 2.1-7.7 3.3-30.7 6.2-29.5 3.7-39.8 5.5-41.1 7.3-1 1.4-4.6 1.7-22 2.2-19.6.5-20.6.6-16 1.8 2.7.7 5.8 2 7 2.7 1.2.9 3.4 1.3 5.5 1 2-.3 8.6-1.2 14.6-2 26.2-3.7 35.4-4.6 59-5.5 29.6-1.2 54.4-4.2 63.6-7.9 2-.8 1.5-1-3.1-1.1l-5.5-.1 3.9-1.5c2.1-.7 4.2-1.2 4.6-.9 1 .6 5.2-4 4.3-4.8-.3-.4-3.8-.7-7.7-.8-4.9 0-6.5-.3-5.1-.9 2.7-1.2 38.6-1.2 40.5 0 1 .6-.1 1.1-4 1.6l-5.5.8 5.5 1.2 5.5 1.2-4.5.2-4.5.1 5.5 1.5c6.6 1.8 12.4 5.1 16.5 9.4l3 3.1-2.4 1.8-2.4 1.9 3.9.5c2.1.4 9 1.2 15.2 1.8 6.1.6 11.2 1.4 11.2 1.6 0 .3-6.9.3-15.2 0l-15.3-.5 18.5 1.4c27.8 2.2 29.8 3.1 7 3.3-20.7.1-33 .9-33 2.1 0 .4 3 1 6.8 1.4 6.7.7 12.2 2.6 7.5 2.6-1.2 0-2.5.4-2.8 1-.9 1.5-32.2 1.3-33.1-.2-.5-.8-.2-.9 1-.5 1.3.5 1.7.2 1.4-1.1-.6-3.3-12.7-5.8-33.1-6.8-7.5-.4-14 .1-26.5 2-9.2 1.4-22.1 3.2-28.8 4.1-6.6.9-16.3 2.7-21.5 4.1-7.7 2-13.3 2.6-30.9 3.4-21.8.9-29.7 1.5-36 2.7-5.5 1.1 10.8 2.1 38.5 2.3 13.2.1 29.9.5 37 .9l13 .6-9.5.7c-5.2.4-11.1 1.2-13 1.8-1.9.5-10.2 1-18.5 1.1h-15l9.5 2c12.6 2.6 12.7 2.6 10.5 4.3-1.5 1.1-.7 1.4 6.6 2.4 4.6.7 10.2 1.3 12.4 1.3l4 .1-4 .9c-2.2.4-5.8.9-8 1l-4 .2 3.5.7c2.5.6 1.2.8-5 .7-10.7-.1-65.8 2.1-89 3.5-9.6.6-20.9 1-25 .9s-9.5.1-12 .6c-4 .6-3.2.8 7.5 1.8 11.5 1.1 11.7 1.2 5 1.5-14.6.6 1.3 1.8 26.5 2.1 27.9.3 22.9.7-26.2 1.7-23.6.5-35.1 1.1-35.8 1.8s-.8 1.4-.3 1.7 11.7.9 24.9 1.4c23.1.8 23.5.8 11.4 1.3-7.8.4-10.3.7-6.5.9 3.3.1 15 .8 26 1.5 19.9 1.3 19.9 1.3 8 1.5-6.6.1-17.2.3-23.5.5-6.3.3-25.4.8-42.3 1.2-16.9.3-30.6.8-30.4 1 .1.2 18.9.8 41.7 1.4 59.5 1.6 67.4 2.6 17.5 2.1-23.6-.2-42.8-.1-42.5.2s14.5 1 31.5 1.7c54.2 2.1 56 2.5 17.1 3.3-40.8.8-188.5.7-222.6-.2-28.3-.7-23.3-1.4 25-3.1 17.3-.7 31.7-1.4 31.9-1.6s-14.2-.5-32-.6c-28.3-.1-30.4-.2-16.4-.8 8.8-.4 23.9-.8 33.5-.9 29.1-.3 17.1-1.8-20.2-2.6-19-.4-37-1-40-1.4-4.9-.6-4.3-.8 7.7-1.9 7.2-.6 24.5-1.6 38.5-2.3 14-.6 28.2-1.5 31.5-1.9l6-.7-8-.2c-4.9 0-8.6-.6-9.3-1.3-1.4-1.4-34.6-2.5-74.4-2.7L0 976v56h942V0H0zm172.3 538.1c-15.6.2-41 .2-56.5 0-15.6-.1-2.9-.2 28.2-.2s43.8.1 28.3.2m-19.5 4c-8.6.2-23 .2-32 0-9-.1-1.9-.3 15.7-.3s24.9.2 16.3.3"/><path d="M572.9 76.4c1.3 1.4 2.8 2.3 3.4 1.9s.7-.1.2.6c-.4.7.1 2.2 1.3 3.4 1.1 1.2 3.6 5.3 5.5 9.2l3.5 7-.5-4.5c-.3-2.5-1.4-6.1-2.4-8-2-3.9-8.4-10.4-11.4-11.4-1.7-.6-1.7-.4.4 1.8M547 85.1c2.6 1.7 7 4 7 3.5s-6.9-4.6-7.8-4.6c-.4 0 0 .5.8 1.1m-89.9 36.5c-1.2 1.5-2.1 3.1-2.1 3.7q0 .9.3.6c.1-.2 1.5-1.9 3.1-3.7 1.7-1.7 2.5-3.2 1.9-3.2-.7 0-2.1 1.2-3.2 2.6m-23.5 26.6c.3.5 2.4 2 4.6 3.4 3.7 2.3 4.2 2.4 5.6 1 .9-.8 1.4-1.7 1.1-1.9-1.2-.9-11.8-3.3-11.3-2.5m.6 608c-1.2 1.6-4.3 9-3.9 9.4.1.2 1.5-2.1 2.9-5.1 2.7-5.5 2.9-6.6 1-4.3m-33.1 59.4c0 1.1.3 1.4.6.6.3-.7.2-1.6-.1-1.9-.3-.4-.6.2-.5 1.3M529 826c0 2.9 12.1 22.1 12.8 20.2.2-.7.1-2.3-.2-3.5-.5-2.2-6.7-11.9-10.5-16.7l-2.1-2.5zM0 931.5c0 1.3 2 1.5 12.3 1.4 13.1 0 18.8-1 12.8-2.2-1.9-.4-8.2-.7-14.2-.7-9 0-10.9.3-10.9 1.5m5.3 4.2c3.2.2 8.1.2 11 0s.3-.3-5.8-.3-8.4.1-5.2.3M0 940c0 .6 5 1 13.3.9 10-.1 12.1-.3 8.7-1-6.6-1.1-22-1.1-22 .1m29.8.7c1.2.2 3.2.2 4.5 0 1.2-.2.2-.4-2.3-.4s-3.5.2-2.2.4m26.5 1c2.6.2 6.8.2 9.5 0 2.6-.2.4-.3-4.8-.3s-7.4.1-4.7.3M0 944c0 2 .6 2 24.8 1.8 17.1-.1 22.2-.4 16.7-.8-7.1-.6-6.5-.7 4.7-.6 6.9 0 12.9-.2 13.2-.5.9-.9-21.3-1.9-41.6-1.9-17.1 0-17.8.1-17.8 2m61.8.7c.6.2 1.8.2 2.5 0 .6-.3.1-.5-1.3-.5s-1.9.2-1.2.5M0 947.9c0 .7 4.2 1.1 12.2 1.1 6.7 0 11.9-.2 11.7-.4s-5.7-.7-12.1-1c-8.2-.5-11.8-.4-11.8.3m0 14.6V975l36.8-.1c20.2-.1 35.6-.5 34.2-.9s-7.2-.8-12.9-.9c-17.7-.2-10.6-1 9.9-1.2 17.2-.1 19-.3 15.4-1.4-2.6-.8-15.2-1.5-33.3-2-16.1-.4-30.4-1.1-31.9-1.5s5.2-.5 14.8-.3c9.6.3 20 0 23-.5 4.7-.8 2.9-1-12.5-1.3l-18-.3L39 964l13.5-.5-18.5-1-18.5-.9 19.8-1.2c11-.7 20.4-1.5 21-1.7.7-.2-4.6-.8-11.8-1.3l-13-.9 7.5-.6c6.2-.4 4.7-.6-8-.9l-15.5-.3 11-.7c6.1-.4 16.8-.8 24-.9s13.6-.5 14.3-1c1.7-1-20.8-2.1-45.5-2.1H0z"/></g><g fill="#aaa" stroke-width="0"><path d="M542 70.1c0 .5.5.7 1 .4.6-.3 1-.8 1-1.1 0-.2-.4-.4-1-.4-.5 0-1 .5-1 1.1m15 4.3c0 .2.8 1 1.8 1.7 1.5 1.3 1.6 1.2.3-.4s-2.1-2.1-2.1-1.3m.5 16.6c.3.5.8 1 1.1 1 .2 0 .4-.5.4-1 0-.6-.5-1-1.1-1-.5 0-.7.4-.4 1M419 129.1c0 .5.5.7 1 .4.6-.3 1-.8 1-1.1 0-.2-.4-.4-1-.4-.5 0-1 .5-1 1.1m7.5 10.9c1 1.1 2 2 2.3 2s-.3-.9-1.3-2-2-2-2.3-2 .3.9 1.3 2m168.6 24.6c0 1.1.3 1.4.6.6.3-.7.2-1.6-.1-1.9-.3-.4-.6.2-.5 1.3M451.2 202c0 1.4.2 1.9.5 1.2.2-.6.2-1.8 0-2.5-.3-.6-.5-.1-.5 1.3m140.6 54.7c.7.3 1.6.2 1.9-.1.4-.3-.2-.6-1.3-.5-1.1 0-1.4.3-.6.6m14.2 6.7c0 .2.8 1 1.8 1.7 1.5 1.3 1.6 1.2.3-.4s-2.1-2.1-2.1-1.3m37.3 76.6c0 2.5.2 3.5.4 2.2.2-1.2.2-3.2 0-4.5-.2-1.2-.4-.2-.4 2.3m-286.1 93c0 1.4.2 1.9.5 1.2.2-.6.2-1.8 0-2.5-.3-.6-.5-.1-.5 1.3m78 80c0 1.4.2 1.9.5 1.2.2-.6.2-1.8 0-2.5-.3-.6-.5-.1-.5 1.3m-73.1 7.6c0 1.1.3 1.4.6.6.3-.7.2-1.6-.1-1.9-.3-.4-.6.2-.5 1.3m242.2 36.1c.9.2 2.3.2 3 0 .6-.3-.1-.5-1.8-.5-1.6 0-2.2.2-1.2.5M403 666.4c0 .2.8 1 1.8 1.7 1.5 1.3 1.6 1.2.3-.4s-2.1-2.1-2.1-1.3m8.2 19.8c-1 3-1 3.1.3 1.4s2.1-4.6 1.2-4.6c-.1 0-.8 1.5-1.5 3.2m19.4 4.7c-.4.6-.9 2.7-1.2 4.8-.2 2.1-.9 4.2-1.4 4.7-.6.6-1 1.7-1 2.5 0 1.4.1 1.4 1 .1s1-1.3 1.1 0c.1.8.7-1.7 1.4-5.5 1.3-7 1.3-8.6.1-6.6m-5 15.6c-.3.8-.1 1.5.4 1.5 1.3 0 2.2-1.8 1.1-2.4-.5-.3-1.1.1-1.5.9m24.4 2.7c0 .7.3 2.4.7 3.7.6 2.3.7 2.4 1.5.5.5-1.2.7.3.4 4.2-.2 3.3-1 7-1.7 8.2-1.4 2.2-.8 3.9.9 2.8 1.7-1 2.6-14.3 1.2-17.6-1.3-3-3-4-3-1.8m-26.3 6.6c.1.8.3 1.6.3 1.8 0 .3.5.2 1-.1 1.2-.8 1.3.5.1 2.4-.7 1.1-1.1 1-2-.5-.7-1.1-1.1-1.3-.8-.4.2.8-.2 2.9-1 4.7-1.7 4.2-1.6 4.6.3 3.9 1.4-.5 1.5 0 1.1 3.1-.4 2.7-.1 2.1 1.3-2.2 3.1-9.4 3.5-12.5 1.7-12.5-.8 0-1.7-.3-2-.8-.2-.4-.2-.1 0 .6m.3 8.8c0 .8-.4 1.2-1 .9-.5-.3-1-1-1-1.6 0-.5.5-.9 1-.9.6 0 1 .7 1 1.6"/><path d="M450.2 723c0 1.4.2 1.9.5 1.2.2-.6.2-1.8 0-2.5-.3-.6-.5-.1-.5 1.3m-82.1 11.6c0 1.1.3 1.4.6.6.3-.7.2-1.6-.1-1.9-.3-.4-.6.2-.5 1.3m52.4 2.4c.3.5.8 1 1.1 1 .2 0 .4-.5.4-1 0-.6-.5-1-1.1-1-.5 0-.7.4-.4 1m-1.4 2.9c-.8.5-1 1.4-.6 2.1.6.9 1 .8 1.7-.4 1.2-2.1.7-2.8-1.1-1.7m-1.2 6.6c-.3.5-.6 3.2-.7 6l-.1 5 1-4c1-4.1.9-8.8-.2-7m-15.8 28.1c0 1.1.3 1.4.6.6.3-.7.2-1.6-.1-1.9-.3-.4-.6.2-.5 1.3m1 7c0 1.1.3 1.4.6.6.3-.7.2-1.6-.1-1.9-.3-.4-.6.2-.5 1.3m-1.1 8.9c0 3.2.2 5.6.5 5.3.7-.7.9-9.7.2-10.5-.4-.3-.7 2-.7 5.2m90.3 1.2c.9.2 2.3.2 3 0 .6-.3-.1-.5-1.8-.5-1.6 0-2.2.2-1.2.5m-11.5 1c.7.3 1.6.2 1.9-.1.4-.3-.2-.6-1.3-.5-1.1 0-1.4.3-.6.6m18.3 1.6c1.3 1.3 2.8 2.1 3.2 1.9.5-.2.7.3.5 1-.3 1.3 5.1 6.8 6.6 6.8 2.7 0-2.4-6.4-8.4-10.3-3.6-2.5-4.7-2.1-1.9.6m6.4 3.7c.3.5.1 1-.4 1-.6 0-1.1-.5-1.1-1 0-.6.2-1 .4-1 .3 0 .8.4 1.1 1m-27.8-4.4c-1 1.7.7 3.2 2.8 2.3 1.6-.6 1.6-.8.3-.8-.9-.1-1.8-.6-2-1.3-.3-.7-.7-.8-1.1-.2m14.8.4c-1.3.6-1.5.9-.5.9.8 0 2.2-.4 3-.9 1.8-1.2.2-1.2-2.5 0m5.7 2.4c.7.8 1.5 1.2 1.7 1.1.5-.6-1-2.5-2-2.5-.5 0-.4.6.3 1.4m-23.4 1.3c.7.3 1.6.2 1.9-.1.4-.3-.2-.6-1.3-.5-1.1 0-1.4.3-.6.6"/><path d="M510.7 803.6c-1.2 1.3-.8 2.2 2.6 5.3 3.1 3 7.7 4.2 7.7 2 0-.6-.7-.8-1.6-.5-.8.3-1.2.2-.9-.4s0-1.1-.7-1.1c-.7-.1-1.9-.2-2.7-.3-.8 0-1.5-.9-1.7-2-.3-2.3-1.8-3.9-2.7-3m11.1 3.8c-1 .7-1.5 1.6-1.1 1.9 1.1 1.2 2.3.8 2.3-.7 0-.8.6-1.7 1.3-1.9.6-.3.8-.6.2-.6-.5 0-1.8.6-2.7 1.3m-32.2 18.5c.5.5 2.7 1.1 4.9 1.4l4 .6-3-1.4c-3.4-1.6-7.5-2-5.9-.6m-14.7 1.8c-.1.5-.1 1.1 0 1.5 0 .4-.6.5-1.4.2-.8-.4-1.5-.1-1.5.5 0 1.4 3.7 1.5 4.5.1.3-.6.1-1-.5-1s-.8-.5-.5-1c.3-.6.4-1 .1-1s-.7.3-.7.7m24.9 1c.7.3 1.6.2 1.9-.1.4-.3-.2-.6-1.3-.5-1.1 0-1.4.3-.6.6m-20 1c.7.3 1.6.2 1.9-.1.4-.3-.2-.6-1.3-.5-1.1 0-1.4.3-.6.6m4.7.3c.3.5 1 1 1.6 1 .5 0 .9-.5.9-1 0-.6-.7-1-1.6-1-.8 0-1.2.4-.9 1m4.5 1c0 1.1 6.8 2.5 7.7 1.6.4-.3-.7-.6-2.3-.6-2.2 0-2.6-.3-1.4-1 1.2-.8.9-1-1.2-1-1.6 0-2.8.4-2.8 1m17.7 1.4c1.5 1.3 3 2.3 3.2 2 .5-.4-4.1-4.3-5.2-4.4-.4 0 .5 1.1 2 2.4m-7.7.6c-.8.5-1 1-.5 1 .6 0 1.7-.5 2.5-1s1.1-1 .5-1c-.5 0-1.7.5-2.5 1m5 3c.8.5 2 1 2.5 1 .6 0 .3-.5-.5-1s-1.9-1-2.5-1c-.5 0-.3.5.5 1m5 1c0 .5.7.7 1.5.4.8-.4 1.5-.8 1.5-1s-.7-.4-1.5-.4-1.5.4-1.5 1m-10.3 1.1c.7.7 1.5 1 1.8.7s-.2-.9-1.2-1.2c-1.4-.6-1.5-.5-.6.5m12.3.9c0 .5.5 1 1 1 .6 0 1-.5 1-1 0-.6-.4-1-1-1-.5 0-1 .4-1 1m-58.5 15.9c-3 .5-3.5.8-1.9 1.2 1.1.3 4.7 0 8-.7 5.2-1.1 5.5-1.2 1.9-1.2-2.2.1-5.8.4-8 .7m65.8.8c.9.2 2.3.2 3 0 .6-.3-.1-.5-1.8-.5-1.6 0-2.2.2-1.2.5m15.5 0c.7.3 1.6.2 1.9-.1.4-.3-.2-.6-1.3-.5-1.1 0-1.4.3-.6.6m8 1c.7.3 1.6.2 1.9-.1.4-.3-.2-.6-1.3-.5-1.1 0-1.4.3-.6.6m-211 1c1.2.2 3 .2 4 0 .9-.3-.1-.5-2.3-.4-2.2 0-3 .2-1.7.4m18 0c1.2.2 3 .2 4 0 .9-.3-.1-.5-2.3-.4-2.2 0-3 .2-1.7.4m83.3-.3c1.1.9 9.9 1.5 9.9.6 0-.6-2.3-1-5.2-1-2.8 0-4.9.2-4.7.4m-67.3 1.3c.7.3 1.6.2 1.9-.1.4-.3-.2-.6-1.3-.5-1.1 0-1.4.3-.6.6M266 871c0 .5 1.1 1 2.4 1 1.4 0 2.8-.5 3.1-1 .4-.6-.7-1-2.4-1s-3.1.4-3.1 1m124.8 14.7c.7.3 1.6.2 1.9-.1.4-.3-.2-.6-1.3-.5-1.1 0-1.4.3-.6.6M480 898c-2.4.8-2.3.8.8.9 1.7.1 3.2-.4 3.2-.9 0-1.1-.5-1.1-4 0m21.3 1.7c2 .2 5.4.2 7.5 0 2-.2.3-.4-3.8-.4s-5.8.2-3.7.4m-3.8 3c-1.1.2-3.6.9-5.5 1.5-2.9.9-3.1 1.2-1.6 1.8 1.1.3 3.5.3 5.5-.2 2-.4 6.5-1.4 10.1-2.2l6.5-1.4H506c-3.6 0-7.4.2-8.5.5m31.5 7.7c0 .2.8 1 1.8 1.7 1.5 1.3 1.6 1.2.3-.4s-2.1-2.1-2.1-1.3m-118.2 6.3c.7.3 1.6.2 1.9-.1.4-.3-.2-.6-1.3-.5-1.1 0-1.4.3-.6.6m-73 1c1.2.2 3.2.2 4.5 0 1.2-.2.2-.4-2.3-.4s-3.5.2-2.2.4m-242 5c.7.3 1.6.2 1.9-.1.4-.3-.2-.6-1.3-.5-1.1 0-1.4.3-.6.6m-22 1c.7.3 1.6.2 1.9-.1.4-.3-.2-.6-1.3-.5-1.1 0-1.4.3-.6.6m478.2.5c0 .4 1.6.8 3.5.8s3.5-.2 3.5-.4-1.6-.6-3.5-.8-3.5 0-3.5.4m-526.2 1.5c.7.3 1.6.2 1.9-.1.4-.3-.2-.6-1.3-.5-1.1 0-1.4.3-.6.6m-16 1c.6.2 1.8.2 2.5 0 .6-.3.1-.5-1.3-.5s-1.9.2-1.2.5m460 0c.7.3 1.6.2 1.9-.1.4-.3-.2-.6-1.3-.5-1.1 0-1.4.3-.6.6m91.5 2c.9.2 2.3.2 3 0 .6-.3-.1-.5-1.8-.5-1.6 0-2.2.2-1.2.5m-535 .9c1.2 1.2 8.3 2.3 10.7 1.6 2.5-.6 2.5-.6-.5-1.3-3.8-.9-11-1.1-10.2-.3m483.5 2.1c1.2.2 3.2.2 4.5 0 1.2-.2.2-.4-2.3-.4s-3.5.2-2.2.4m-482 1c.6.2 1.8.2 2.5 0 .6-.3.1-.5-1.3-.5s-1.9.2-1.2.5m-22.5 2c.9.2 2.3.2 3 0 .6-.3-.1-.5-1.8-.5-1.6 0-2.2.2-1.2.5m36.2 6.3c.3.5 1.8 1 3.3 1 2.1 0 2.4-.2 1.2-1-2-1.3-5.3-1.3-4.5 0m330.8-.3c.9.2 2.3.2 3 0 .6-.3-.1-.5-1.8-.5-1.6 0-2.2.2-1.2.5m-362 1c4.3.2 11 .2 15 0 4-.1.5-.3-7.8-.3-8.2 0-11.5.2-7.2.3m72 0c1.5.2 3.7.2 5 0 1.2-.2 0-.4-2.8-.4-2.7 0-3.8.2-2.2.4m266.5 0c.7.3 1.6.2 1.9-.1.4-.3-.2-.6-1.3-.5-1.1 0-1.4.3-.6.6m-300 1c.6.2 1.8.2 2.5 0 .6-.3.1-.5-1.3-.5s-1.9.2-1.2.5m16.5 1c.9.2 2.3.2 3 0 .6-.3-.1-.5-1.8-.5-1.6 0-2.2.2-1.2.5m6.5 1c.6.2 1.8.2 2.5 0 .6-.3.1-.5-1.3-.5s-1.9.2-1.2.5m-19 1c.6.2 1.8.2 2.5 0 .6-.3.1-.5-1.3-.5s-1.9.2-1.2.5m326 1c1.2.2 3 .2 4 0 .9-.3-.1-.5-2.3-.4-2.2 0-3 .2-1.7.4m-365 1c.7.3 1.6.2 1.9-.1.4-.3-.2-.6-1.3-.5-1.1 0-1.4.3-.6.6m388 0c1.2.2 3.2.2 4.5 0 1.2-.2.2-.4-2.3-.4s-3.5.2-2.2.4m-370.5 1c.9.2 2.3.2 3 0 .6-.3-.1-.5-1.8-.5-1.6 0-2.2.2-1.2.5m361 0c.9.2 2.3.2 3 0 .6-.3-.1-.5-1.8-.5-1.6 0-2.2.2-1.2.5m-10.5 1c1.2.2 3 .2 4 0 .9-.3-.1-.5-2.3-.4-2.2 0-3 .2-1.7.4M64 951.1c4.1.4 9.5 1 12 1.3l4.5.5-5-1.4c-2.7-.7-8.1-1.3-12-1.2h-7zm-16.2 2.6c1.2.2 3 .2 4 0 .9-.3-.1-.5-2.3-.4-2.2 0-3 .2-1.7.4m-22 1c1.2.2 3.2.2 4.5 0 1.2-.2.2-.4-2.3-.4s-3.5.2-2.2.4m31.5 1c.9.2 2.3.2 3 0 .6-.3-.1-.5-1.8-.5-1.6 0-2.2.2-1.2.5m-19.5 1c1.2.2 3.2.2 4.5 0 1.2-.2.2-.4-2.3-.4s-3.5.2-2.2.4m13 1c1.2.2 3 .2 4 0 .9-.3-.1-.5-2.3-.4-2.2 0-3 .2-1.7.4m17.5 1c1.5.2 3.7.2 5 0 1.2-.2 0-.4-2.8-.4-2.7 0-3.8.2-2.2.4m-11.5 1c.7.3 1.6.2 1.9-.1.4-.3-.2-.6-1.3-.5-1.1 0-1.4.3-.6.6m-20 1c.7.3 1.6.2 1.9-.1.4-.3-.2-.6-1.3-.5-1.1 0-1.4.3-.6.6m-16 1c.6.2 1.8.2 2.5 0 .6-.3.1-.5-1.3-.5s-1.9.2-1.2.5m22.5 1c.9.2 2.5.2 3.5 0 .9-.3.1-.5-1.8-.5s-2.7.2-1.7.5m345 0c.9.2 2.3.2 3 0 .6-.3-.1-.5-1.8-.5-1.6 0-2.2.2-1.2.5m-328 1c.9.2 2.3.2 3 0 .6-.3-.1-.5-1.8-.5-1.6 0-2.2.2-1.2.5m-18.5 1c1.2.2 3.2.2 4.5 0 1.2-.2.2-.4-2.3-.4s-3.5.2-2.2.4m38.5 1c1.5.2 3.9.2 5.5 0 1.5-.2.2-.4-2.8-.4s-4.3.2-2.7.4m271.5 0c.6.2 1.8.2 2.5 0 .6-.3.1-.5-1.3-.5s-1.9.2-1.2.5m-285 1c1.2.2 3.2.2 4.5 0 1.2-.2.2-.4-2.3-.4s-3.5.2-2.2.4m257.5 0c.9.2 2.3.2 3 0 .6-.3-.1-.5-1.8-.5-1.6 0-2.2.2-1.2.5m-295.5 1c.7.3 1.6.2 1.9-.1.4-.3-.2-.6-1.3-.5-1.1 0-1.4.3-.6.6m269 0c.6.2 1.8.2 2.5 0 .6-.3.1-.5-1.3-.5s-1.9.2-1.2.5m-240 1c1.2.2 3.2.2 4.5 0 1.2-.2.2-.4-2.3-.4s-3.5.2-2.2.4m21.5 0c.9.2 2.5.2 3.5 0 .9-.3.1-.5-1.8-.5s-2.7.2-1.7.5m42.5 0c1.2.2 3.2.2 4.5 0 1.2-.2.2-.4-2.3-.4s-3.5.2-2.2.4M85.5 970c.3.5 1.2.7 2 .3 2.1-.7 1.9-1.3-.6-1.3-1.1 0-1.8.4-1.4 1m165 0-2 .9h2c1.1 0 2.7-.4 3.5-.9 1.3-.9 1.3-1 0-.9-.8 0-2.4.4-3.5.9m-151.7 1.7c1.2.2 3 .2 4 0 .9-.3-.1-.5-2.3-.4-2.2 0-3 .2-1.7.4m140.5 0c1.5.2 3.7.2 5 0 1.2-.2 0-.4-2.8-.4-2.7 0-3.8.2-2.2.4m-181.5 1c1.2.2 3.2.2 4.5 0 1.2-.2.2-.4-2.3-.4s-3.5.2-2.2.4m34.5 0c.9.2 2.3.2 3 0 .6-.3-.1-.5-1.8-.5-1.6 0-2.2.2-1.2.5m23 0c.9.2 2.5.2 3.5 0 .9-.3.1-.5-1.8-.5s-2.7.2-1.7.5m157.5 0c.7.3 1.6.2 1.9-.1.4-.3-.2-.6-1.3-.5-1.1 0-1.4.3-.6.6m-194 1c.6.2 1.8.2 2.5 0 .6-.3.1-.5-1.3-.5s-1.9.2-1.2.5m166.5 0c.9.2 2.5.2 3.5 0 .9-.3.1-.5-1.8-.5s-2.7.2-1.7.5m-151.5 1c.7.3 1.6.2 1.9-.1.4-.3-.2-.6-1.3-.5-1.1 0-1.4.3-.6.6m170 0c.7.3 1.6.2 1.9-.1.4-.3-.2-.6-1.3-.5-1.1 0-1.4.3-.6.6m-239.5 1c1.5.2 3.9.2 5.5 0 1.5-.2.2-.4-2.8-.4s-4.3.2-2.7.4m285.5 0c.7.3 1.6.2 1.9-.1.4-.3-.2-.6-1.3-.5-1.1 0-1.4.3-.6.6m-243.1 1c1.8.2 5 .2 7 0 2.1-.2.7-.4-3.2-.4-3.8 0-5.5.2-3.8.4m188.1 0c1.2.2 3 .2 4 0 .9-.3-.1-.5-2.3-.4-2.2 0-3 .2-1.7.4m-149.3 1.2 2 .8-2 .5c-3 .8 6.5.7 10-.1 2.7-.6 2.4-.8-2.5-1.4-3-.4-6.4-.7-7.5-.6h-2zm103.3-.2c.6.2 1.8.2 2.5 0 .6-.3.1-.5-1.3-.5s-1.9.2-1.2.5m6.4.4c1.8.7 4.2.7 7 .1 4.2-1 4.1-1-2.7-1-5.8 0-6.5.1-4.3.9m9.6 1.6c.6.2 1.8.2 2.5 0 .6-.3.1-.5-1.3-.5s-1.9.2-1.2.5m-91.5 1c.9.2 2.5.2 3.5 0 .9-.3.1-.5-1.8-.5s-2.7.2-1.7.5m73.5 0c.7.3 1.6.2 1.9-.1.4-.3-.2-.6-1.3-.5-1.1 0-1.4.3-.6.6m6.5 0c1.5.2 3.9.2 5.5 0 1.5-.2.2-.4-2.8-.4s-4.3.2-2.7.4m-101.5 1c.7.3 1.6.2 1.9-.1.4-.3-.2-.6-1.3-.5-1.1 0-1.4.3-.6.6m125.2.4c6.9.4 13.6.8 15 1 1.4.1 3.9.1 5.5-.1 4.9-.5-11.1-1.7-22.5-1.7h-10.5zm-144.7.6c.9.2 2.3.2 3 0 .6-.3-.1-.5-1.8-.5-1.6 0-2.2.2-1.2.5m-17.5 1c.7.3 1.6.2 1.9-.1.4-.3-.2-.6-1.3-.5-1.1 0-1.4.3-.6.6m-27.8 1c-6.1.8-5.4 2.1 1.4 2.8 3.7.4 7 .5 7.3.1.4-.3-.8-.6-2.5-.6-3.7 0-4.3-1.6-.9-2.3 1.7-.3 1.8-.4.2-.4-1.1 0-3.6.2-5.5.4m237.8 1c.7.3 1.6.2 1.9-.1.4-.3-.2-.6-1.3-.5-1.1 0-1.4.3-.6.6m-30 2c.6.2 1.8.2 2.5 0 .6-.3.1-.5-1.3-.5s-1.9.2-1.2.5m-172 1c1.2.2 3 .2 4 0 .9-.3-.1-.5-2.3-.4-2.2 0-3 .2-1.7.4m142 0c.7.3 1.6.2 1.9-.1.4-.3-.2-.6-1.3-.5-1.1 0-1.4.3-.6.6m-112.7.7c.2.2 3.1.6 6.4.9 3.7.3 5.1.2 3.5-.3-2.5-.8-10.7-1.3-9.9-.6m84.7.3c.6.2 1.8.2 2.5 0 .6-.3.1-.5-1.3-.5s-1.9.2-1.2.5m20 1c.6.2 1.8.2 2.5 0 .6-.3.1-.5-1.3-.5s-1.9.2-1.2.5m-141 1c.6.2 1.8.2 2.5 0 .6-.3.1-.5-1.3-.5s-1.9.2-1.2.5m180.7.3c.3.5 2.1 1 3.8 1 2.4 0 2.8-.3 1.7-1-2-1.3-6.3-1.3-5.5 0m-203.7.7c.6.2 1.8.2 2.5 0 .6-.3.1-.5-1.3-.5s-1.9.2-1.2.5m44 0c.7.3 1.6.2 1.9-.1.4-.3-.2-.6-1.3-.5-1.1 0-1.4.3-.6.6m23.5 0c.9.2 2.3.2 3 0 .6-.3-.1-.5-1.8-.5-1.6 0-2.2.2-1.2.5m76.5 0c.6.2 1.8.2 2.5 0 .6-.3.1-.5-1.3-.5s-1.9.2-1.2.5m56 0c.7.3 1.6.2 1.9-.1.4-.3-.2-.6-1.3-.5-1.1 0-1.4.3-.6.6m17.5 0c2.6.2 6.8.2 9.5 0 2.6-.2.4-.3-4.8-.3s-7.4.1-4.7.3m-37.5 2c.7.3 1.6.2 1.9-.1.4-.3-.2-.6-1.3-.5-1.1 0-1.4.3-.6.6m-164 1c.6.2 1.8.2 2.5 0 .6-.3.1-.5-1.3-.5s-1.9.2-1.2.5m-24.5 1c.9.2 2.3.2 3 0 .6-.3-.1-.5-1.8-.5-1.6 0-2.2.2-1.2.5m233.5 0c.7.3 1.6.2 1.9-.1.4-.3-.2-.6-1.3-.5-1.1 0-1.4.3-.6.6m-244 1c1.2.2 3.2.2 4.5 0 1.2-.2.2-.4-2.3-.4s-3.5.2-2.2.4m252 0c1.2.2 3.2.2 4.5 0 1.2-.2.2-.4-2.3-.4s-3.5.2-2.2.4m-208 1c1.2.2 3.2.2 4.5 0 1.2-.2.2-.4-2.3-.4s-3.5.2-2.2.4m154.5 0c1.5.2 3.9.2 5.5 0 1.5-.2.2-.4-2.8-.4s-4.3.2-2.7.4m-118.5 3c1.2.2 3.2.2 4.5 0 1.2-.2.2-.4-2.3-.4s-3.5.2-2.2.4m55.5 0c1.5.2 3.7.2 5 0 1.2-.2 0-.4-2.8-.4-2.7 0-3.8.2-2.2.4"/></g><path fill="#555" d="M501.5 80c-.3.6.1.7.9.4 1.8-.7 2.1-1.4.7-1.4-.6 0-1.3.4-1.6 1m-32.6 14.7-2.4 2.8 2.8-2.4c2.5-2.3 3.2-3.1 2.4-3.1-.2 0-1.4 1.2-2.8 2.7M606.2 111c0 1.4.2 1.9.5 1.2.2-.6.2-1.8 0-2.5-.3-.6-.5-.1-.5 1.3m-7.3 23.7c-1.3 1.6-1.2 1.7.4.4.9-.7 1.7-1.5 1.7-1.7 0-.8-.8-.3-2.1 1.3M429.5 145c.3.5.8 1 1.1 1 .2 0 .4-.5.4-1 0-.6-.5-1-1.1-1-.5 0-.7.4-.4 1m2.5 12.4c0 .2.8 1 1.8 1.7 1.5 1.3 1.6 1.2.3-.4s-2.1-2.1-2.1-1.3m44 61c0 .2.8 1 1.8 1.7 1.5 1.3 1.6 1.2.3-.4s-2.1-2.1-2.1-1.3M451.2 266c0 1.4.2 1.9.5 1.2.2-.6.2-1.8 0-2.5-.3-.6-.5-.1-.5 1.3m-34.8 42.2-1.9 2.3 2.3-1.9c2.1-1.8 2.7-2.6 1.9-2.6-.2 0-1.2 1-2.3 2.2m242 134-1.9 2.3 2.3-1.9c2.1-1.8 2.7-2.6 1.9-2.6-.2 0-1.2 1-2.3 2.2m-293.1 15.3c0 2.2.2 3 .4 1.7.2-1.2.2-3 0-4-.3-.9-.5.1-.4 2.3m4 15c0 4.4.2 6.1.4 3.7.2-2.3.2-5.9 0-8-.2-2-.4-.1-.4 4.3m53.9 17.5c0 1.4.2 1.9.5 1.2.2-.6.2-1.8 0-2.5-.3-.6-.5-.1-.5 1.3m5.8 10.4c0 .2.8 1 1.8 1.7 1.5 1.3 1.6 1.2.3-.4s-2.1-2.1-2.1-1.3m165.1 80.2c0 1.1.3 1.4.6.6.3-.7.2-1.6-.1-1.9-.3-.4-.6.2-.5 1.3M402.5 668c.3.5.8 1 1.1 1 .2 0 .4-.5.4-1 0-.6-.5-1-1.1-1-.5 0-.7.4-.4 1m6.6 12.7c-1 2.6-1 2.7.4.9.8-1.1 1.5-2.3 1.5-2.8 0-1.5-.7-.8-1.9 1.9m37.6 33.3c-.3 1.1-.1 2 .4 2s.9-.9.9-2-.2-2-.4-2-.6.9-.9 2m-29.5 28c0 1.4.2 1.9.5 1.2.2-.6.2-1.8 0-2.5-.3-.6-.5-.1-.5 1.3m36.7 9.7c-1.3 1.6-1.2 1.7.4.4.9-.7 1.7-1.5 1.7-1.7 0-.8-.8-.3-2.1 1.3M401.1 773c.1 5.5.1 5.5.9 1.5.4-2.2.4-4.7-.1-5.5-.5-1-.8.5-.8 4m84.1 5.5c0 1.6.2 2.2.5 1.2.2-.9.2-2.3 0-3-.3-.6-.5.1-.5 1.8m-124.1 2.1c0 1.1.3 1.4.6.6.3-.7.2-1.6-.1-1.9-.3-.4-.6.2-.5 1.3m43.1 6.4c0 1.4.2 1.9.5 1.2.2-.6.2-1.8 0-2.5-.3-.6-.5-.1-.5 1.3m78.6.7c.7.3 1.6.2 1.9-.1.4-.3-.2-.6-1.3-.5-1.1 0-1.4.3-.6.6m3.5 3c1.5.2 3.7.2 5 0 1.2-.2 0-.4-2.8-.4-2.7 0-3.8.2-2.2.4m-85.1 11.8c0 1.6.2 2.2.5 1.2.2-.9.2-2.3 0-3-.3-.6-.5.1-.5 1.8m2.9-.9c0 1.1.3 1.4.6.6.3-.7.2-1.6-.1-1.9-.3-.4-.6.2-.5 1.3m117.8 5.1c-1.3 1.6-1.2 1.7.4.4s2.1-2.1 1.3-2.1c-.2 0-1 .8-1.7 1.7m-131.6 22c.9.2 2.5.2 3.5 0 .9-.3.1-.5-1.8-.5s-2.7.2-1.7.5m73 13.3c0 2.5.2 3.5.4 2.2.2-1.2.2-3.2 0-4.5-.2-1.2-.4-.2-.4 2.3m12.2 12c-1.8.8-1.7.9.8.9 1.6.1 2.6-.3 2.2-.9-.3-.6-.7-1-.8-.9-.1 0-1.1.4-2.2.9m-6.7.7c.7.3 1.6.2 1.9-.1.4-.3-.2-.6-1.3-.5-1.1 0-1.4.3-.6.6m66 2c.7.3 1.6.2 1.9-.1.4-.3-.2-.6-1.3-.5-1.1 0-1.4.3-.6.6m-88.3 1.3c-.4.6 1.1 1 3.7.9 3.6-.1 3.9-.2 1.8-.9-3.6-1.1-4.8-1.1-5.5 0m-83 7.1c-.4.6-.5 1.2-.2 1.5.2.3.7-.2 1-1.1.7-1.7.1-2-.8-.4M275 871c0 .5.4 1 .9 1 .6 0 1.3-.5 1.6-1 .3-.6-.1-1-.9-1-.9 0-1.6.4-1.6 1m98.8 15.7c.7.3 1.6.2 1.9-.1.4-.3-.2-.6-1.3-.5-1.1 0-1.4.3-.6.6M503 898l-6.5.7 6.5.1c3.6.1 7.2-.3 8-.8 1.3-.9 1.3-1 0-.8-.8.1-4.4.4-8 .8m-11.7.7c.9.2 2.5.2 3.5 0 .9-.3.1-.5-1.8-.5s-2.7.2-1.7.5m16 6c.9.2 2.5.2 3.5 0 .9-.3.1-.5-1.8-.5s-2.7.2-1.7.5m-90 12c.9.2 2.5.2 3.5 0 .9-.3.1-.5-1.8-.5s-2.7.2-1.7.5m-316.5 6c.7.3 1.6.2 1.9-.1.4-.3-.2-.6-1.3-.5-1.1 0-1.4.3-.6.6m-21 1c.7.3 1.6.2 1.9-.1.4-.3-.2-.6-1.3-.5-1.1 0-1.4.3-.6.6m446.7.3c-.7 1.2.2 1.2 3 0 1.9-.8 1.9-.9-.2-.9-1.2-.1-2.5.3-2.8.9m-469.7.7c.7.3 1.6.2 1.9-.1.4-.3-.2-.6-1.3-.5-1.1 0-1.4.3-.6.6m-24.5 1c.9.2 2.3.2 3 0 .6-.3-.1-.5-1.8-.5-1.6 0-2.2.2-1.2.5M0 928c0 .6 2.4 1 5.7 1 6.8 0 6.6-.5-.4-1.4-3.4-.4-5.3-.3-5.3.4m554.8.7c.6.2 1.8.2 2.5 0 .6-.3.1-.5-1.3-.5s-1.9.2-1.2.5M42 929.9c0 .4 1.1.6 2.5.3 1.4-.2 2.5-.6 2.5-.8s-1.1-.4-2.5-.4-2.5.4-2.5.9m-37.3 3.8c1.8.2 5 .2 7 0 2.1-.2.7-.4-3.2-.4-3.8 0-5.5.2-3.8.4m12.6 1c.9.2 2.5.2 3.5 0 .9-.3.1-.5-1.8-.5s-2.7.2-1.7.5m6.8-.3c1.2 1 5.9 1.5 5.9.6 0-.5-1.4-1-3.2-1-1.7 0-2.9.2-2.7.4m-18.8 2.3c.9.2 2.3.2 3 0 .6-.3-.1-.5-1.8-.5-1.6 0-2.2.2-1.2.5M10 938c0 .5.6 1 1.4 1s1.8-.5 2.1-1c.3-.6-.3-1-1.4-1-1.2 0-2.1.4-2.1 1m17.8 1.7c.7.3 1.6.2 1.9-.1.4-.3-.2-.6-1.3-.5-1.1 0-1.4.3-.6.6m22 1c1.2.2 3.2.2 4.5 0 1.2-.2.2-.4-2.3-.4s-3.5.2-2.2.4m309 0c.6.2 1.8.2 2.5 0 .6-.3.1-.5-1.3-.5s-1.9.2-1.2.5m-297 2c1.2.2 3.2.2 4.5 0 1.2-.2.2-.4-2.3-.4s-3.5.2-2.2.4m17 1.4c2 .6 4.4.6 6.5 0 2.8-.8 2.4-.9-3.3-.9s-6.1.1-3.2.9m-20.5 1.6c.9.2 2.3.2 3 0 .6-.3-.1-.5-1.8-.5-1.6 0-2.2.2-1.2.5m-22 1c1.5.2 3.9.2 5.5 0 1.5-.2.2-.4-2.8-.4s-4.3.2-2.7.4m328.5 0c1.2.2 3.2.2 4.5 0 1.2-.2.2-.4-2.3-.4s-3.5.2-2.2.4m-339.5 1c.9.2 2.5.2 3.5 0 .9-.3.1-.5-1.8-.5s-2.7.2-1.7.5m366.5 0c.7.3 1.6.2 1.9-.1.4-.3-.2-.6-1.3-.5-1.1 0-1.4.3-.6.6M26 949l-14.5.6 15.7.2c9.6.1 15.9-.2 16.3-.8.3-.6-.2-.9-1.2-.8s-8.3.5-16.3.8m358.8-.3c.7.3 1.6.2 1.9-.1.4-.3-.2-.6-1.3-.5-1.1 0-1.4.3-.6.6m-322 1c2.9.2 7.4.2 10 0s.2-.3-5.3-.3-7.6.1-4.7.3m310.5 0c.9.2 2.3.2 3 0 .6-.3-.1-.5-1.8-.5-1.6 0-2.2.2-1.2.5m-293.3 1c1.4.3 2.9.9 3.5 1.4 1.2 1.1 8.2 1.2 8.9 0 .6-.9-6.9-2.2-11.8-2-2.7.2-2.8.2-.6.6M56 954l-4.5.7 4.5.2c2.5 0 7.7.3 11.5.6 6.2.4 6.6.3 3-.6-6-1.5-9.5-1.8-14.5-.9m-1.7 2.7c1.5.2 3.7.2 5 0 1.2-.2 0-.4-2.8-.4-2.7 0-3.8.2-2.2.4M74 958c5.2.4 10.2.4 11-.1.9-.5-3.1-.8-9.5-.7l-11 .1zm-10.2 1.7c.6.2 1.8.2 2.5 0 .6-.3.1-.5-1.3-.5s-1.9.2-1.2.5m-36 2c.7.3 1.6.2 1.9-.1.4-.3-.2-.6-1.3-.5-1.1 0-1.4.3-.6.6m32 1c1.8.2 4.5.2 6 0s0-.4-3.3-.4-4.5.2-2.7.4M67 964l-5.5.7H67c3 .1 6.6-.3 8-.7l2.5-.8-2.5.1c-1.4 0-5 .3-8 .7m30.3 1.7c.9.2 2.3.2 3 0 .6-.3-.1-.5-1.8-.5-1.6 0-2.2.2-1.2.5m249.5 0c.7.3 1.6.2 1.9-.1.4-.3-.2-.6-1.3-.5-1.1 0-1.4.3-.6.6m-264 1c1.2.2 3 .2 4 0 .9-.3-.1-.5-2.3-.4-2.2 0-3 .2-1.7.4m233 0c.6.2 1.8.2 2.5 0 .6-.3.1-.5-1.3-.5s-1.9.2-1.2.5m-270.5 1c2 .2 5.4.2 7.5 0 2-.2.3-.4-3.8-.4s-5.8.2-3.7.4m23.5 0c.7.3 1.6.2 1.9-.1.4-.3-.2-.6-1.3-.5-1.1 0-1.4.3-.6.6m4 0c.7.3 1.6.2 1.9-.1.4-.3-.2-.6-1.3-.5-1.1 0-1.4.3-.6.6m220 0c.7.3 1.6.2 1.9-.1.4-.3-.2-.6-1.3-.5-1.1 0-1.4.3-.6.6m-153.5 1c.9.2 2.5.2 3.5 0 .9-.3.1-.5-1.8-.5s-2.7.2-1.7.5m129 0c.9.2 2.3.2 3 0 .6-.3-.1-.5-1.8-.5-1.6 0-2.2.2-1.2.5m-166 1c1.5.2 3.9.2 5.5 0 1.5-.2.2-.4-2.8-.4s-4.3.2-2.7.4m139.5 0c1.2.2 3 .2 4 0 .9-.3-.1-.5-2.3-.4-2.2 0-3 .2-1.7.4m-149 1c.6.2 1.8.2 2.5 0 .6-.3.1-.5-1.3-.5s-1.9.2-1.2.5m133.7.4c-2 .5-.9.6 3 .2 3.3-.3 6.2-.7 6.4-.9.8-.7-6.3-.2-9.4.7m-103 .9c6.1.4 16.6.7 23.5.7h12.5l-14-.8c-7.7-.3-18.3-.6-23.5-.6h-9.5zm-50.8.7c1.8.2 5 .2 7 0 2.1-.2.7-.4-3.2-.4-3.8 0-5.5.2-3.8.4m188.1 0c1.2.2 3 .2 4 0 .9-.3-.1-.5-2.3-.4-2.2 0-3 .2-1.7.4m-170.5 1c.9.2 2.5.2 3.5 0 .9-.3.1-.5-1.8-.5s-2.7.2-1.7.5m113.5 0c2.3.2 6.1.2 8.5 0 2.3-.2.4-.4-4.3-.4s-6.6.2-4.2.4m-99.5 1c1.5.2 3.9.2 5.5 0 1.5-.2.2-.4-2.8-.4s-4.3.2-2.7.4m10.7.3c-1 .7.5 1 4.9 1 3.5 0 6.2-.2 6-.4-1.1-.9-9.6-1.4-10.9-.6m137.3-.3c.9.2 2.3.2 3 0 .6-.3-.1-.5-1.8-.5-1.6 0-2.2.2-1.2.5m-190 1c2 .2 5.4.2 7.5 0 2-.2.3-.4-3.8-.4s-5.8.2-3.7.4m26.7.3c-1.1.7-.6 1 2 1 1.9 0 4.2-.5 5-1 1.1-.7.6-1-2-1-1.9 0-4.2.5-5 1m206.3-.3c.9.2 2.5.2 3.5 0 .9-.3.1-.5-1.8-.5s-2.7.2-1.7.5m-52 1c.9.2 2.5.2 3.5 0 .9-.3.1-.5-1.8-.5s-2.7.2-1.7.5m-117 1c1.5.2 3.7.2 5 0 1.2-.2 0-.4-2.8-.4-2.7 0-3.8.2-2.2.4m62 0c1.5.2 3.9.2 5.5 0 1.5-.2.2-.4-2.8-.4s-4.3.2-2.7.4m-54.3 1.2c-7.6.5-6.5.7 10.5 1.3 10.5.5 25.1.7 32.5.6l13.5-.2-18-.7c-9.9-.4-20.7-.9-24-1.2-3.3-.2-9.8-.2-14.5.2m69.3-.2c1.5.2 3.7.2 5 0 1.2-.2 0-.4-2.8-.4-2.7 0-3.8.2-2.2.4m10 1c.9.2 2.3.2 3 0 .6-.3-.1-.5-1.8-.5-1.6 0-2.2.2-1.2.5m-89 2c.9.2 2.5.2 3.5 0 .9-.3.1-.5-1.8-.5s-2.7.2-1.7.5m85.5 0c1.2.2 3 .2 4 0 .9-.3-.1-.5-2.3-.4-2.2 0-3 .2-1.7.4m-109.5 1c.9.2 2.3.2 3 0 .6-.3-.1-.5-1.8-.5-1.6 0-2.2.2-1.2.5m130.5 0c.6.2 1.8.2 2.5 0 .6-.3.1-.5-1.3-.5s-1.9.2-1.2.5m-149 1c1.2.2 3.2.2 4.5 0 1.2-.2.2-.4-2.3-.4s-3.5.2-2.2.4m164 0c.7.3 1.6.2 1.9-.1.4-.3-.2-.6-1.3-.5-1.1 0-1.4.3-.6.6M64.4 986c2.2 1.1 4.7 2 5.5 2 .9 0-.4-.9-2.8-2-5.6-2.6-7.8-2.5-2.7 0m230.4.7c.7.3 1.6.2 1.9-.1.4-.3-.2-.6-1.3-.5-1.1 0-1.4.3-.6.6m-200 2c.7.3 1.6.2 1.9-.1.4-.3-.2-.6-1.3-.5-1.1 0-1.4.3-.6.6m122 0c.6.2 1.8.2 2.5 0 .6-.3.1-.5-1.3-.5s-1.9.2-1.2.5m-71 1c1.2.2 3.2.2 4.5 0 1.2-.2.2-.4-2.3-.4s-3.5.2-2.2.4m40 0c1.2.2 3.2.2 4.5 0 1.2-.2.2-.4-2.3-.4s-3.5.2-2.2.4m25 1c.7.3 1.6.2 1.9-.1.4-.3-.2-.6-1.3-.5-1.1 0-1.4.3-.6.6M83.5 992c-1.5.7-1 .9 2.3.9 2.3.1 4.2-.4 4.2-.9 0-1.2-3.7-1.2-6.5 0m162.3-.3c1.2.2 3 .2 4 0 .9-.3-.1-.5-2.3-.4-2.2 0-3 .2-1.7.4m-180.5 1c.9.2 2.5.2 3.5 0 .9-.3.1-.5-1.8-.5s-2.7.2-1.7.5m67 0c.9.2 2.3.2 3 0 .6-.3-.1-.5-1.8-.5-1.6 0-2.2.2-1.2.5m56 0c.9.2 2.3.2 3 0 .6-.3-.1-.5-1.8-.5-1.6 0-2.2.2-1.2.5m20.5 1c.7.3 1.6.2 1.9-.1.4-.3-.2-.6-1.3-.5-1.1 0-1.4.3-.6.6m-131 2c.7.3 1.6.2 1.9-.1.4-.3-.2-.6-1.3-.5-1.1 0-1.4.3-.6.6m175 0c.6.2 1.8.2 2.5 0 .6-.3.1-.5-1.3-.5s-1.9.2-1.2.5M50.5 997l-6 .7H50c3 .1 6.6-.3 8-.7 3-1 1.3-1-7.5 0m218 0c.3.5 1.3 1 2.1 1s1.4-.5 1.4-1c0-.6-.9-1-2.1-1-1.1 0-1.7.4-1.4 1m6.3.7c.6.2 1.8.2 2.5 0 .6-.3.1-.5-1.3-.5s-1.9.2-1.2.5m-175.5 1c2 .2 5.4.2 7.5 0 2-.2.3-.4-3.8-.4s-5.8.2-3.7.4m67 0c3.7.2 9.6.2 13 0s.4-.3-6.8-.3c-7.1 0-9.9.1-6.2.3"/><g fill="gray" stroke-width="0"><path d="m479.4 59.2-1.9 2.3 2.3-1.9c2.1-1.8 2.7-2.6 1.9-2.6-.2 0-1.2 1-2.3 2.2M572.5 77c1 1.1 2 2 2.3 2s-.3-.9-1.3-2-2-2-2.3-2 .3.9 1.3 2M469.9 88.7c-1.3 1.6-1.2 1.7.4.4.9-.7 1.7-1.5 1.7-1.7 0-.8-.8-.3-2.1 1.3m128.2 4.9c0 1.1.3 1.4.6.6.3-.7.2-1.6-.1-1.9-.3-.4-.6.2-.5 1.3M463 100c0 .5.5 1 1.1 1 .5 0 .7-.5.4-1-.3-.6-.8-1-1.1-1-.2 0-.4.4-.4 1m138.2 1.5c0 1.6.2 2.2.5 1.2.2-.9.2-2.3 0-3-.3-.6-.5.1-.5 1.8m-7.2 45.9c0 .2.8 1 1.8 1.7 1.5 1.3 1.6 1.2.3-.4s-2.1-2.1-2.1-1.3m-.9 3.2c0 1.1.3 1.4.6.6.3-.7.2-1.6-.1-1.9-.3-.4-.6.2-.5 1.3m-14.2 94.1c-1.3 1.6-1.2 1.7.4.4.9-.7 1.7-1.5 1.7-1.7 0-.8-.8-.3-2.1 1.3m42.6 35.3c1 1.1 2 2 2.3 2s-.3-.9-1.3-2-2-2-2.3-2 .3.9 1.3 2m40.1 158.8c-.3.5.1.9.9.9s1.2-.4.9-.9c-.3-.4-.7-.8-.9-.8s-.6.4-.9.8m-67.5 138.8c0 1.1.3 1.4.6.6.3-.7.2-1.6-.1-1.9-.3-.4-.6.2-.5 1.3M469.5 590c3.8 3.8 7.2 7 7.4 7 .3 0-2.6-3.2-6.4-7-3.8-3.9-7.2-7-7.4-7-.3 0 2.6 3.1 6.4 7m131.6 59.6c0 1.1.3 1.4.6.6.3-.7.2-1.6-.1-1.9-.3-.4-.6.2-.5 1.3M401 666.9c0 .5 1.7 4.2 3.9 8.3 2.1 4 4.2 8.6 4.6 10.2.5 2.2.9 2.6 1.5 1.6.5-.8.6-1.8.4-2.2-.3-.5.2-1.1 1-1.4.9-.3 1.6-1.5 1.6-2.6 0-1-.4-1.6-1-1.3s-.7-.1-.4-.9c1.4-3.6-5.4-10.5-9.5-9.7-.9.2-1.2-.3-.8-1.3.4-.9.2-1.6-.3-1.6-.6 0-1 .4-1 .9m9.1 13.5c-1.1 2-1.1 2-.8-.6.3-1.9 0-2.5-1-2.1-.7.3-1.3.1-1.3-.5 0-1.7 2.4-2 3.4-.5.5.9.4 2.4-.3 3.7m17.9 16.5c0 .5-.3 1.7-.7 2.7-.4 1.1-.3 1.5.4 1.1 1.4-.9 2.4-4.7 1.2-4.7-.5 0-.9.4-.9.9m-2 5.8c0 .6-.3 2-.6 3-.4 1.3-.3 1.5.4.4.7-1 1.1-1 1.7-.1.4.7-.1 1.4-1.5 1.7q-2.1.6-1.5 2.1c.3.8.1 1.8-.5 2.2-1.5.9-.2 3.7 2.1 4.3 1.4.4 1.9 0 2.1-1.6.3-4.4.5-5.2 1.2-7.4.4-1.3.3-3.1-.3-4-.8-1.4-1-1.5-1.1-.3 0 1.3-.1 1.3-1 0-.6-.9-1-1-1-.3m26.2 10.5c-.5 2.1-.6 2.1-1.3.2-.5-1.1-.8.9-.6 5.2.1 4 .5 7 1 6.7.4-.2.7-1.4.8-2.6 0-2 .1-2 .8-.3.4 1 .7-1 .6-4.8 0-6.9-.3-8-1.3-4.4m-30.2 3.4c0 .3.5 1.5 1.1 2.6.9 1.7 1.3 1.8 2 .7 1.2-1.9 1.1-3.2-.1-2.4-.5.3-1 .1-1-.4 0-.6-.4-1.1-1-1.1-.5 0-1 .3-1 .6m24.2 1.4c0 1.4.2 1.9.5 1.2.2-.6.2-1.8 0-2.5-.3-.6-.5-.1-.5 1.3m-25.6 4.2c-.3 1.7-.4 3.3-.1 3.6s.5-.3.5-1.3c0-1.8.1-1.8 1.5.1 1.3 1.7 1.4 1.7 1.5.1 0-.9-.5-1.7-1.1-1.7s-.9-.7-.6-1.5c.4-.8.2-1.7-.2-2-.5-.2-1.1.9-1.5 2.7m-1.5 7.4c0 1.1.3 1.4.6.6.3-.7.2-1.6-.1-1.9-.3-.4-.6.2-.5 1.3M418 735c0 .8.5 2.2 1 3 .9 1.3 1 1.3 1 0 0-.8-.5-2.2-1-3-.9-1.3-1-1.3-1 0m66.1 1.6c0 1.1.3 1.4.6.6.3-.7.2-1.6-.1-1.9-.3-.4-.6.2-.5 1.3m-27 8c0 1.1.3 1.4.6.6.3-.7.2-1.6-.1-1.9-.3-.4-.6.2-.5 1.3m-40 1c0 1.1.3 1.4.6.6.3-.7.2-1.6-.1-1.9-.3-.4-.6.2-.5 1.3m68.1 38.4c0 1.9.2 2.7.5 1.7.2-.9.2-2.5 0-3.5-.3-.9-.5-.1-.5 1.8m-80.9 10.5c0 3.3.2 4.5.4 2.7s.2-4.5 0-6-.4 0-.4 3.3m77.7-2.4c1.2.9 1.1 1-.7.6-1.5-.3-2.3 0-2.3.8 0 1.6 3.2 2.5 9.7 2.5 2.8 0 6.3.4 7.7 1 2.6.9 3.8-.3 1.4-1.3-1-.4-1-.6-.1-.6.7-.1 1.7.8 2.3 1.9 1.1 2 3 1.9 3-.1 0-.6-.4-.7-1-.4-.5.3-1 .2-1-.3 0-2.3-5.4-4.3-12.8-4.7-5.7-.4-7.3-.2-6.2.6m13 1.9c-.8.5-2.2.9-3 .9-1 0-.8-.3.5-.9 2.7-1.2 4.3-1.2 2.5 0m-19.4 1.5c-.3.9 0 1.5.9 1.5 1.6 0 2-1.6.6-2.4-.5-.3-1.1.1-1.5.9m29.1 1.2c-1.3 1.2-.7 2.4 1 2.1 1-.2 1.8.3 1.8 1.2.1.8.6 1.4 1.3 1.2.7-.1 1.2.5 1.2 1.3 0 2.1-.9 1.9-3.9-.7-1.4-1.3-1-.6.8 1.5 1.9 2 3.5 3.7 3.5 3.7.1 0 .2-1.3.3-2.9.1-2-.6-3.6-2.6-5.5-1.5-1.4-3-2.3-3.4-1.9M401.2 807c0 1.4.2 1.9.5 1.2.2-.6.2-1.8 0-2.5-.3-.6-.5-.1-.5 1.3m112.4-1.2c.2.3-.1 1.1-.6 1.7-.7.9-.5 1.7.7 2.6.9.8 1.4.9 1 .2-.4-.6-.1-1.3.5-1.6 1-.3.9-.8-.3-2-.9-.8-1.4-1.2-1.3-.9m-109.7 17.9c-1.3 1.6-1.2 1.7.4.4.9-.7 1.7-1.5 1.7-1.7 0-.8-.8-.3-2.1 1.3m78.5 1.2c.3.4-.5.6-1.8.4-1.2-.3-2.9.2-3.7.9-.8.8-1.7 1.5-2.1 1.6-.5.1-.7.5-.5.9.1.5.8.6 1.6.5.7-.2 1 .1.6.7-.4.7 1 1.1 4 1.1 2.8 0 4.4-.4 4-1-.3-.6.1-1 1-1 1.1 0 1.5.5 1.1 1.5-.3.9 0 1.5.9 1.5.8 0 1.5-.5 1.5-1.1 0-.8 1.5-1 4.5-.7 2.4.3 4.2.2 4-.2-.3-.5.5-.6 1.7-.4 2 .3.4-.3-9.2-3.3-1.2-.4-1.1-.7.5-1.3 1.4-.6.5-.9-3.3-.9-2.9-.1-5.1.3-4.8.8m-.7 4.7c-.3.3-1.2.4-1.9.1-.8-.3-.5-.6.6-.6 1.1-.1 1.7.2 1.3.5"/><path d="M495.5 826.3c1.7.8 3.2 1.3 3.4 1.1.7-.7-.3-1.2-3.4-1.9l-3-.6zm6.5 2.2c1.5.9 1.9 1.5 1 1.5-.8 0-3.2.9-5.3 1.9l-3.8 1.8 3.9 1.1c3.2 1 4.6.9 7.2-.2 2.1-.8 2.8-1.6 2.1-2.1-.7-.4-2 0-3 .9-2 1.8-3.5 2.1-2.5.5.4-.8-.1-.9-1.7-.4-1.3.4-2 .4-1.6-.1.4-.4 2-.8 3.4-.9 3.2 0 4-3 1.3-4.5-2.9-1.6-3.8-1.1-1 .5m-10.4 3.4c-.4.5.3.7 1.4.4 2.3-.6 2.6-1.3.6-1.3-.8 0-1.7.4-2 .9m16.6 3c-2.2.6-2.2.7-.7 2.6.9 1.1 1.4 1.5 1.1.8-.4-.6.2-1.6 1.1-2.2 2.3-1.2 1.4-1.9-1.5-1.2m1.8 3.6c0 .8.2 1.5.4 1.5s.6-.7 1-1.5c.3-.8.1-1.5-.4-1.5-.6 0-1 .7-1 1.5m-45.2 16.2c.6.2 1.8.2 2.5 0 .6-.3.1-.5-1.3-.5s-1.9.2-1.2.5m74 2c.7.3 1.6.2 1.9-.1.4-.3-.2-.6-1.3-.5-1.1 0-1.4.3-.6.6m-200.5 1c1.5.2 3.7.2 5 0 1.2-.2 0-.4-2.8-.4-2.7 0-3.8.2-2.2.4m103.7.3c0 .5.9 1 2 1s2-.5 2-1c0-.6-.9-1-2-1s-2 .4-2 1m-153.2 11.7c.7.3 1.6.2 1.9-.1.4-.3-.2-.6-1.3-.5-1.1 0-1.4.3-.6.6M272 871c0 .5.7 1 1.5 1s1.5-.5 1.5-1c0-.6-.7-1-1.5-1s-1.5.4-1.5 1m212.5 27c.3.5 1.6 1 2.8.9 2.1 0 2.1-.1.2-.9-2.8-1.2-3.7-1.2-3 0m27 0c-.4.6.7 1 2.7.9 2.7 0 3-.2 1.3-.9-2.7-1.2-3.3-1.2-4 0m-16.5 7c.8.5 2 1 2.5 1 .6 0 .3-.5-.5-1s-1.9-1-2.5-1c-.5 0-.3.5.5 1m-81.2 11.7c.7.3 1.6.2 1.9-.1.4-.3-.2-.6-1.3-.5-1.1 0-1.4.3-.6.6m-80 1c.7.3 1.6.2 1.9-.1.4-.3-.2-.6-1.3-.5-1.1 0-1.4.3-.6.6m-257 6c.7.3 1.6.2 1.9-.1.4-.3-.2-.6-1.3-.5-1.1 0-1.4.3-.6.6m-23 1c.7.3 1.6.2 1.9-.1.4-.3-.2-.6-1.3-.5-1.1 0-1.4.3-.6.6m-25 1c.7.3 1.6.2 1.9-.1.4-.3-.2-.6-1.3-.5-1.1 0-1.4.3-.6.6m-15 1c.7.3 1.6.2 1.9-.1.4-.3-.2-.6-1.3-.5-1.1 0-1.4.3-.6.6m453 0c.7.3 1.6.2 1.9-.1.4-.3-.2-.6-1.3-.5-1.1 0-1.4.3-.6.6m-432.7 2.7c1.2 1 7.9 1.6 7.9.6 0-.5-1.9-1-4.2-1s-3.9.2-3.7.4m-23.3 5.3c1.2.2 3 .2 4 0 .9-.3-.1-.5-2.3-.4-2.2 0-3 .2-1.7.4M0 937.4c0 1.3 1.1 1.6 5 1.6 2.8 0 5-.5 5-1 0-.6-.8-1-1.9-1-1 0-3.3-.3-5-.6-2.4-.5-3.1-.3-3.1 1m45.8 3.3c.7.3 1.6.2 1.9-.1.4-.3-.2-.6-1.3-.5-1.1 0-1.4.3-.6.6m318.5 0c1.5.2 3.7.2 5 0 1.2-.2 0-.4-2.8-.4-2.7 0-3.8.2-2.2.4m-330 1c1.5.2 3.9.2 5.5 0 1.5-.2.2-.4-2.8-.4s-4.3.2-2.7.4m55.5 0c.7.3 1.6.2 1.9-.1.4-.3-.2-.6-1.3-.5-1.1 0-1.4.3-.6.6m-36 1c1.2.2 3.2.2 4.5 0 1.2-.2.2-.4-2.3-.4s-3.5.2-2.2.4m18.7 1.4c2.2.4 4.9.8 6 .7 1.6 0 1.5-.2-.5-.8-1.4-.4-4.1-.8-6-.8h-3.5zm-62.2 3c5.9.4 13.8.4 17.5-.1 5.2-.6 2.7-.7-10.8-.7-16.9 0-17.1 0-6.7.8m362-.4c.9.2 2.5.2 3.5 0 .9-.3.1-.5-1.8-.5s-2.7.2-1.7.5m23 1c.9.2 2.5.2 3.5 0 .9-.3.1-.5-1.8-.5s-2.7.2-1.7.5m-359 1c.9.2 2.3.2 3 0 .6-.3-.1-.5-1.8-.5-1.6 0-2.2.2-1.2.5m351.5 0c.6.2 1.8.2 2.5 0 .6-.3.1-.5-1.3-.5s-1.9.2-1.2.5m-385.1 1c1.8.2 4.8.2 6.6 0 1.7-.2.3-.4-3.3-.4s-5 .2-3.3.4m44.1 0c2.3.2 5.9.2 8 0 2-.2.1-.4-4.3-.4s-6.1.2-3.7.4m331 0c.7.3 1.6.2 1.9-.1.4-.3-.2-.6-1.3-.5-1.1 0-1.4.3-.6.6M76 951.5c6.6 1.7 8.8 1.9 7.4.5-.5-.5-3.6-1.2-6.9-1.5l-6-.5zm-21.2 2.2c1.2.2 3 .2 4 0 .9-.3-.1-.5-2.3-.4-2.2 0-3 .2-1.7.4m-18 1c2.8.2 7.6.2 10.5 0 2.8-.2.5-.3-5.3-.3s-8.1.1-5.2.3m25 1c.6.2 1.8.2 2.5 0 .6-.3.1-.5-1.3-.5s-1.9.2-1.2.5m-16 1c1.2.2 3.2.2 4.5 0 1.2-.2.2-.4-2.3-.4s-3.5.2-2.2.4m13 1c1.2.2 3.2.2 4.5 0 1.2-.2.2-.4-2.3-.4s-3.5.2-2.2.4m17.5 1c.9.2 2.3.2 3 0 .6-.3-.1-.5-1.8-.5-1.6 0-2.2.2-1.2.5m-16.5 1c.7.3 1.6.2 1.9-.1.4-.3-.2-.6-1.3-.5-1.1 0-1.4.3-.6.6m-10 3c1.2.2 3.2.2 4.5 0 1.2-.2.2-.4-2.3-.4s-3.5.2-2.2.4m335 0c.7.3 1.6.2 1.9-.1.4-.3-.2-.6-1.3-.5-1.1 0-1.4.3-.6.6m-319.5 1c.9.2 2.5.2 3.5 0 .9-.3.1-.5-1.8-.5s-2.7.2-1.7.5m-12 1c1.5.2 3.7.2 5 0 1.2-.2 0-.4-2.8-.4-2.7 0-3.8.2-2.2.4m37 1c.9.2 2.5.2 3.5 0 .9-.3.1-.5-1.8-.5s-2.7.2-1.7.5m-15 1c.9.2 2.5.2 3.5 0 .9-.3.1-.5-1.8-.5s-2.7.2-1.7.5m244.5 0c.6.2 1.8.2 2.5 0 .6-.3.1-.5-1.3-.5s-1.9.2-1.2.5m-286.5 1c.9.2 2.5.2 3.5 0 .9-.3.1-.5-1.8-.5s-2.7.2-1.7.5m34.5 1c1.8.2 4.5.2 6 0s0-.4-3.3-.4-4.5.2-2.7.4m62 0c1.2.2 3.2.2 4.5 0 1.2-.2.2-.4-2.3-.4s-3.5.2-2.2.4m143 0c.6.2 1.8.2 2.5 0 .6-.3.1-.5-1.3-.5s-1.9.2-1.2.5M89.5 970c-1.2.5.1.6 3.5.3 3-.3 5.7-.7 5.9-.9.9-.8-7.5-.2-9.4.6m156 0c-2.7.7-2.8.8-.5.8 1.4 0 3.4-.3 4.5-.8 2.5-1.1.2-1.1-4 0m-7.7.7c.7.3 1.6.2 1.9-.1.4-.3-.2-.6-1.3-.5-1.1 0-1.4.3-.6.6m-131.5 1c.9.2 2.3.2 3 0 .6-.3-.1-.5-1.8-.5-1.6 0-2.2.2-1.2.5m126.5 0c.6.2 1.8.2 2.5 0 .6-.3.1-.5-1.3-.5s-1.9.2-1.2.5m-167.5 1c.9.2 2.5.2 3.5 0 .9-.3.1-.5-1.8-.5s-2.7.2-1.7.5m18.2.3c-.4.6.6 1 2.4 1 1.6 0 3.3-.5 3.6-1 .4-.6-.6-1-2.4-1-1.6 0-3.3.4-3.6 1m38.3-.3c1.2.2 3.2.2 4.5 0 1.2-.2.2-.4-2.3-.4s-3.5.2-2.2.4m146 0c.6.2 1.8.2 2.5 0 .6-.3.1-.5-1.3-.5s-1.9.2-1.2.5m-44.5 1c3.2.2 8.1.2 11 0s.3-.3-5.8-.3c-6 0-8.4.1-5.2.3m-124.5 1c.7.3 1.6.2 1.9-.1.4-.3-.2-.6-1.3-.5-1.1 0-1.4.3-.6.6m159.5 0c.9.2 2.3.2 3 0 .6-.3-.1-.5-1.8-.5-1.6 0-2.2.2-1.2.5m-219.5 1c3.4.2 8.8.2 12 0 3.1-.2.3-.3-6.3-.3s-9.2.1-5.7.3m65 0c1.2.2 3.2.2 4.5 0 1.2-.2.2-.4-2.3-.4s-3.5.2-2.2.4m198 0c1.2.2 3.2.2 4.5 0 1.2-.2.2-.4-2.3-.4s-3.5.2-2.2.4m-220 1c1.2.2 3.2.2 4.5 0 1.2-.2.2-.4-2.3-.4s-3.5.2-2.2.4m168 0c.7.3 1.6.2 1.9-.1.4-.3-.2-.6-1.3-.5-1.1 0-1.4.3-.6.6M116 978c3.4.7 3.4.7.6.9-1.6 0-2.7.4-2.3.7.3.3 5 .2 10.4-.2l9.8-.8-6-.7c-3.3-.4-8.2-.7-11-.7-4.7.1-4.8.1-1.5.8m85.3-.3c1.5.2 3.7.2 5 0 1.2-.2 0-.4-2.8-.4-2.7 0-3.8.2-2.2.4m10.5 1c.6.2 1.8.2 2.5 0 .6-.3.1-.5-1.3-.5s-1.9.2-1.2.5m7.5 1c.9.2 2.5.2 3.5 0 .9-.3.1-.5-1.8-.5s-2.7.2-1.7.5m-76.5 1c1.2.2 3 .2 4 0 .9-.3-.1-.5-2.3-.4-2.2 0-3 .2-1.7.4m51.9 0c1.8.2 5 .2 7 0 2.1-.2.7-.4-3.2-.4-3.8 0-5.5.2-3.8.4m-75.9 1c.7.3 1.6.2 1.9-.1.4-.3-.2-.6-1.3-.5-1.1 0-1.4.3-.6.6m99 0c1.2.2 3.2.2 4.5 0 1.2-.2.2-.4-2.3-.4s-3.5.2-2.2.4m19 1c1.2.2 3.2.2 4.5 0 1.2-.2.2-.4-2.3-.4s-3.5.2-2.2.4m12.5 1c.9.2 2.3.2 3 0 .6-.3-.1-.5-1.8-.5-1.6 0-2.2.2-1.2.5m-194.7 1.2c-1.8.7-1.8.8-.2 1.4 1 .4 2.5.7 3.4.6 1.1 0 1.2-.2.4-.6-.6-.2-1-.9-.6-1.4.6-1.1-.3-1.1-3 0m227.2.8c.7.3 1.6.2 1.9-.1.4-.3-.2-.6-1.3-.5-1.1 0-1.4.3-.6.6m17 1c.7.3 1.6.2 1.9-.1.4-.3-.2-.6-1.3-.5-1.1 0-1.4.3-.6.6m-238 1c.6.2 1.8.2 2.5 0 .6-.3.1-.5-1.3-.5s-1.9.2-1.2.5m28 1c.6.2 1.8.2 2.5 0 .6-.3.1-.5-1.3-.5s-1.9.2-1.2.5m133 0c.7.3 1.6.2 1.9-.1.4-.3-.2-.6-1.3-.5-1.1 0-1.4.3-.6.6m-98.3 1.4c1.8.5 4.3.5 6 0 2.5-.8 2-.9-3-.9-5.1 0-5.5.1-3 .9m14.8-.4c.9.2 2.3.2 3 0 .6-.3-.1-.5-1.8-.5-1.6 0-2.2.2-1.2.5m54.5 0c.6.2 1.8.2 2.5 0 .6-.3.1-.5-1.3-.5s-1.9.2-1.2.5m21 1c.7.3 1.6.2 1.9-.1.4-.3-.2-.6-1.3-.5-1.1 0-1.4.3-.6.6m-133 1c.6.2 1.8.2 2.5 0 .6-.3.1-.5-1.3-.5s-1.9.2-1.2.5m172 0c.6.2 1.8.2 2.5 0 .6-.3.1-.5-1.3-.5s-1.9.2-1.2.5m-195.5 1c.9.2 2.3.2 3 0 .6-.3-.1-.5-1.8-.5-1.6 0-2.2.2-1.2.5m34.5 0c.6.2 1.8.2 2.5 0 .6-.3.1-.5-1.3-.5s-1.9.2-1.2.5m35 0c.6.2 1.8.2 2.5 0 .6-.3.1-.5-1.3-.5s-1.9.2-1.2.5m66 0c.6.2 1.8.2 2.5 0 .6-.3.1-.5-1.3-.5s-1.9.2-1.2.5m-79 1c.6.2 1.8.2 2.5 0 .6-.3.1-.5-1.3-.5s-1.9.2-1.2.5m99 0c.7.3 1.6.2 1.9-.1.4-.3-.2-.6-1.3-.5-1.1 0-1.4.3-.6.6m-140 2c.6.2 1.8.2 2.5 0 .6-.3.1-.5-1.3-.5s-1.9.2-1.2.5m-23 1c1.2.2 3.2.2 4.5 0 1.2-.2.2-.4-2.3-.4s-3.5.2-2.2.4m224 0c.7.3 1.6.2 1.9-.1.4-.3-.2-.6-1.3-.5-1.1 0-1.4.3-.6.6m-233 1c.6.2 1.8.2 2.5 0 .6-.3.1-.5-1.3-.5s-1.9.2-1.2.5m238.5 0c.9.2 2.5.2 3.5 0 .9-.3.1-.5-1.8-.5s-2.7.2-1.7.5m-189.5 1c1.2.2 3.2.2 4.5 0 1.2-.2.2-.4-2.3-.4s-3.5.2-2.2.4m105 0c2.8.2 7.6.2 10.5 0 2.8-.2.5-.3-5.3-.3s-8.1.1-5.2.3m17.5 0c.9.2 2.3.2 3 0 .6-.3-.1-.5-1.8-.5-1.6 0-2.2.2-1.2.5m10.5 0c1.2.2 3 .2 4 0 .9-.3-.1-.5-2.3-.4-2.2 0-3 .2-1.7.4m-93 3c5.6.2 14.8.2 20.5 0 5.6-.1 1-.3-10.3-.3s-15.9.2-10.2.3"/></g><path fill="#d4d4d4" d="M486.9 54.7c-1.3 1.6-1.2 1.7.4.4s2.1-2.1 1.3-2.1c-.2 0-1 .8-1.7 1.7M466 74.4c0 .2.8 1 1.8 1.7 1.5 1.3 1.6 1.2.3-.4s-2.1-2.1-2.1-1.3m14 1c0 .2.8 1 1.8 1.7 1.5 1.3 1.6 1.2.3-.4s-2.1-2.1-2.1-1.3m96.4 2.8c-.4.7-.3 1 .1.5.5-.4 1.8.1 2.9 1 2.1 1.8 2.1 1.8.2-.5-2.2-2.6-2.3-2.6-3.2-1m7.6.2c0 .2.8 1 1.8 1.7 1.5 1.3 1.6 1.2.3-.4s-2.1-2.1-2.1-1.3m-87.2 8.3c.7.3 1.6.2 1.9-.1.4-.3-.2-.6-1.3-.5-1.1 0-1.4.3-.6.6m57.2 2.1c0 .4 1 1.3 2.3 2.1 2.2 1.4 2.2 1.4.3-.8-2-2.2-2.6-2.5-2.6-1.3m31.7 6.1c-.4 1.7-.3 2.1.5 1.3.5-.5.8-1.6.6-2.3-.3-.8-.7-.3-1.1 1m20.3 20c0 .6.4 1.3 1 1.6s.7-.1.4-.9c-.7-1.8-1.4-2.1-1.4-.7m-4.1 17.8c-1.3 1.6-1.2 1.7.4.4.9-.7 1.7-1.5 1.7-1.7 0-.8-.8-.3-2.1 1.3m-156.8 61.9c0 1.1.3 1.4.6.6.3-.7.2-1.6-.1-1.9-.3-.4-.6.2-.5 1.3m21.9 15.7c0 .2 1.5 1.6 3.3 3.3l3.2 2.9-2.9-3.3c-2.8-3-3.6-3.7-3.6-2.9m-11.1 47.4c-1.3 1.6-1.2 1.7.4.4.9-.7 1.7-1.5 1.7-1.7 0-.8-.8-.3-2.1 1.3M610 271.9c0 .6.4 1.3 1 1.6s.7-.1.4-.9c-.7-1.8-1.4-2.1-1.4-.7m-192.1 33.8c-1.3 1.6-1.2 1.7.4.4s2.1-2.1 1.3-2.1c-.2 0-1 .8-1.7 1.7M643.3 332c0 2.5.2 3.5.4 2.2.2-1.2.2-3.2 0-4.5-.2-1.2-.4-.2-.4 2.3m-249.9 3.2-1.9 2.3 2.3-1.9c2.1-1.8 2.7-2.6 1.9-2.6-.2 0-1.2 1-2.3 2.2m-6.9 7-4 4.3 4.3-4c2.3-2.1 4.2-4 4.2-4.2 0-.8-.9 0-4.5 3.9m-13.3 26.3c0 1.6.2 2.2.5 1.2.2-.9.2-2.3 0-3-.3-.6-.5.1-.5 1.8M682 401.4c0 .2.8 1 1.8 1.7 1.5 1.3 1.6 1.2.3-.4s-2.1-2.1-2.1-1.3m-265 14.1c-.7.9-.8 1.5-.2 1.5.5 0 1.2-.7 1.6-1.5.3-.8.4-1.5.2-1.5s-.9.7-1.6 1.5m10.1 2.1c0 1.1.3 1.4.6.6.3-.7.2-1.6-.1-1.9-.3-.4-.6.2-.5 1.3m189.8.7c.6.8.7 1.8.3 2.2-.4.5-.1.5.6.1 1-.6 1-1.1.1-2.2-.6-.8-1.4-1.4-1.6-1.4-.3 0 0 .6.6 1.3m2.2 5.3c0 1.1.3 1.4.6.6.3-.7.2-1.6-.1-1.9-.3-.4-.6.2-.5 1.3M603 431c.6 1.1 1.3 2 1.6 2 .2 0 0-.9-.6-2s-1.3-2-1.6-2c-.2 0 0 .9.6 2m-193.6 11.2-1.9 2.3 2.3-1.9c2.1-1.8 2.7-2.6 1.9-2.6-.2 0-1.2 1-2.3 2.2m249 1-1.9 2.3 2.3-1.9c2.1-1.8 2.7-2.6 1.9-2.6-.2 0-1.2 1-2.3 2.2m29 0-1.9 2.3 2.3-1.9c2.1-1.8 2.7-2.6 1.9-2.6-.2 0-1.2 1-2.3 2.2M414.2 522c0 1.4.2 1.9.5 1.2.2-.6.2-1.8 0-2.5-.3-.6-.5-.1-.5 1.3m192.7 2.7-3.4 3.8 3.8-3.4c3.4-3.3 4.2-4.1 3.4-4.1-.2 0-1.9 1.7-3.8 3.7m-209.7-.7c0 1.4.2 1.9.5 1.2.2-.6.2-1.8 0-2.5-.3-.6-.5-.1-.5 1.3m196.9 49.6c0 1.1.3 1.4.6.6.3-.7.2-1.6-.1-1.9-.3-.4-.6.2-.5 1.3m11.1 48.9c0 1.6.2 2.2.5 1.2.2-.9.2-2.3 0-3-.3-.6-.5.1-.5 1.8M397 663.4c0 .2.8 1 1.8 1.7 1.5 1.3 1.6 1.2.3-.4s-2.1-2.1-2.1-1.3M362.3 693c0 3 .2 4.3.4 2.7.2-1.5.2-3.9 0-5.5-.2-1.5-.4-.2-.4 2.8m121.9 39c0 1.4.2 1.9.5 1.2.2-.6.2-1.8 0-2.5-.3-.6-.5-.1-.5 1.3m-.1 33.6c0 1.1.3 1.4.6.6.3-.7.2-1.6-.1-1.9-.3-.4-.6.2-.5 1.3m-82 14.5c0 2.4.5 5.3 1 6.4.6 1.3.7 0 .3-4-.8-7.3-1.4-8.5-1.3-2.4m.6 16.4c-.4 4.4-.9 10.1-1.2 12.7-.2 2.9 0 5 .7 5.4.8.5.9.1.5-1-.4-1-.2-2.6.3-3.7.6-1 .9-6.3.8-11.7l-.3-9.7zM374 819.4c0 .2.8 1 1.8 1.7 1.5 1.3 1.6 1.2.3-.4s-2.1-2.1-2.1-1.3M546.2 846c0 1.4.2 1.9.5 1.2.2-.6.2-1.8 0-2.5-.3-.6-.5-.1-.5 1.3m-94.9 8.7c.9.2 2.5.2 3.5 0 .9-.3.1-.5-1.8-.5s-2.7.2-1.7.5m74.2.3c-2.5.6-2.1.8 2.5.9 3.9 0 5.1-.2 4-.9-1.7-1.1-2.2-1.1-6.5 0m-87 1c-1.4.6.4.9 5.5.9s6.9-.3 5.5-.9c-1.1-.5-3.6-.9-5.5-.9s-4.4.4-5.5.9m98.8-.3c.9.2 2.3.2 3 0 .6-.3-.1-.5-1.8-.5-1.6 0-2.2.2-1.2.5m7.5 1c.6.2 1.8.2 2.5 0 .6-.3.1-.5-1.3-.5s-1.9.2-1.2.5m-190 1c.6.2 1.8.2 2.5 0 .6-.3.1-.5-1.3-.5s-1.9.2-1.2.5m72 0c1.2.2 3 .2 4 0 .9-.3-.1-.5-2.3-.4-2.2 0-3 .2-1.7.4m110 0c.6.2 1.8.2 2.5 0 .6-.3.1-.5-1.3-.5s-1.9.2-1.2.5m-102 1c.6.2 1.8.2 2.5 0 .6-.3.1-.5-1.3-.5s-1.9.2-1.2.5M385 860c-.9.6-1 1-.3 1 .6 0 1.5-.5 1.8-1 .8-1.2.4-1.2-1.5 0m57 3c0 .5.5 1 1.1 1 .5 0 .7-.5.4-1-.3-.6-.8-1-1.1-1-.2 0-.4.4-.4 1m-74.5 7c1 1.1 2 2 2.3 2s-.3-.9-1.3-2-2-2-2.3-2 .3.9 1.3 2m-84.7-.3c.6.2 1.8.2 2.5 0 .6-.3.1-.5-1.3-.5s-1.9.2-1.2.5m-24.3 1.3c2.8 1.2 7.8 1.2 7 0-.3-.6-2.5-1-4.8-.9-3.3 0-3.8.2-2.2.9m127.3 14.7c.6.2 1.8.2 2.5 0 .6-.3.1-.5-1.3-.5s-1.9.2-1.2.5m-20.5 1c.9.2 2.3.2 3 0 .6-.3-.1-.5-1.8-.5-1.6 0-2.2.2-1.2.5m-168.5 11c.6.2 1.8.2 2.5 0 .6-.3.1-.5-1.3-.5s-1.9.2-1.2.5m294.8 2.7c.3.8-.5 2.1-1.8 3-2.7 1.9-2.7 1.9 4.2.1 6.1-1.6 20.5-2 16-.4-2.1.7-2 .8.9.4 1.8-.3 4.8-.5 6.5-.6 5.2-.1-7.9-2.5-17.6-3.3-7.3-.5-8.6-.4-8.2.8m21.2-.7c.6.2 1.8.2 2.5 0 .6-.3.1-.5-1.3-.5s-1.9.2-1.2.5m-30.3 5.8-3 1.4 3.6.1c2.5 0 3.6-.4 3.6-1.5 0-1.8-.3-1.8-4.2 0m32.3-.8c.7.3 1.6.2 1.9-.1.4-.3-.2-.6-1.3-.5-1.1 0-1.4.3-.6.6m-348 3c.7.3 1.6.2 1.9-.1.4-.3-.2-.6-1.3-.5-1.1 0-1.4.3-.6.6m256 0c.7.3 1.6.2 1.9-.1.4-.3-.2-.6-1.3-.5-1.1 0-1.4.3-.6.6m-73 10c3.4.2 9 .2 12.5 0 3.4-.2.6-.3-6.3-.3s-9.7.1-6.2.3m-238 4c.7.3 1.6.2 1.9-.1.4-.3-.2-.6-1.3-.5-1.1 0-1.4.3-.6.6m-19 1c.7.3 1.6.2 1.9-.1.4-.3-.2-.6-1.3-.5-1.1 0-1.4.3-.6.6m257 1c.7.3 1.6.2 1.9-.1.4-.3-.2-.6-1.3-.5-1.1 0-1.4.3-.6.6m-301 1c.7.3 1.6.2 1.9-.1.4-.3-.2-.6-1.3-.5-1.1 0-1.4.3-.6.6m500 0c.6.2 1.8.2 2.5 0 .6-.3.1-.5-1.3-.5s-1.9.2-1.2.5m-526 1c.7.3 1.6.2 1.9-.1.4-.3-.2-.6-1.3-.5-1.1 0-1.4.3-.6.6m519 0c.7.3 1.6.2 1.9-.1.4-.3-.2-.6-1.3-.5-1.1 0-1.4.3-.6.6m-536 1c.6.2 1.8.2 2.5 0 .6-.3.1-.5-1.3-.5s-1.9.2-1.2.5m467.5 0c.9.2 2.5.2 3.5 0 .9-.3.1-.5-1.8-.5s-2.7.2-1.7.5M567 928c-1.1.7-.1 1 3.5.9 3.7 0 4.5-.3 3-.9-2.7-1.2-4.7-1.2-6.5 0m-554.5 2c7.2.4 14.8 1 17 1.3l4 .7-3.5-1.2c-1.9-.6-9.6-1.2-17-1.3l-13.5-.2zm518.3-.3c.7.3 1.6.2 1.9-.1.4-.3-.2-.6-1.3-.5-1.1 0-1.4.3-.6.6m-25.8 2.7c1.6 1.6 1.2 3.9-.5 3.2-.8-.3-1.5-.1-1.5.5 0 1.1 25.4.6 32.4-.6 5-1 2.6-2.7-2.6-1.8-2.4.3-4.4.1-5.3-.7-1.9-1.5-24.1-2.2-22.5-.6M.7 934.7c.7.2 1.9.2 2.6 0 .6-.3.1-.5-1.3-.5s-1.9.2-1.3.5m21.1 1c.6.2 1.8.2 2.5 0 .6-.3.1-.5-1.3-.5s-1.9.2-1.2.5m-1.5 4c.9.2 2.3.2 3 0 .6-.3-.1-.5-1.8-.5-1.6 0-2.2.2-1.2.5m17 1c.9.2 2.3.2 3 0 .6-.3-.1-.5-1.8-.5-1.6 0-2.2.2-1.2.5m339.5 0c.6.2 1.8.2 2.5 0 .6-.3.1-.5-1.3-.5s-1.9.2-1.2.5m-376 1c.7.3 1.6.2 1.9-.1.4-.3-.2-.6-1.3-.5-1.1 0-1.4.3-.6.6m44.7.3-2 .9 2-.1c1.1 0 3.1-.4 4.5-.8l2.5-.8H50c-1.4 0-3.4.3-4.5.8m26.8-.3c1.5.2 3.9.2 5.5 0 1.5-.2.2-.4-2.8-.4s-4.3.2-2.7.4M59 944c-1.3.9-1.3 1 0 .9.8 0 2.4-.4 3.5-.9l2-.9h-2c-1.1 0-2.7.4-3.5.9m-16.5 1c5 .4 9.7.3 10.5-.1.8-.5-3.2-.8-9-.7l-10.5.1zm23.8-.3c.9.2 2.5.2 3.5 0 .9-.3.1-.5-1.8-.5s-2.7.2-1.7.5m271.5 1c.7.3 1.6.2 1.9-.1.4-.3-.2-.6-1.3-.5-1.1 0-1.4.3-.6.6m48.5 1c1.5.2 3.9.2 5.5 0 1.5-.2.2-.4-2.8-.4s-4.3.2-2.7.4m-375.5 1c.7.3 1.6.2 1.9-.1.4-.3-.2-.6-1.3-.5-1.1 0-1.4.3-.6.6m399 0c1.2.2 3.2.2 4.5 0 1.2-.2.2-.4-2.3-.4s-3.5.2-2.2.4m-384.5 1c.9.2 2.5.2 3.5 0 .9-.3.1-.5-1.8-.5s-2.7.2-1.7.5m369.7-.1c-.8.3-6.4.8-12.5 1.3l-11 .9 11.5-.3c11.2-.4 25.3-2.2 17-2.3-1.9 0-4.2.2-5 .4m-344.7 2.1c1.5.2 3.7.2 5 0 1.2-.2 0-.4-2.8-.4-2.7 0-3.8.2-2.2.4m309.7.1c0 .4 1.7.6 3.8.4 6.4-.6 6.9-1 1.5-1.1-2.9 0-5.3.3-5.3.7M65 952c-1.1.7-.1 1 3.5 1s4.6-.3 3.5-1c-.8-.5-2.4-1-3.5-1s-2.7.5-3.5 1m-27.2 1.7c1.8.2 4.5.2 6 0s0-.4-3.3-.4-4.5.2-2.7.4m-20 1c1.2.2 3.2.2 4.5 0 1.2-.2.2-.4-2.3-.4s-3.5.2-2.2.4m30.5 1c1.5.2 3.9.2 5.5 0 1.5-.2.2-.4-2.8-.4s-4.3.2-2.7.4m-15.5 1c.6.2 1.8.2 2.5 0 .6-.3.1-.5-1.3-.5s-1.9.2-1.2.5m12.5 1c.9.2 2.3.2 3 0 .6-.3-.1-.5-1.8-.5-1.6 0-2.2.2-1.2.5m14.5 1c1.2.2 3 .2 4 0 .9-.3-.1-.5-2.3-.4-2.2 0-3 .2-1.7.4m-9 1c1.2.2 3 .2 4 0 .9-.3-.1-.5-2.3-.4-2.2 0-3 .2-1.7.4m-34 2c.7.3 1.6.2 1.9-.1.4-.3-.2-.6-1.3-.5-1.1 0-1.4.3-.6.6m383 0c.6.2 1.8.2 2.5 0 .6-.3.1-.5-1.3-.5s-1.9.2-1.2.5m-363 1c1.2.2 3 .2 4 0 .9-.3-.1-.5-2.3-.4-2.2 0-3 .2-1.7.4m356.5 0c.9.2 2.3.2 3 0 .6-.3-.1-.5-1.8-.5-1.6 0-2.2.2-1.2.5m-339 1c.9.2 2.3.2 3 0 .6-.3-.1-.5-1.8-.5-1.6 0-2.2.2-1.2.5m326.3.2c-.3.5 2.7.9 6.7.9 6.3 0 6.7-.1 3.2-.8-5.3-1.2-9.3-1.2-9.9-.1m-352.8.8c.7.3 1.6.2 1.9-.1.4-.3-.2-.6-1.3-.5-1.1 0-1.4.3-.6.6m5 0c.6.2 1.8.2 2.5 0 .6-.3.1-.5-1.3-.5s-1.9.2-1.2.5m26.7 1.4c-1.8.5.1.6 5 .2 4.4-.3 8.2-.7 8.4-.9.8-.7-10.4-.2-13.4.7m296.8-.4c.9.2 2.3.2 3 0 .6-.3-.1-.5-1.8-.5-1.6 0-2.2.2-1.2.5M19.5 967c1.1.5 3.4.9 5 .9 2.6 0 2.7-.2 1-.9-1.1-.5-3.3-.9-5-.9-2.6 0-2.7.2-1 .9m310.3-.3c1.2.2 3.2.2 4.5 0 1.2-.2.2-.4-2.3-.4s-3.5.2-2.2.4m-28 1c.7.3 1.6.2 1.9-.1.4-.3-.2-.6-1.3-.5-1.1 0-1.4.3-.6.6m-252 1c1.2.2 3.2.2 4.5 0 1.2-.2.2-.4-2.3-.4s-3.5.2-2.2.4m37 0c1.2.2 3.2.2 4.5 0 1.2-.2.2-.4-2.3-.4s-3.5.2-2.2.4m9.5 0c1.5.2 3.9.2 5.5 0 1.5-.2.2-.4-2.8-.4s-4.3.2-2.7.4m12 0c2 .2 5.4.2 7.5 0 2-.2.3-.4-3.8-.4s-5.8.2-3.7.4m171.5 0c.6.2 1.8.2 2.5 0 .6-.3.1-.5-1.3-.5s-1.9.2-1.2.5M81.5 970c1.1.5 2.7.9 3.5.9 1.3.1 1.3 0 0-.9-.8-.5-2.4-.9-3.5-.9h-2zm173-.1c-.3.5-.1 1.2.5 1.6.5.3 1 .2 1-.4 0-.5 1-1.2 2.3-1.4 1.9-.4 1.9-.4-.5-.6-1.5 0-2.9.3-3.3.8m20.3-.2c.6.2 1.8.2 2.5 0 .6-.3.1-.5-1.3-.5s-1.9.2-1.2.5m-186 2c.7.3 1.6.2 1.9-.1.4-.3-.2-.6-1.3-.5-1.1 0-1.4.3-.6.6m171.5 0c1.5.2 3.7.2 5 0 1.2-.2 0-.4-2.8-.4-2.7 0-3.8.2-2.2.4m-209 1c.9.2 2.5.2 3.5 0 .9-.3.1-.5-1.8-.5s-2.7.2-1.7.5m51.5 0c.6.2 1.8.2 2.5 0 .6-.3.1-.5-1.3-.5s-1.9.2-1.2.5m173 0c.7.3 1.6.2 1.9-.1.4-.3-.2-.6-1.3-.5-1.1 0-1.4.3-.6.6m-203.3 1.4c3.9.8 19.2 1.3 18.4.5-.2-.2-5.3-.6-11.4-.8-7-.4-9.6-.3-7 .3m181.3-.4c1.8.2 4.5.2 6 0s0-.4-3.3-.4-4.5.2-2.7.4m13.5 1c.9.2 2.5.2 3.5 0 .9-.3.1-.5-1.8-.5s-2.7.2-1.7.5m-259.6 1c2.4.2 6.2.2 8.5 0 2.4-.2.5-.4-4.2-.4s-6.6.2-4.3.4m307.6 0c1.5.2 3.9.2 5.5 0 1.5-.2.2-.4-2.8-.4s-4.3.2-2.7.4m-262.5 1c1.8.2 4.5.2 6 0s0-.4-3.3-.4-4.5.2-2.7.4m214.4 0c3.7.2 10 .2 14 0 4-.1 1-.3-6.7-.3s-11 .1-7.3.3m-171.8 1c2.2.4 2.6.7 1.5 1.4-1.7 1.1 3.2 1.2 7 .2 2.3-.6 2.3-.7.5-1.4-1-.4-4.1-.7-6.9-.7-3.1.1-3.9.3-2.1.5m129.1.3c-2.9.7-2.9.8 1 1l4 .3-3.5.7c-3 .6-2.6.8 2.8.9 4.8.1 6.2-.2 6.2-1.3 0-.8 1-1.7 2.3-1.9 1.2-.2-.5-.4-3.8-.4-3.3-.1-7.3.3-9 .7m-104.2 2.7c1.5.2 3.9.2 5.5 0 1.5-.2.2-.4-2.8-.4s-4.3.2-2.7.4m-15.5 1c1.2.2 3 .2 4 0 .9-.3-.1-.5-2.3-.4-2.2 0-3 .2-1.7.4m146 0c1.2.2 3 .2 4 0 .9-.3-.1-.5-2.3-.4-2.2 0-3 .2-1.7.4m15.5 1c3.2.2 8.1.2 11 0s.3-.3-5.8-.3c-6 0-8.4.1-5.2.3m-10 1c.9.2 2.3.2 3 0 .6-.3-.1-.5-1.8-.5-1.6 0-2.2.2-1.2.5m-211.5 1c.6.2 1.8.2 2.5 0 .6-.3.1-.5-1.3-.5s-1.9.2-1.2.5m228 0c.7.3 1.6.2 1.9-.1.4-.3-.2-.6-1.3-.5-1.1 0-1.4.3-.6.6M28 986.1l-4.5.6 5 .1c2.8 0 6.8-.3 9-.8l4-.8-4.5.1c-2.5.1-6.5.4-9 .8m260.3-.4c.9.2 2.5.2 3.5 0 .9-.3.1-.5-1.8-.5s-2.7.2-1.7.5m18 1c.9.2 2.5.2 3.5 0 .9-.3.1-.5-1.8-.5s-2.7.2-1.7.5m-264.5 1c1.2.2 3.2.2 4.5 0 1.2-.2.2-.4-2.3-.4s-3.5.2-2.2.4m222.5 0c1.5.2 3.9.2 5.5 0 1.5-.2.2-.4-2.8-.4s-4.3.2-2.7.4m-189.5 1c1.2.2 3 .2 4 0 .9-.3-.1-.5-2.3-.4-2.2 0-3 .2-1.7.4m153.5 0c.9.2 2.3.2 3 0 .6-.3-.1-.5-1.8-.5-1.6 0-2.2.2-1.2.5M107 990c.8.5 3.8.9 6.5.9l5-.1-4-.9c-2.2-.4-5.1-.8-6.5-.8-2-.1-2.2.1-1 .9m93.8-.3c.7.3 1.6.2 1.9-.1.4-.3-.2-.6-1.3-.5-1.1 0-1.4.3-.6.6m21 1c.7.3 1.6.2 1.9-.1.4-.3-.2-.6-1.3-.5-1.1 0-1.4.3-.6.6m-151 1c.6.2 1.8.2 2.5 0 .6-.3.1-.5-1.3-.5s-1.9.2-1.2.5m192.5 0c.9.2 2.3.2 3 0 .6-.3-.1-.5-1.8-.5-1.6 0-2.2.2-1.2.5m-217.5 1c1.2.2 3 .2 4 0 .9-.3-.1-.5-2.3-.4-2.2 0-3 .2-1.7.4m56.7.4c1.7.4 5.9.5 9.5 0l6.5-.8-9.5-.1c-7 0-8.7.2-6.5.9m98.3-.4c.6.2 1.8.2 2.5 0 .6-.3.1-.5-1.3-.5s-1.9.2-1.2.5m9 0c.7.3 1.6.2 1.9-.1.4-.3-.2-.6-1.3-.5-1.1 0-1.4.3-.6.6m5.7.2c1.1.4 7.6.5 14.5.1l12.5-.7-14.5-.1c-8 0-13.6.3-12.5.7m28.8-.2c.9.2 2.3.2 3 0 .6-.3-.1-.5-1.8-.5-1.6 0-2.2.2-1.2.5m42 0c.9.2 2.5.2 3.5 0 .9-.3.1-.5-1.8-.5s-2.7.2-1.7.5m9 1c1.5.2 3.9.2 5.5 0 1.5-.2.2-.4-2.8-.4s-4.3.2-2.7.4m-58.5 1c.7.3 1.6.2 1.9-.1.4-.3-.2-.6-1.3-.5-1.1 0-1.4.3-.6.6m-172 1c.7.3 1.6.2 1.9-.1.4-.3-.2-.6-1.3-.5-1.1 0-1.4.3-.6.6m198 0c.6.2 1.8.2 2.5 0 .6-.3.1-.5-1.3-.5s-1.9.2-1.2.5M28 997.1c-2.8.4-1.1.5 4.5.2 5-.3 9.2-.7 9.4-.9.7-.6-9-.2-13.9.7m253.8-.4c1.2.2 3.2.2 4.5 0 1.2-.2.2-.4-2.3-.4s-3.5.2-2.2.4m13.5 1c1.5.2 3.7.2 5 0 1.2-.2 0-.4-2.8-.4-2.7 0-3.8.2-2.2.4m-227 1c1.5.2 3.7.2 5 0 1.2-.2 0-.4-2.8-.4-2.7 0-3.8.2-2.2.4m178.5 0c1.8.2 4.5.2 6 0s0-.4-3.3-.4-4.5.2-2.7.4m-152 3c2.8.2 7.6.2 10.5 0 2.8-.2.5-.3-5.3-.3s-8.1.1-5.2.3m86.9 0c1.8.2 5 .2 7 0 2.1-.2.7-.4-3.2-.4-3.8 0-5.5.2-3.8.4m-59.9 4c8.3.2 22.1.2 30.5 0 8.3-.1 1.5-.3-15.3-.3s-23.6.2-15.2.3"/><path fill="#55552a" d="M76.6 963.9c-.4.5.3.7 1.4.4 2.3-.6 2.6-1.3.6-1.3-.8 0-1.7.4-2 .9m-8.8 22.2c2.4 1.1 4.6 1.8 5 1.5 1.1-1.2-1.5-2.7-5.4-3.1l-3.9-.5zm117 6.6c.7.3 1.6.2 1.9-.1.4-.3-.2-.6-1.3-.5-1.1 0-1.4.3-.6.6m-74 6c.6.2 1.8.2 2.5 0 .6-.3.1-.5-1.3-.5s-1.9.2-1.2.5"/><path fill="#2a2a2a" d="M469.3 75.5c0 .8.4 1.2.9.9s.6-1 .3-1.5c-.9-1.3-1.2-1.1-1.2.6M604 102.1c0 1.1.4 1.8 1 1.4.5-.3.7-1.2.3-2-.7-2.1-1.3-1.9-1.3.6m-150.8 25.3c.1 1.4.5 2.3.9 2 .7-.4 0-4.4-.7-4.4-.2 0-.3 1.1-.2 2.4m139.4 50.3c-.6 1.4-.5 1.5.5.6.7-.7 1-1.5.7-1.8s-.9.2-1.2 1.2m3.6 23.3c0 1.4.2 1.9.5 1.2.2-.6.2-1.8 0-2.5-.3-.6-.5-.1-.5 1.3M465 207.4c0 .2.8 1 1.8 1.7 1.5 1.3 1.6 1.2.3-.4s-2.1-2.1-2.1-1.3m6 6c0 .2.8 1 1.8 1.7 1.5 1.3 1.6 1.2.3-.4s-2.1-2.1-2.1-1.3m14.5 14.6c3.8 3.8 7.2 7 7.4 7 .3 0-2.6-3.2-6.4-7-3.8-3.9-7.2-7-7.4-7-.3 0 2.6 3.1 6.4 7m-10.5-2c0 .5.5 1 1.1 1 .5 0 .7-.5.4-1-.3-.6-.8-1-1.1-1-.2 0-.4.4-.4 1m-2.2 24.7c.7.3 1.6.2 1.9-.1.4-.3-.2-.6-1.3-.5-1.1 0-1.4.3-.6.6m-75.7 73.9c0 1.1.3 1.4.6.6.3-.7.2-1.6-.1-1.9-.3-.4-.6.2-.5 1.3m-1.2 9.1c-1.3 1.6-1.2 1.7.4.4.9-.7 1.7-1.5 1.7-1.7 0-.8-.8-.3-2.1 1.3m-11 11c-1.3 1.6-1.2 1.7.4.4.9-.7 1.7-1.5 1.7-1.7 0-.8-.8-.3-2.1 1.3M616.5 417c1 1.1 2 2 2.3 2s-.3-.9-1.3-2-2-2-2.3-2 .3.9 1.3 2m-251.4 35.6c0 1.1.3 1.4.6.6.3-.7.2-1.6-.1-1.9-.3-.4-.6.2-.5 1.3m59 0c0 1.1.3 1.4.6.6.3-.7.2-1.6-.1-1.9-.3-.4-.6.2-.5 1.3m0 13c0 1.1.3 1.4.6.6.3-.7.2-1.6-.1-1.9-.3-.4-.6.2-.5 1.3m2.4 32.4c1 1.1 2 2 2.3 2s-.3-.9-1.3-2-2-2-2.3-2 .3.9 1.3 2m179.4 26.7-2.4 2.8 2.8-2.4c1.5-1.4 2.7-2.6 2.7-2.8 0-.8-.8-.1-3.1 2.4m-202.6 2.8c0 2.2.2 3 .4 1.7.2-1.2.2-3 0-4-.3-.9-.5.1-.4 2.3m29.9 8.5c0 1.4.2 1.9.5 1.2.2-.6.2-1.8 0-2.5-.3-.6-.5-.1-.5 1.3m168.1 123.5c0 3.8.2 5.3.4 3.2.2-2 .2-5.2 0-7-.2-1.7-.4-.1-.4 3.8M397 664.4c0 .2.8 1 1.8 1.7 1.5 1.3 1.6 1.2.3-.4s-2.1-2.1-2.1-1.3m36.1 20.2c0 1.1.3 1.4.6.6.3-.7.2-1.6-.1-1.9-.3-.4-.6.2-.5 1.3m152.3 22.6-1.9 2.3 2.3-1.9c1.2-1.1 2.2-2.1 2.2-2.3 0-.8-.8-.2-2.6 1.9m-138.3 10.4c0 1.1.3 1.4.6.6.3-.7.2-1.6-.1-1.9-.3-.4-.6.2-.5 1.3m2.2 9.4c0 3 .2 4.3.4 2.7.2-1.5.2-3.9 0-5.5-.2-1.5-.4-.2-.4 2.8m34.9 15c0 1.4.2 1.9.5 1.2.2-.6.2-1.8 0-2.5-.3-.6-.5-.1-.5 1.3m-38.9 12.7c.9.2 2.3.2 3 0 .6-.3-.1-.5-1.8-.5-1.6 0-2.2.2-1.2.5m38.8 1.9c0 1.1.3 1.4.6.6.3-.7.2-1.6-.1-1.9-.3-.4-.6.2-.5 1.3m-68 4c0 1.1.3 1.4.6.6.3-.7.2-1.6-.1-1.9-.3-.4-.6.2-.5 1.3m-14.5 7.7c.3 1 .9 1.5 1.2 1.2s0-1.1-.7-1.8c-1-.9-1.1-.8-.5.6m83.5 6.3c0 1.1.3 1.4.6.6.3-.7.2-1.6-.1-1.9-.3-.4-.6.2-.5 1.3M361.2 777c0 1.4.2 1.9.5 1.2.2-.6.2-1.8 0-2.5-.3-.6-.5-.1-.5 1.3m40.2 12c0 6.3.1 8.9.3 5.7.2-3.1.2-8.3 0-11.5-.2-3.1-.3-.5-.3 5.8m2.7 15.6c0 1.1.3 1.4.6.6.3-.7.2-1.6-.1-1.9-.3-.4-.6.2-.5 1.3m107.4 4.4c1 1.1 2 2 2.3 2s-.3-.9-1.3-2-2-2-2.3-2 .3.9 1.3 2m6.3 3.7c.6.2 1.8.2 2.5 0 .6-.3.1-.5-1.3-.5s-1.9.2-1.2.5m-117.7 2.9c0 1.1.3 1.4.6.6.3-.7.2-1.6-.1-1.9-.3-.4-.6.2-.5 1.3m-25.1 3.8c0 .2.8 1 1.8 1.7 1.5 1.3 1.6 1.2.3-.4s-2.1-2.1-2.1-1.3m88.1 16.2c0 1.1.3 1.4.6.6.3-.7.2-1.6-.1-1.9-.3-.4-.6.2-.5 1.3m15.4 18.4c.3.5 1.6 1 2.8.9 2.1 0 2.1-.1.2-.9-2.8-1.2-3.7-1.2-3 0m50.5 2.9c0 .4 1.1.6 2.5.3 1.4-.2 2.5-.6 2.5-.8s-1.1-.4-2.5-.4-2.5.4-2.5.9m-74.2 1.8c.7.3 1.6.2 1.9-.1.4-.3-.2-.6-1.3-.5-1.1 0-1.4.3-.6.6m-75 1c.7.3 1.6.2 1.9-.1.4-.3-.2-.6-1.3-.5-1.1 0-1.4.3-.6.6m66.7 3.3c.3.5.8 1 1.1 1 .2 0 .4-.5.4-1 0-.6-.5-1-1.1-1-.5 0-.7.4-.4 1m-152.7 6.7c.7.3 1.6.2 1.9-.1.4-.3-.2-.6-1.3-.5-1.1 0-1.4.3-.6.6m72.2-.3c0 .2.8 1 1.8 1.7 1.5 1.3 1.6 1.2.3-.4s-2.1-2.1-2.1-1.3m-88.5 1.6c-.8 1.3.5 1.3 2.5 0 1.3-.8 1.3-1-.2-1-.9 0-2 .4-2.3 1m99.3 15.7c.7.3 1.6.2 1.9-.1.4-.3-.2-.6-1.3-.5-1.1 0-1.4.3-.6.6m117.5 11c2.6.2 6.8.2 9.5 0 2.6-.2.4-.3-4.8-.3s-7.4.1-4.7.3m-71 19c.9.2 2.5.2 3.5 0 .9-.3.1-.5-1.8-.5s-2.7.2-1.7.5m-319.5 6c.7.3 1.6.2 1.9-.1.4-.3-.2-.6-1.3-.5-1.1 0-1.4.3-.6.6m-21 1c.7.3 1.6.2 1.9-.1.4-.3-.2-.6-1.3-.5-1.1 0-1.4.3-.6.6m442.2.4c0 .5.5.7 1 .4.6-.3 1-.8 1-1.1 0-.2-.4-.4-1-.4-.5 0-1 .5-1 1.1m-488.2 1.6c.6.2 1.8.2 2.5 0 .6-.3.1-.5-1.3-.5s-1.9.2-1.2.5m-26.3 1.2-7 .6 5.5.7c7.5 1 13 1 13-.1 0-.9-2.6-2.2-3.8-1.9-.4.1-3.8.4-7.7.7m451.3-.2c.7.3 1.6.2 1.9-.1.4-.3-.2-.6-1.3-.5-1.1 0-1.4.3-.6.6M45 929c3.6 1.1 5.2 1.1 4.5 0-.3-.6-2.1-1-3.8-.9-3.1.1-3.1.1-.7.9m6.8-.3c.6.2 1.8.2 2.5 0 .6-.3.1-.5-1.3-.5s-1.9.2-1.2.5m436.5 0c.9.2 2.5.2 3.5 0 .9-.3.1-.5-1.8-.5s-2.7.2-1.7.5m58 0c1.5.2 3.7.2 5 0 1.2-.2 0-.4-2.8-.4-2.7 0-3.8.2-2.2.4m-502.7 2.4c.5.9-.1 1-2 .5-1.4-.3-2.6-.2-2.6.3 0 1.6 1.3 1.9 4.9.9 2.6-.7 3.1-1.2 2-1.9-2-1.2-3.2-1.1-2.3.2m-8.6 2.4c.7.8 1.7 1.2 2.2.9.6-.4.5-1-.3-1.5-2.2-1.4-3.3-1-1.9.6m-19.9-.1c1 .8 8.9 1.3 8.9.5 0-.5-2.1-.9-4.7-.9-2.5 0-4.4.2-4.2.4m-3.8 3.3c1.5.2 2.5.9 2.2 1.4-.4.5 1.3.9 3.7.9 2.9 0 3.8-.3 2.9-.9-1.1-.7-.9-1 1-1.4 1.3-.2-1-.4-5.1-.4s-6.3.2-4.7.4m19.5 3c.7.3 1.6.2 1.9-.1.4-.3-.2-.6-1.3-.5-1.1 0-1.4.3-.6.6m30 1c2.8.2 7.6.2 10.5 0 2.8-.2.5-.3-5.3-.3s-8.1.1-5.2.3m11 2c2.3.2 5.9.2 8 0 2-.2.1-.4-4.3-.4s-6.1.2-3.7.4M86 944c-2 .6-2.1.8-.5.8 1.1 0 3.1-.4 4.5-.8 2-.6 2.1-.8.5-.8-1.1 0-3.1.4-4.5.8m-23.2 1.7c.6.2 1.8.2 2.5 0 .6-.3.1-.5-1.3-.5s-1.9.2-1.2.5m-18 1c.6.2 1.8.2 2.5 0 .6-.3.1-.5-1.3-.5s-1.9.2-1.2.5m309 0c1.7.2 4.7.2 6.5 0 1.7-.2.3-.4-3.3-.4s-5 .2-3.2.4m-322.5 1c.9.2 2.3.2 3 0 .6-.3-.1-.5-1.8-.5-1.6 0-2.2.2-1.2.5m356.5 0c.6.2 1.8.2 2.5 0 .6-.3.1-.5-1.3-.5s-1.9.2-1.2.5m-343 1c.6.2 1.8.2 2.5 0 .6-.3.1-.5-1.3-.5s-1.9.2-1.2.5m335.5 0c.9.2 2.3.2 3 0 .6-.3-.1-.5-1.8-.5-1.6 0-2.2.2-1.2.5m-302.3.8c.8.2 4.5.7 8.3 1 3.7.4 6.5 1.1 6.2 1.6-.7 1 4.7 1.1 12 0l5-.7-7.5-.7c-10.2-.9-25.8-1.7-24-1.2m289.3.2c.9.2 2.5.2 3.5 0 .9-.3.1-.5-1.8-.5s-2.7.2-1.7.5M67 954c.8.5 2.9 1.1 4.5 1.2 1.7.1-.1.4-4 .8l-7 .6 9 .2c5 .1 10-.1 11.2-.4 3.2-.9 1.8-2.5-1.5-1.8-2.1.4-2.4.3-1.2-.5 1.1-.8-.3-1.1-5.5-1.1-4.9 0-6.5.3-5.5 1m17.9 2.8c1.1.8 1.1 1 0 1.5-.8.3 1.3.3 4.6 0 7.1-.7 8.4-1.3 2.9-1.3-2.1 0-5-.3-6.4-.6-1.8-.4-2.1-.3-1.1.4m-16.6 2.9c.9.2 2.5.2 3.5 0 .9-.3.1-.5-1.8-.5s-2.7.2-1.7.5m-23 1c.9.2 2.3.2 3 0 .6-.3-.1-.5-1.8-.5-1.6 0-2.2.2-1.2.5m-14 1c.9.2 2.5.2 3.5 0 .9-.3.1-.5-1.8-.5s-2.7.2-1.7.5m43.7 1c3.8.3 5 .7 4 1.3-1 .7 1 1 6 1 11.1 0 7.3-1.7-5-2.3-5.8-.2-8-.2-5 0m17.5 3.4c-18.5 1.4-17.8 1.6 5.5 1.6 12.4 0 19.4-.3 15.5-.6-4.6-.4-6.2-.8-4.5-1.2 3.6-.9-3.1-.8-16.5.2m250.3-.4c.6.2 1.8.2 2.5 0 .6-.3.1-.5-1.3-.5s-1.9.2-1.2.5m-30 1c.7.3 1.6.2 1.9-.1.4-.3-.2-.6-1.3-.5-1.1 0-1.4.3-.6.6m-255 1c.7.3 1.6.2 1.9-.1.4-.3-.2-.6-1.3-.5-1.1 0-1.4.3-.6.6m8 0c.7.3 1.6.2 1.9-.1.4-.3-.2-.6-1.3-.5-1.1 0-1.4.3-.6.6m83.9 1c1.8.2 5 .2 7 0 2.1-.2.7-.4-3.2-.4-3.8 0-5.5.2-3.8.4m98.1 0c.7.3 1.6.2 1.9-.1.4-.3-.2-.6-1.3-.5-1.1 0-1.4.3-.6.6m13 0c1.2.2 3.2.2 4.5 0 1.2-.2.2-.4-2.3-.4s-3.5.2-2.2.4M112 970c0 1.3 1.1 1.3 3 0 1.2-.8 1.1-1-.7-1-1.3 0-2.3.4-2.3 1m111.7-.4c-.3.3-3.2.6-6.4.6-5.1 0-5.4.1-2.8 1 1.7.5 5.3.6 8 .2 2.8-.4 7.7-1 11-1.4l6-.7-7.6-.1c-4.2-.1-7.8.1-8.2.4m-124.4 1.1c2 .2 5.4.2 7.5 0 2-.2.3-.4-3.8-.4s-5.8.2-3.7.4m38.5 1c1.2.2 3.2.2 4.5 0 1.2-.2.2-.4-2.3-.4s-3.5.2-2.2.4m26 1c2.3.2 6.1.2 8.5 0 2.3-.2.4-.4-4.3-.4s-6.6.2-4.2.4m89 0c1.2.2 3 .2 4 0 .9-.3-.1-.5-2.3-.4-2.2 0-3 .2-1.7.4m-151 1c3.4.2 8.8.2 12 0 3.1-.2.3-.3-6.3-.3s-9.2.1-5.7.3m19.2.4c0 .7 8.9 1.9 14.8 1.9 2.3 0 4.2-.4 4.2-.9s-4.3-1.1-9.5-1.3-9.5 0-9.5.3m66.8-.4c2.3.2 5.9.2 8 0 2-.2.1-.4-4.3-.4s-6.1.2-3.7.4m46 1c2.8.2 7.6.2 10.5 0 2.8-.2.5-.3-5.3-.3s-8.1.1-5.2.3m-156 1c2.3.2 5.9.2 8 0 2-.2.1-.4-4.3-.4s-6.1.2-3.7.4m204.9 0c1.8.2 5 .2 7 0 2.1-.2.7-.4-3.2-.4-3.8 0-5.5.2-3.8.4m-185.9 1c.6.2 1.8.2 2.5 0 .6-.3.1-.5-1.3-.5s-1.9.2-1.2.5m140 0c1.2.2 3 .2 4 0 .9-.3-.1-.5-2.3-.4-2.2 0-3 .2-1.7.4m-99.1 1c1.8.2 5 .2 7 0 2.1-.2.7-.4-3.2-.4-3.8 0-5.5.2-3.8.4m22.3.1c-2.4.8-2.4.8.9 1.5 1.8.4 13.3.6 25.5.6 14.2-.1 20.3-.4 17.1-.9-7.7-1.2-40.7-2-43.5-1.2m-25.2 3.9c1.7.2 4.7.2 6.5 0 1.7-.2.3-.4-3.3-.4s-5 .2-3.2.4m68 0c1.2.2 3 .2 4 0 .9-.3-.1-.5-2.3-.4-2.2 0-3 .2-1.7.4m-97.5 1c.9.2 2.5.2 3.5 0 .9-.3.1-.5-1.8-.5s-2.7.2-1.7.5m122.5 0c.7.3 1.6.2 1.9-.1.4-.3-.2-.6-1.3-.5-1.1 0-1.4.3-.6.6m-137.5 1c.9.2 2.3.2 3 0 .6-.3-.1-.5-1.8-.5-1.6 0-2.2.2-1.2.5m152.5 0c.7.3 1.6.2 1.9-.1.4-.3-.2-.6-1.3-.5-1.1 0-1.4.3-.6.6M71.5 985c2.7 1.2 3.5 1.2 3.5 0 0-.6-1.2-1-2.7-.9-2.5 0-2.6.1-.8.9m188.3-.3c.6.2 1.8.2 2.5 0 .6-.3.1-.5-1.3-.5s-1.9.2-1.2.5m17 1c.7.3 1.6.2 1.9-.1.4-.3-.2-.6-1.3-.5-1.1 0-1.4.3-.6.6M74.5 987c-.4.6 1.4 1 4.4 1 2.8 0 5.1-.4 5.1-.8 0-1.1-8.8-1.3-9.5-.2m214.8-.3c.9.2 2.3.2 3 0 .6-.3-.1-.5-1.8-.5-1.6 0-2.2.2-1.2.5m-46 1c.9.2 2.5.2 3.5 0 .9-.3.1-.5-1.8-.5s-2.7.2-1.7.5m-143.5 1c.6.2 1.8.2 2.5 0 .6-.3.1-.5-1.3-.5s-1.9.2-1.2.5m64.2.3-12.5.6 13.5.1c7.4 0 21.6-.3 31.5-.6l18-.7h-19c-10.4 0-24.6.3-31.5.6m-32.2 1.7c.6.2 1.8.2 2.5 0 .6-.3.1-.5-1.3-.5s-1.9.2-1.2.5m-39 1c1.2.2 3.2.2 4.5 0 1.2-.2.2-.4-2.3-.4s-3.5.2-2.2.4m143 0c1.8.2 4.5.2 6 0s0-.4-3.3-.4-4.5.2-2.7.4m-160 1c1.2.2 3 .2 4 0 .9-.3-.1-.5-2.3-.4-2.2 0-3 .2-1.7.4m62.9 0c1.8.2 5 .2 7 0 2.1-.2.7-.4-3.2-.4-3.8 0-5.5.2-3.8.4m39.1 0c1.2.2 3.2.2 4.5 0 1.2-.2.2-.4-2.3-.4s-3.5.2-2.2.4m-57 1c.6.2 1.8.2 2.5 0 .6-.3.1-.5-1.3-.5s-1.9.2-1.2.5m84 0c.6.2 1.8.2 2.5 0 .6-.3.1-.5-1.3-.5s-1.9.2-1.2.5m19 1c.6.2 1.8.2 2.5 0 .6-.3.1-.5-1.3-.5s-1.9.2-1.2.5m25 1c.6.2 1.8.2 2.5 0 .6-.3.1-.5-1.3-.5s-1.9.2-1.2.5M58 997c-2 .6-1.5.8 2.3.8 2.6 0 5-.4 5.3-.9.6-1.1-4.1-1-7.6.1m198.1-.6c1.1.9 12 1.6 11.4.6-.3-.5-3.1-1-6.2-1s-5.4.2-5.2.4m-187.3 1.3c.7.3 1.6.2 1.9-.1.4-.3-.2-.6-1.3-.5-1.1 0-1.4.3-.6.6m56.4 1c6.5.2 17.1.2 23.6 0 6.4-.1 1.1-.3-11.8-.3s-18.2.2-11.8.3"/><g stroke-width="0"><path d="M480.9 58.9c-5.6 5.9-7.9 11.7-6 15.7 1.5 3.5.9 3.9-2.8 2-4.4-2.3-6.4-5.8-5.9-10.5.2-2.2 0-3.7-.4-3.5-.5.3-.8 2.6-.8 5.1 0 3.7.5 5 2.9 7.2 1.6 1.5 4.8 3.3 7 4 2.3.6 4.1 1.5 4.1 1.9s-2.1 2.5-4.6 4.6c-4.1 3.5-10.4 11.8-10.4 13.7 0 .5 2.1-1.3 4.8-3.9 7.9-7.9 22.1-13.2 29.8-11 5.1 1.4 4.1 2.5-3 3.2-3.5.3-7.9 1.1-9.8 1.8-11 3.7-29.7 23.3-31.4 32.8l-.6 3.5 2.1-3.3c2-3.1 4.6-5 5.6-4 .3.2-1.6 3.1-4 6.4-2.5 3.2-4.5 6.4-4.5 7.1s-1.5 2.4-3.4 3.8c-4.1 3.1-11.6 3.6-16.4 1.1-4-2.1-8-7.4-9.7-12.8-1.6-5.2-1.9-2-.4 3.7 1.5 5.4 8.2 11.8 14.2 13.5 6.6 1.8 5.9 3.3-1.3 2.8-6.9-.5-10.8-3.4-14.2-10.3-1.9-3.9-1.9-3.9-1.3-.7 1.8 9 8.6 21.6 14.4 26.5 2.8 2.3 3 3 2.8 8.6-.1 3.3.3 6.5.9 7.1s.8-.5.6-3.2c-.3-2.8-.1-3.9.7-3.4 1.3.8 6.1 10 6.1 11.6 0 1.7-8.3 1.1-12.3-.9-2-1-3.7-1.6-3.7-1.2 0 1.3 6.9 5.2 10.4 5.8 2 .3 3.6.9 3.6 1.2 0 .4-1.1 2.2-2.5 4.1-1.4 1.8-2.3 3.5-2.1 3.7s2-.6 4-1.8c3.9-2.3 5.7-2 3.6.5-1.4 1.8-.6 10.2 1.6 15.5 1.6 3.8 6.4 10.5 7 9.8.2-.2-.7-2.9-2.1-6-1.8-3.9-2.5-6.9-2.3-9.8.5-6.3 2.2-5.7 4.3 1.3 3.4 11.6 7.3 17.8 13.3 21.5 5.7 3.5 7 2.7 2.4-1.3-2.4-2-5-5-5.9-6.8-2-3.8-3.3-9.5-2.4-10 .4-.3 8 6.9 17 16l16.3 16.4-.4 5.5c-.3 3-.7 5.8-1.1 6.1-.3.3-5.9.7-12.4.8-11 .3-12.2.5-17.7 3.4-3.2 1.7-7.5 4.5-9.4 6.3-3.2 3.1-3.4 3.6-2.9 8.3.2 2.8.8 5.9 1.2 6.8.6 1.5.2 1.8-2.1 1.8-3.9 0-12.2 4.1-15.7 7.6-1.6 1.6-5.4 6.5-8.5 10.9-8.5 12-11.7 15.1-20.9 20.3l-8.4 4.6.3 5.6.2 5.6-9.2 9.3c-6.1 6.2-10.2 11.4-12.2 15.4-2.8 5.6-3 6.9-2.9 15.6l.1 9.5-6.2 5.6c-5.6 5-6.2 6-6.7 10.4-.4 3.5.1 6.9 1.7 12.1 2.6 8.2 2.3 10.2-2 16.6-3.8 5.6-3.8 8.4.1 14.3 3.6 5.4 4.8 9.9 4.9 17.7 0 4.8.3 5.7 2 6.2 1.9.5 2 1.3 2 16.9 0 15-.2 16.9-2.6 23.3-4.3 11.7-4.7 14-3.9 23 .5 6.7 1.2 9.2 2.8 11.1 2.6 2.9 9.7 5.6 11.3 4.3.6-.5 4.9-2.1 9.5-3.5 9.1-2.9 13.9-6.7 13.9-11.1 0-2-.4-2.3-2-1.8-1.7.5-2 .2-2-2 0-1.4-.5-3.5-1-4.6-.9-1.6-.7-1.9.9-1.9 3.9 0 6.4 3.3 6.9 9.3.5 6.2 2 8.2 5.2 7.2 4.7-1.5 6.3-11.3 3.5-22-1.7-6.5-3.8-10.2-10.5-18.9l-4.5-5.9.3-8.6c.3-9.8.8-12.1 2.7-12.1 1.3 0 3.6-8.4 5.1-18 .5-3.3 1.6-5.3 4.2-7.8l3.5-3.3-1.2-5.4c-1.6-7-.5-10.8 4.9-17.6 4.3-5.4 4.5-6.6 2.5-13.4-.5-1.5.2-2.5 2.5-3.9 4.7-2.7 4.6-3.1 5.6 15.4.5 9.7.3 14.7-1.1 22.5-1.2 7.2-1.7 17-1.9 34.7l-.3 24.7 3.4 3.3c1.9 1.8 4.6 5.3 6.1 7.7 2.6 4.4 2.6 4.4 1.4 15-1.7 15.6-1.7 16.9 1.2 17.7 1.3.3 3.1.4 4.1.2 1.5-.2 2 1.1 3.5 8.2 1 4.7 2.5 10.2 3.3 12.2 3.2 7.6 11.1 18.4 21.1 28.7 14.2 14.7 15.1 16 14.8 23.7-.2 5.9-.1 6.3 3.3 9.2 2.6 2.3 3.6 4.2 4.1 7.4.4 2.4 1.5 5.8 2.6 7.6l2 3.3-5 12.7c-2.7 7-5.5 14.8-6.2 17.4l-1.2 4.6-11.2 3.2c-16.6 4.7-24.4 7-25.9 7.6-.9.3-2.2-.8-3.5-3-2.7-4.6-5.9-6.1-17.8-8.5-5.4-1.2-11-2.4-12.2-2.7l-2.4-.7 2.2 4.3c2.6 5.2 2.4 10.8-.8 15.9l-2.1 3.4.1-4.2c0-2.8-1.1-6.5-3.6-11.7-5-10.2-9.5-15-15.9-16.9-11.2-3.3-20.2 1.7-24.4 13.7-2.8 8.3-2.4 28.7 1 44.8 1.5 6.9 2.7 14.8 2.7 17.7 0 2.8-1.6 11.8-3.6 20-3.3 13.5-3.6 15.7-3.1 24.8.9 19 9.5 37.3 20.6 44.2 2.6 1.7 5.1 2.3 9.2 2.3 7.1 0 12.3-3.5 16.7-11.2 3.3-5.8 7.6-18.7 8.7-25.9.4-2.6 2.4-8 4.5-12 2.1-4.1 5.5-10.8 7.5-14.9s4.4-8.3 5.2-9.3c2.7-2.9 3.6-1.9 1.4 1.6-1.6 2.6-5.4 11.2-11.8 26.4-.3.7.2 1.3 1.1 1.3 1 0 2.6-2.1 4-5.3 1.3-2.8 4.5-9.6 7-15l4.5-9.7h5.5c4.8 0 5.7-.3 8-3.1 3.1-3.7 3.3-7.3.5-11.8-1.6-2.7-1.8-3.6-.7-4.2 2.4-1.6 20.9-4.8 27.4-4.9h3.1l.3 20.7c.1 11.5.3 24.4.4 28.8l.1 8-3.7.6c-6.9 1.1-9.9 5.5-11.8 17.5-.6 3.8-2.2 10.5-3.6 15-1.8 6.1-2.4 10.3-2.4 17.7v9.7l3.2 2c1.8 1.1 5.3 2.2 7.8 2.6 9.1 1.4 8.5 2.3-1.5 2.4-5.5.1-12.7.7-16 1.4l-6 1.3 6 .7c7.1 1 5.7 2.3-3.4 3.2-6.3.7-8.5 2.4-3.1 2.4 6 0 2.8 2.6-7.7 6.2-6 2-15.2 4.6-20.6 5.7-10.8 2.3-15.3 3.9-19.9 7.2-2.5 1.9-5.1 2.3-15.7 3-6.9.4-16.4.8-21 .9-7.5 0-8.8-.3-11.8-2.6-1.8-1.4-3.3-2.9-3.3-3.3 0-.8 11.5-6.3 15.9-7.6l2.3-.7-3.2-3.3c-1.8-1.8-3-3.7-2.7-4.2.8-1.3 7.5-4 12.2-5 3.3-.6 2.2-.8-7-1.4-28.7-1.7-51.2-.7-57.6 2.6-2.5 1.4-2.8 1.8-1.8 3.6.6 1.1.8 2.4.4 2.7-.3.3-6.3 1-13.3 1.5-16.3 1.1-19.9 2-11.2 2.7 3.6.3 6 .8 5.5 1.2-.6.3-5.3 1.8-10.5 3.3-12.4 3.5-13.4 4.1-9.3 5.5 4.1 1.5 3.5 2.5-1.9 3.4-2.4.4-6.7 1.8-9.7 3.3-7 3.3-27.9 6.9-48.1 8.3-17.2 1.3-32.8 3.6-34.7 5.2-.7.6-1.3 1.9-1.3 2.8 0 2.2-.9 2.4-18.5 4.6-12.2 1.5-25.9 4.5-27.2 5.8-.4.3.2 1.3 1.3 2 1 .8 1.6 1.7 1.2 2.1-1.6 1.6-18.4 2.8-83.8 5.7-15.7.7-27.7 1.4-26.7 1.6.9.2 1.7.8 1.7 1.4 0 .7 5.1.9 16.2.5 14.9-.5 15.8-.4 10.8.8-3 .7-4.8 1.3-4 1.4 4.9.4-9.6 4.1-22.5 5.7-11.4 1.4.1 2.6 34.2 3.5 19.6.5 35.9 1.1 36.1 1.4.3.3-2.1.6-5.4.7l-5.9.1 5 .6 5 .7-4.5.6c-2.5.4-10.8 1-18.5 1.3-19.5.7-34.6 1.7-34.1 2.2.2.2 14 .8 30.7 1.3 16.7.6 33.3 1.3 36.9 1.7l6.5.7-5 .7c-2.7.4-9.5.8-15 .8-5.5.1-10.7.6-11.5 1.2-1.2.8-.9.9 1.2.5 3-.7 4.9 1 2.1 1.7-1 .3-.2.5 1.7.4 1.9 0 5.8.1 8.5.2l5 .3-5.5.9c-3 .4-16.5 1.3-30 1.9-13.4.6-24.7 1.3-24.9 1.6-.2.2 7.9.4 18.1.4 22.1 0 39.9 1 39.2 2.1-.3.5 3.5.9 8.5.9 4.9 0 10.2.5 11.8 1.1 1.5.6 13.4 1.4 26.3 1.8l23.5.8-16.5.4c-9.1.2-19.3.3-22.8.3-3.4 0-6.2.3-6.2.7 0 1 32.2 1.9 84 2.3 26.7.2 39.6.1 28.8-.3-10.8-.3-19.9-.9-20.2-1.2-.9-.8 17.5-1.8 44.9-2.4 12.7-.3 32.9-1 45-1.5s31.5-1.2 43-1.5c18.9-.6 26.5-1.2 43-3.4l5-.7-6.4-1.2c-7-1.3-8.2-1.9-6.2-3.1 1.1-.7 1-1-.5-1.4-4-1.2-17.4-3.7-19.8-3.7-1.4 0-2.7-.4-3-.8-.3-.5 6.5-1.4 15.2-2.1 8.6-.7 15.8-1.4 16.1-1.6.2-.3-6.5-.5-15-.5-17.5-.1-46.8-1.5-47.6-2.4-.4-.3-.4-.8-.2-1.1.8-.8 22.7-2.6 42.6-3.5 14.7-.6 21-1.4 28.8-3.4 5.5-1.4 17-3.4 25.5-4.5s21.8-3 29.5-4.1c9.4-1.4 16.8-2 22.5-1.7 8.8.5 10.2.7 25.8 3.4 6.4 1.1 11.7 1.3 17 .9 4.2-.4 16-1.3 26.2-1.9l18.5-1.3-10-.7c-22.5-1.7-25.5-2-25.5-2.9 0-.6 4.7-.7 11.8-.4 10.1.4 10.8.4 4.7-.4-3.8-.6-8.1-1.2-9.5-1.6l-2.4-.5 3.2-2.1 3.2-2-5-4c-10.8-8.6-22.1-10-40.1-4.8-19.2 5.4-34.7 7.4-72.4 9-22.9 1-33.9 2.1-55 5.5-12.7 2-17.7 1.9-22.2-.5-2.1-1.1-4.7-2-5.8-2s-2.7-.4-3.5-1c-2.6-1.6.6-1.9 21.8-2.2 15.9-.2 20.5-.6 21.1-1.7 1.1-1.7 9.8-3.2 40.1-7.1 12.9-1.7 25.3-3.7 27.5-4.4 4.4-1.4 5.2-3.6 1.7-5.1-1.2-.5-2.1-1.4-1.9-2 .2-.5 7-2.6 15.1-4.7 14.1-3.5 21.2-6.4 21-8.4-.1-1.1-2.9-2.6-9.9-5.5-3.7-1.5-4.6-2.3-3.5-2.9.8-.4 9.8-2.9 19.9-5.4 12.4-3.1 19.1-5.3 20.3-6.5 1.7-1.9 7.2-3.4 17.6-4.6 7.6-1 6.4-2.5-2-2.5-10.8 0-7.4-1.1 6.2-2.1 13.1-.9 18.2-2.7 18.8-6.5.6-4.1-3.9-13.1-10.8-21.8-3.9-4.8-7-9.3-7-10 0-.8.7-3 1.5-5 1.6-3.7.8-7.6-1.5-7.6-.6 0-1-.7-1-1.5s.4-1.5.9-1.5c1.4 0 3.4-5.9 3.3-9.6-.2-4.8-1.8-7.3-5.8-9-4.3-1.8-4.3-2.6 0-17.9 1.8-6.6 4.1-16.3 5.1-21.5 3-16.6 1.9-14.9 12-18.1 5-1.6 13.1-3.8 18-5 18.1-4.3 27.9-11.5 34.4-25.3 5.1-10.9 6.5-20.3 5.9-41.8-.6-18.3-.5-18.7 1.8-22.5 3.7-6.1 3.5-7.9-4.5-30.6-2.5-7.3-3.3-11.5-4.1-23-.6-7.8-1.3-15.7-1.6-17.4l-.6-3.3 7.6.7c9 .7 9 .8 5.1-10.7-3.9-11.4-3.5-14.5 2.5-21.4 5.9-6.8 7.4-11.3 6.2-19.1-.9-5.3-.7-5.8 2.4-10.9 2.7-4.2 3.7-7.4 5.1-15.9 2.5-15.8 1.2-19.5-14.7-41.7-8.2-11.4-10.1-22-5.5-31 1.4-2.8 2.9-5 3.4-5s2 1.9 3.4 4.2c1.4 2.4 4.8 6.9 7.6 10.1 3.7 4.2 5.1 6.6 5.1 8.8 0 3.5 3.1 6.9 6.4 6.9 1.3 0 3.5.9 4.9 2 1.4 1.2 5.1 3.2 8.3 4.6 3.1 1.4 7.1 3.6 8.9 4.9 4.4 3.4 7.7 3.2 10.9-.6 1.4-1.7 3-2.8 3.6-2.4.5.3 2.4 2.6 4 5.1 2.9 4.2 3.3 4.4 7.8 4.4 3.5 0 5.9-.7 8.8-2.6 6.4-4.1 12.4-15.3 12.4-23.1 0-4.9-4.3-12.6-9.2-16.4-2.4-1.8-5.4-4.3-6.7-5.6-1.2-1.2-3.2-2.5-4.2-2.8-1-.4-2.1-1.8-2.4-3.3s-1.3-5-2.2-7.9c-.8-2.8-1.3-5.9-.9-6.8.4-1.2-.5-2.8-3-5.2-3.4-3.1-3.5-3.6-2.4-6.3.6-1.6.9-3.8.5-5-.4-1.1-4.9-4.8-10.3-8.4-5.3-3.4-10.2-6.9-10.8-7.7-.7-.8-1.3-6.2-1.6-12.4l-.3-11-4.7-8.4c-2.6-4.5-5.5-10.8-6.4-13.9-.9-3.2-2.3-7.8-3.1-10.4-1.9-6.2-8.2-13.2-13.8-15.4-4-1.5-4.5-2-4.5-4.8 0-2.4-1-4.2-4.2-7.3-5.5-5.3-7.7-6.3-13.2-6.3-6.7 0-14.5-1.9-19.8-4.9-2.7-1.4-4.8-2.9-4.8-3.3s1.8-1.1 4.1-1.4c5.9-1 8.8-4 14.6-15.1 9.1-17.5 11.2-29.2 7.7-42.7-2-7.6-2.1-13.1-.4-19 1-3.8 1-6.4 0-13.7-.6-5-.9-9.3-.6-9.6.3-.4 2.1.7 3.8 2.3l3.2 2.9-1.7-2.8c-.9-1.5-2.4-3.8-3.3-5.2s-1.4-2.8-1.1-3.1 3.1-.1 6.3.5c7.2 1.4 9.4 1.4 9.4.1 0-.6-1.3-1-2.9-1-1.7 0-4.3-1.1-6.1-2.6l-3.1-2.7 3.4-3.1c4.1-3.7 8.2-11.5 9-17.1l.6-4-3.1 5.7c-3.6 6.7-5.4 7.6-3.3 1.7 1.7-4.8 2.1-16.4.5-15.4-.5.3-1 1.6-1 2.8-.1 3.1-4.5 13-6.1 13.6-.8.2-1-.2-.4-1.5 3.2-7.9 4.4-20.5 2.5-26.4-.7-2.2-.8-2-.9 1.5-.2 8-2.4 11.2-3.8 5.7-1.2-4.8-4.3-11-7.9-15.9-6.6-8.7-11-12.1-22.6-17l-8.1-3.4 3.2 3.3c3.9 3.9 10.9 17.8 11.8 23 .8 5.5-1.7 4.9-4.4-1-4.4-9.4-11.7-15.6-20.8-17.7-2.6-.6-2.4-.2 1.9 2.6 2.6 1.8 6.1 5 7.7 7.1 5 7 4.9 13.7-.3 11-5.4-2.8-11.2-6.8-11.6-8-.5-1.6 3.9.2 8.3 3.3 6.2 4.4 7.3 4.4 3 0-7.4-7.3-23.3-11.2-34.7-8.6-2.5.6-5.6.4-9.5-.5-7.7-1.9-17.6-1.9-23.8 0-2.7.9-5.1 1.6-5.3 1.6-1 0-4.2-7.1-4.2-9.5 0-2.9 3.1-8.6 7.3-13.3 4-4.4.2-2.1-4.4 2.7m94.8 16.3C583 80.7 587 88 587 95.7l-.1 4.8-4.5-8.8c-2.6-4.8-6.6-11-9.1-13.7-3.6-4-4.1-5-2.6-5 1.1 0 3.3 1 5 2.2m-66.8 5.4c.2.2.2.7-.2 1-1 1-7.7-.6-7.7-1.8 0-.9 6.8-.3 7.9.8M431.5 145c.3.5 3.7 1.9 7.6 3.1 3.8 1.1 6.9 2.4 6.9 2.8 0 .5-.9 1.6-1.9 2.5-1.8 1.7-2.1 1.6-5.8-.7-4.4-2.9-10.2-8.7-8.5-8.7.6 0 1.4.4 1.7 1m2.1 540.2c-.3 1.3-1.5 8.1-2.6 15.3-1.1 7.1-4.2 21.3-6.9 31.5s-5.3 20.5-5.6 23c-1.3 8.4-2.1 7-1.7-3.3.4-14.7 2.7-28.1 7.2-43 3.6-12 7.4-23 8.6-24.9 1-1.6 1.6-.7 1 1.4m19.3 24.1c2.5 5.2 2.6 10.5.3 17.1-3.1 8.9-4 7-3.9-7.8.1-7.5.5-13.6.9-13.6.3 0 1.6 1.9 2.7 4.3m-5.4 9.6c-.4 3.9-1.1 6.9-1.6 6.6-.8-.5-.4-6.7.7-12.4 1-4.8 1.6-1 .9 5.8M404 780.2c1.3 11.4.9 28.2-.7 34-.8 2.9-2.9 3.9-2.7 1.3 0-.8.1-12.2.2-25.2.1-13.2.6-23.3 1.1-22.8.4.6 1.4 6.3 2.1 12.7m97.6 13.2c2.7 1.4 6.9 5.1 9.4 8.1 5.9 7.2 8.4 7.9 12.3 3.4l2.9-3.4-.7 3c-.8 3.7-3.1 7.4-5.1 8.2-2.6 1-7.1-1.8-11.5-6.9-5-6-10.4-8.6-19.2-9.5-6.2-.5-8.1 0-17 4.5-1.1.6.4-3.1 2.2-5.2.9-1 3-2.8 4.6-3.8 4.4-2.8 15.4-2.1 22.1 1.6m35.4 39.7c5 7.4 6.7 12.8 4.5 13.9-1.7.9-12.7-16.9-13.3-21.4-.5-4.1-.5-4.1 1.6-2.2 1.1 1 4.4 5.3 7.2 9.7m-37.8-7.1c6.6 2.5 12.3 7 13.7 11.1 1.1 3.1 1 3.1-1.7 2.6-1.5-.3-7.4-2.2-13.2-4.2-8.5-3-12.1-3.7-18.7-3.8-9.1-.2-10.3-1.2-5.5-4.5 4-2.8 5-3 12.9-3.1 4.9-.1 8.9.5 12.5 1.9m2.6 12.2c2.9 1.4 4.1 2.4 3 2.6-1.8.3-7.3-2.1-8.3-3.8-.9-1.5 0-1.3 5.3 1.2"/><path d="M41.8 931.7c.7.3 1.6.2 1.9-.1.4-.3-.2-.6-1.3-.5-1.1 0-1.4.3-.6.6m-5 1c.7.3 1.6.2 1.9-.1.4-.3-.2-.6-1.3-.5-1.1 0-1.4.3-.6.6m-10 1c1.8.2 4.5.2 6 0s0-.4-3.3-.4-4.5.2-2.7.4m107.7 39.7c.6.3 3.7.8 7 1.3 4.7.6.8.9-17.5 1.3-13.3.3 4.3.6 40.5.6 35.2.1 75.5-.2 89.5-.5l25.5-.6-39.5-.7c-70.2-1.4-106.5-1.8-105.5-1.4m-8 8.6c-28.9 1-38.5 1.8-38.5 3.5 0 2.5 10.8 3 57.7 2.9 48.9-.2 142.5-1.5 140.8-2-1.5-.5-49.6-3.3-73.5-4.4-22.9-1-53.4-1-86.5 0m-8 9-18 .6 26 .3 26 .4-19.5.8c-36 1.3-67 3.2-67 4 0 .4 44.7.8 99.3.7 59.7 0 97-.4 93.7-.9-6.3-1-34.7-2.6-63.3-3.5-10.8-.4-19.5-.9-19.2-1.2s13-.5 28.3-.5c23.9 0 25.7-.1 13.2-.7-16.6-.9-73-.8-99.5 0"/></g><path fill="#2a2a00" d="M91.5 964c.4.6 1.1.8 1.6.5 1.4-.9 1.1-1.5-.7-1.5-.8 0-1.2.5-.9 1m19.5 2c0 .5.5 1 1.1 1 .5 0 .7-.5.4-1-.3-.6-.8-1-1.1-1-.2 0-.4.4-.4 1m10.3 1.7c.9.2 2.3.2 3 0 .6-.3-.1-.5-1.8-.5-1.6 0-2.2.2-1.2.5m130 1c.9.2 2.3.2 3 0 .6-.3-.1-.5-1.8-.5-1.6 0-2.2.2-1.2.5m-70.5 5c.6.2 1.8.2 2.5 0 .6-.3.1-.5-1.3-.5s-1.9.2-1.2.5m-40.8 1.4c0 .5.9.9 2 .9s2-.2 2-.4-.9-.6-2-.9-2-.1-2 .4m14.3 2.6c1.5.2 3.9.2 5.5 0 1.5-.2.2-.4-2.8-.4s-4.3.2-2.7.4M75 985c0 .9 3.4 1.5 7.3 1.2.9-.1 1.7.3 1.7.9 0 1.7 2.3.5 2.6-1.4.2-1.4-.7-1.7-5.7-1.7-3.3 0-5.9.4-5.9 1m94.8 3.7c1.2.2 3.2.2 4.5 0 1.2-.2.2-.4-2.3-.4s-3.5.2-2.2.4"/><path fill="#aaaa80" d="M421.3 727.8c-1.1.7-3 8.2-2 8.2.3 0 1.2-.3 2.1-.6 1.2-.5 1.3-1 .5-2.5-.5-1-.6-1.9-.1-1.9.4 0 .8-.9.8-2s0-2-.1-2c0 0-.5.4-1.2.8m-.6 6.4c-.3.8-.6.5-.6-.6-.1-1.1.2-1.7.5-1.3.3.3.4 1.2.1 1.9m-2.7 4c0 2 .8 2.2 2.9.9.9-.6 1-1.1.2-1.5-.6-.4-1.1-.1-1.1.6 0 .9-.3.9-1-.2-.8-1.3-1-1.2-1 .2m0 5.1c0 .9.4 1.8.9 2.1.5.4.8-.1.7-.9-.3-2.1-1.6-3.1-1.6-1.2m79.5 85.7c-.9 1.5 2.1 2.3 4.2 1.1 1.5-.9 1.3-1-1.1-.5-2.1.5-2.7.4-2.2-.5.4-.6.5-1.1.2-1.1s-.8.5-1.1 1m-3 2c.3.5 1.1 1 1.6 1 .6 0 .7-.5.4-1-.3-.6-1.1-1-1.6-1-.6 0-.7.4-.4 1M77.8 976.7c.7.3 1.6.2 1.9-.1.4-.3-.2-.6-1.3-.5-1.1 0-1.4.3-.6.6M50 986c0 .5.5 1 1 1 .6 0 1-.5 1-1 0-.6-.4-1-1-1-.5 0-1 .4-1 1m166.8 12.7c.7.3 1.6.2 1.9-.1.4-.3-.2-.6-1.3-.5-1.1 0-1.4.3-.6.6m-55 3c1.2.2 3 .2 4 0 .9-.3-.1-.5-2.3-.4-2.2 0-3 .2-1.7.4"/><path fill="#808055" d="M407.7 676.7c-.3.5.1 1.3.8 2 1 1 1.4.9 1.8-.1.8-2.1-1.5-3.7-2.6-1.9m-166.9 294c.7.3 1.6.2 1.9-.1.4-.3-.2-.6-1.3-.5-1.1 0-1.4.3-.6.6M99.5 975c-1.9.8-1.9.9.3.9 1.2.1 2.2-.4 2.2-.9 0-.6-.1-1-.2-.9-.2 0-1.2.4-2.3.9m-42.7.7c.7.3 1.6.2 1.9-.1.4-.3-.2-.6-1.3-.5-1.1 0-1.4.3-.6.6m.8 9.2c-.6 1 1.6 2.1 4.1 2.1 1.3 0 1.3-.2-.1-1.5-1.7-1.7-3.2-1.9-4-.6m75.7 4.8c.9.2 2.3.2 3 0 .6-.3-.1-.5-1.8-.5-1.6 0-2.2.2-1.2.5m53.5 9c.6.2 1.8.2 2.5 0 .6-.3.1-.5-1.3-.5s-1.9.2-1.2.5"/><path fill="#ffffd4" d="M503.3 932.1c.9.5 1.7 1.8 1.8 2.7 0 1.1.2 1.2.6.4.6-1.5-1.4-4.2-3.1-4.2-.6 0-.3.5.7 1.1m24.7.7c0 .5 1.4.9 3 .9q3 0 1.8-.9c-1.7-1-4.8-1-4.8 0m4 3.2c-1.2.8-1.1 1 .8 1 1.2 0 2.2-.5 2.2-1 0-1.3-1.1-1.3-3 0M54.8 966.7c.7.3 1.6.2 1.9-.1.4-.3-.2-.6-1.3-.5-1.1 0-1.4.3-.6.6m-54.1 9c.7.2 1.9.2 2.6 0 .6-.3.1-.5-1.3-.5s-1.9.2-1.3.5m66.6 13c.9.2 2.3.2 3 0 .6-.3-.1-.5-1.8-.5-1.6 0-2.2.2-1.2.5m165.5 0c.7.3 1.6.2 1.9-.1.4-.3-.2-.6-1.3-.5-1.1 0-1.4.3-.6.6M105 990c.8.5 2 1 2.5 1 .6 0 .3-.5-.5-1s-1.9-1-2.5-1c-.5 0-.3.5.5 1m89.8 11.7c1.2.2 3 .2 4 0 .9-.3-.1-.5-2.3-.4-2.2 0-3 .2-1.7.4"/><path fill="#d4d4aa" d="M252.6 970.8c-.3.5.1.9.9.9s1.2-.4.9-.9c-.3-.4-.7-.8-.9-.8s-.6.4-.9.8m-123.8 9.9c.7.3 1.6.2 1.9-.1.4-.3-.2-.6-1.3-.5-1.1 0-1.4.3-.6.6m112 18c.6.2 1.8.2 2.5 0 .6-.3.1-.5-1.3-.5s-1.9.2-1.2.5"/><path fill="#80aa80" d="M419.6 732.2c.3.5 1 .6 1.5.3 1.3-.9 1.1-1.2-.6-1.2-.8 0-1.2.4-.9.9"/><path fill="#805555" d="M128.8 972.7c.6.2 1.8.2 2.5 0 .6-.3.1-.5-1.3-.5s-1.9.2-1.2.5m8.5 6c.9.2 2.5.2 3.5 0 .9-.3.1-.5-1.8-.5s-2.7.2-1.7.5m11.5 2c.7.3 1.6.2 1.9-.1.4-.3-.2-.6-1.3-.5-1.1 0-1.4.3-.6.6M61 985.3c0 .3 1.5 1 3.2 1.6 1.8.6 2.8.7 2.3.2-1.2-1-5.5-2.5-5.5-1.8"/><path fill="#552a2a" d="M113.8 974.7c.7.3 1.6.2 1.9-.1.4-.3-.2-.6-1.3-.5-1.1 0-1.4.3-.6.6M156 979c1.4.4 3.4.8 4.5.8 1.6 0 1.5-.2-.5-.8-1.4-.4-3.4-.8-4.5-.8-1.6 0-1.5.2.5.8m-83.3 7.5c.3.8.9 1.2 1.4.9 1.2-.7 1.1-1.1-.5-1.7-1-.4-1.3-.1-.9.8"/><path fill="#2a0000" d="M115.5 970c-.3.5.1 1 .9 1 .9 0 1.6-.5 1.6-1 0-.6-.4-1-.9-1-.6 0-1.3.4-1.6 1m5.8-.3c.9.2 2.3.2 3 0 .6-.3-.1-.5-1.8-.5-1.6 0-2.2.2-1.2.5m6 0c.9.2 2.3.2 3 0 .6-.3-.1-.5-1.8-.5-1.6 0-2.2.2-1.2.5m-3 4c.9.2 2.5.2 3.5 0 .9-.3.1-.5-1.8-.5s-2.7.2-1.7.5m6.5 0c.6.2 1.8.2 2.5 0 .6-.3.1-.5-1.3-.5s-1.9.2-1.2.5m14 2c.7.3 1.6.2 1.9-.1.4-.3-.2-.6-1.3-.5-1.1 0-1.4.3-.6.6m5 2c.7.3 1.6.2 1.9-.1.4-.3-.2-.6-1.3-.5-1.1 0-1.4.3-.6.6m-4 4c.7.3 1.6.2 1.9-.1.4-.3-.2-.6-1.3-.5-1.1 0-1.4.3-.6.6m-58.9 2.5c-.6 2.1-.5 3.8.2 3.8.5 0 .9-.9.9-2 0-1.6-.7-2.8-1.1-1.8m3.9 3.5c.7.3 1.6.2 1.9-.1.4-.3-.2-.6-1.3-.5-1.1 0-1.4.3-.6.6m94 4c.6.2 1.8.2 2.5 0 .6-.3.1-.5-1.3-.5s-1.9.2-1.2.5"/><path fill="#d4aaaa" d="M107.8 972.7c.6.2 1.8.2 2.5 0 .6-.3.1-.5-1.3-.5s-1.9.2-1.2.5M39 986l-3.5.7 3.2.2c1.7 0 3.5-.4 3.8-.9.3-.6.5-.9.3-.9-.2.1-1.9.5-3.8.9"/><path fill="#ffd4d4" d="M235 979.5c0 .8.2 1.5.4 1.5s.6-.7 1-1.5c.3-.8.1-1.5-.4-1.5-.6 0-1 .7-1 1.5m-201.2 8.2c1.2.2 3.2.2 4.5 0 1.2-.2.2-.4-2.3-.4s-3.5.2-2.2.4"/><path fill="#aa8080" d="M52 986c0 .6.7 1 1.5 1s1.5-.2 1.5-.4-.7-.6-1.5-1c-.8-.3-1.5-.1-1.5.4"/><path fill="#002a00" d="M177.7 973.1c.7.7 1.5 1 1.8.7s-.2-.9-1.2-1.2c-1.4-.6-1.5-.5-.6.5"/></svg>