<svg xmlns="http://www.w3.org/2000/svg" viewBox="0 0 147 168"><g fill="#80552a" stroke-width="0"><path d="M.4 7.9c.7 9.2 1.3 11.4 3.3 10.7 1.1-.4 1.3-.1.8 1.5-.4 1.1-.1 2.6.5 3.4.7.8 1.1 3.2.9 5.3-.3 3-.1 3.8 1.3 3.8.9 0 1.4-.4 1.1-.9-.6-1-1.2-6.4-1.8-18.2C5.8 1 5.5 0 2.4 0H-.2zm4.3-1.7c-.3.8-.6.5-.6-.6-.1-1.1.2-1.7.5-1.3.3.3.4 1.2.1 1.9M3.5 10c.3.5.1 1-.4 1-.6 0-1.1-.5-1.1-1 0-.6.2-1 .4-1 .3 0 .8.4 1.1 1m17.6-3.8c.1 3.5.1 7.4 0 8.8 0 1.3.3 2.8.8 3.3.6.6.5 1.9-.1 3.3-1.4 2.9-.4 5.4 2.1 5.4 1.1 0 2.2.8 2.5 1.7 1.3 4.8 1.7 8.3.8 8.3-.5 0-.8 2.5-.7 5.5.1 3.1-.2 5.8-.6 6.1-.5.3-.9 1.1-.9 1.7 0 .7.9.1 1.9-1.2 1-1.4 1.7-3.1 1.4-3.8s0-1.3.6-1.3c.7 0 1.4.6 1.7 1.3.8 2.1 1 9.6.3 9.1-.4-.2-.9 1.1-1.3 2.8-.4 2-.2 3.4.5 3.9 1.5.9 4.7-1 5.2-3.1.2-1 .5-.7.9.8.4 1.3.4 2.1 0 1.8-.9-1-4.2 6.4-4.2 9.5 0 1.4-.6 3.2-1.3 3.8-1.6 1.3-2.1 7.7-.7 8.6.6.3 1 .1 1-.4 0-1.7 2.7-1.3 3.4.5 1 2.5.7 6.6-.4 5.9-.6-.3-1.3.1-1.7 1.1-.6 1.6-.7 1.5-2-.2-1.1-1.6-1.3-1.1-1.3 3.8 0 3.1-.3 6.5-.6 7.5-.5 1.5-.4 1.5.5.3.9-1.3 1.1-1.2 1.1.4 0 1.1.5 4.9 1.2 8.5 1 6 1.2 6.3 1.9 3.7.5-1.7.6-3.2.4-3.5-.3-.2-.6.2-.6 1-.1.8-.5-1.1-.9-4.1-.8-6.5-.2-13 1.3-13 .6 0 .8 2.3.4 6.2-.4 4.5-.3 5.6.4 3.9.7-1.8 1.2-2.1 2.3-1.2s1.5.6 2-1.5c.5-1.7.3-3-.5-3.5-1-.6-1-1.1-.1-2.2.7-.8 1-2.1.6-3-.3-.8-.1-1.8.5-2.2.7-.4 1.1 1 1.1 4.2 0 2.7.5 5.4 1.2 6.1.8.8.8 1.5-.2 2.7-.9 1-1.1 3.3-.7 7 .3 3.1 0 7.2-.7 9.7-.7 2.4-1.2 7.1-1.2 10.5.1 5.4 0 5.9-1.1 4s-1.2-1.5-1.3 3.5c0 4.5.3 5.6 1.4 5.2.8-.3 1.6 0 1.9.8.2.7.3.5.2-.5-.2-.9.1-1.7.5-1.7s.6-2.8.3-6.3c-.3-4-.1-5.7.5-4.9.5.8.8 2.4.6 3.8-.1 1.3.2 2.2.7 1.8 1.3-.8 1.1-11.4-.2-11.4-.5 0-.7.6-.3 1.2.5 1 .4 1-.5.2-1.8-1.7-.9-5 1.2-4.6 1.1.2 1.7-.4 1.7-1.8 0-1.1-.4-2-.8-2-.5 0-.9-1.9-1-4.3 0-2.3-.4-5.5-.8-7.1-.6-2.5-.4-2.8 1-2.3 1.3.5 1.6-.1 1.6-3.4 0-2.4-.4-3.8-1-3.4-1.3.8-1.8-.8-2.4-7.8-.2-3.3 0-5.5.5-5.1.5.3 1 2 1 3.7.2 3.1.2 3.1.6.4.3-1.5.9-2.5 1.5-2.1s.6-.1-.1-1.4c-.8-1.5-.7-2.3.4-3.2.7-.6 1.6-2.1 1.8-3.3s.3-.7.1 1.1c-.1 1.8.1 3 .7 2.7.5-.4.9.1.9 1s.5 1.3 1 1c.6-.4 1 .8 1 2.9 0 1.9-.4 3.7-1 4.1-.5.3-.1 1.4.9 2.4 1.5 1.5 1.8 3.1 1.5 7.5-.2 3.1 0 5.4.5 5.2 1.2-.8 1.3-11.3.1-12.1-1.6-1-1.2-4.2.6-4.9 1.1-.4 1.5-.2 1.1.6-.2.7.2 1.9.9 2.6 1.6 1.5 1.6 1.6 1.9-6.6.2-4.9-.1-6.2-1.2-6.2-1 0-1.3-.6-.9-1.6.3-.9.6-2.8.6-4.2 0-2.1.2-2.4 1-1.2.7 1.1 1 .7 1-1.8 0-1.7-.5-3.2-1.1-3.2-.5 0-.7-.5-.4-1 .3-.6-.1-1.3-.9-1.6-.9-.3-1.4-1-1.1-1.4 1.1-1.8 1.5-7.9.6-8.4-.6-.4-.8-1.3-.4-2.1.3-1-.1-1.5-1.3-1.5-1.6 0-1.7-.2-.4-1 1.3-.9 1.3-1 0-1-1.2 0-1.3-.2-.1-.9 1.1-.7 1.1-.9 0-1.4-1-.4-1-.6-.1-.6 1.4-.1 1.7-5.1.3-5.1-.5 0-1.2.9-1.6 1.9-.9 3-5.3.4-5.8-3.4-.2-1.7-.5-.4-.5 2.8-.1 3.8-.6 5.6-1.2 5.2s-1-3.4-.9-7c.2-4.8.5-6.2 1.6-5.8.7.3 1.3-.2 1.3-1.1q0-1.5 1.8-.9c1.2.4 1.1.1-.6-1.3-2-1.7-4-9-2.2-7.9.4.3 1.1-.2 1.4-1.1.3-.8.9-1.3 1.4-1 .4.2 1.4.1 2.2-.4.7-.4 2.3-.5 3.5 0 1.6.6 2.2.4 2.2-.5 0-.8-.4-1.2-.9-.9-.7.5-1.2-1-.9-2.9 0-.4-.4-.7-1.1-.7-.6 0-.9-.3-.5-.6.3-.3.2-1.7-.3-3-.7-1.7-.5-2.7.5-3.8.8-.8 1.5-1.9 1.5-2.5s1.2-1.3 2.8-1.7C59.2 4.6 63 2.3 63 1c0-.6-8-1-21-1H21zM27 5.1c0 .5-.4.9-1 .9-.5 0-1-.7-1-1.6 0-.8.5-1.2 1-.9.6.3 1 1 1 1.6m11.3 4.8c.8 1.7 1.1 3.5.6 4.2-.4.7-.5 1.7-.3 2.1.3.4-.4.8-1.5.8-1.2 0-2.1.7-2.1 1.5s.8 1.5 1.8 1.5c1.4 0 1.2.4-.8 2s-2.7 1.7-3.8.6c-1-1-1.1-1.8-.1-3.9.7-1.5 1.6-2.7 2-2.7.5 0 .6-.7.3-1.5-.8-2.1.5-8.7 1.6-8 .5.3 1.5 1.8 2.3 3.4M30 7.4c0 .3-.4.8-1 1.1-.5.3-1 .1-1-.4 0-.6.5-1.1 1-1.1.6 0 1 .2 1 .4m3 2.1c0 .8-.4 1.5-1 1.5-.5 0-.7-.7-.4-1.5.4-.8.8-1.5 1-1.5s.4.7.4 1.5m6.8 31.9c-1.7 2-2.9-.9-1.7-4l1.2-2.9.7 3c.3 1.6.3 3.4-.2 3.9m-.4 30.3c-.7.2-1 1.4-.7 2.6.4 1.8.2 1.9-.6.6-1.4-2.1-.3-6.5 1.3-4.8.8.8.8 1.3 0 1.6m-3.9 5.2c.7 1.2-1.2 2.4-2.5 1.6-1.1-.7-.4-2.5 1-2.5.5 0 1.1.4 1.5.9M50 78c0 1.1-.4 2-1 2-.5 0-1-.9-1-2s.5-2 1-2c.6 0 1 .9 1 2m1.7 2.7c-.3 1-.5.2-.5-1.7s.2-2.7.5-1.8c.2 1 .2 2.6 0 3.5M53 85c0 .5-.4 1-1 1-.5 0-1-.5-1-1 0-.6.5-1 1-1 .6 0 1 .4 1 1m-14.3 2.2c-.3.8-.6.5-.6-.6-.1-1.1.2-1.7.5-1.3.3.3.4 1.2.1 1.9M65.4 3.4c1 2.4 1.2 4.5.6 7-.5 2.4-.4 3.4.3 2.9 1.7-1 5.8-1.2 5.1-.2-.3.5-1 .7-1.5.4-.5-.4-1.6.1-2.5.9-.8.9-1.1 1.6-.6 1.6s1.2-.3 1.6-.7c1.2-1.2 4.7-1.3 6.7-.3 1 .6 1.9.7 1.8.3Q76.3 12 79 12c1.3 0 2-.7 2-2 0-1.6.7-2 3.3-2.1 1.7 0 2.6-.3 1.9-.6-.6-.2-.9-.9-.6-1.4.4-.6 1.1-.6 1.9.1s1.6.7 1.9.2c.3-.6-.1-1.2-.9-1.6C85.9 3.6 86.9 2 90 2c2.9 0 4.1 1.5 1.8 2.2-.6.2-.8.9-.5 1.5.4.7 2.3.9 4.9.6 3.5-.5 4-.4 3.5 1-.3.9-.2 1.9.3 2.2.6.4 1 3 1.1 5.8.1 3.7.3 4.5.8 2.8l.7-2.5 2.1 2.3c2.3 2.5 3.6 6.1 2.2 6.1-.5 0-.9.4-.9 1 0 .5 2.4 1 5.3.9 9.2 0 8.9-.2 8.5 5.6-.3 4.8-.1 5.4 2.5 6.8 2.5 1.5 2.7 1.5 2.8-.1 0-.9.5-.4 1 1.2 1 3.6-.7 11.5-2.7 12.3-.8.3-1.1 1-.8 1.7.3.6 0 .4-.8-.4-.7-.9-2.1-1.4-3-1.2-1.5.3-1.8 1.4-1.8 6.6 0 3.4.5 6.7 1 7.2.6.6 1.1 4.2 1.2 8.2s.5 7.2.9 7.2c.3 0 .7 2.8.8 6.1.2 5.8 1.6 8.9 4 8.9 1.4 0 1.9 3.1.9 5.8-.5 1.4-.4 3.2.3 4.4.6 1.1 1.2 4.2 1.3 6.9 0 2.7.2 4.9.3 4.9s.7-1.9 1.3-4.1c.8-2.9.8-5 .1-6.8-1.4-3.7-2.4-14.2-1.1-11.6.9 1.8 1 1.7.5-.5-.2-1.4-.5-2.9-.5-3.3 0-.5-.3-.6-.7-.4-.5.3-.8-4.5-.9-10.6-.1-7.6.1-9.7.6-6.7.4 2.5.8 3.6.9 2.5.5-4.3 1-5.8 2.2-6.6 1.1-.7.8-6.7-.8-14.9-1-4.9-1.1-12.5-.3-14.5 3.1-7.9 3.2-11.3.6-26.3-.3-1.4.1-2.5.9-2.8 1-.4 1.1-1.2.5-2.9-.5-1.3-.7-2.5-.5-2.7.3-.2-.6-.4-1.8-.5-5.1-.1-5.8-.3-5.1-1.6.6-.8.3-.8-.9.2-1.5 1.1-1.8 1-2.7-1.3L119 0H64zm55.8 65.8c-.7.7-1.2.8-1.2.2 0-1.4 1.2-2.6 1.9-1.9.2.3-.1 1.1-.7 1.7m3.5 25c-.3.7-.5.2-.5-1.2s.2-1.9.5-1.3c.2.7.2 1.9 0 2.5"/><path d="M.4 29.5c-.4.8-.3 3.7.1 6.3.7 5 4.5 16.5 5.2 15.8.2-.2.4-3.1.5-6.5.1-5 .3-5.9 1.4-5s1.8.8 3.1-.2c.9-.8 1.9-1.3 2.2-1.1s.7-.2.9-.8c.3-.9-.1-.9-1.8 0s-2.9.9-4.6.1c-2.7-1.2-2.6-1.3-2.6 5.4.1 2.2-.2 3.1-.5 2s-.9-2.5-1.4-3.1-.5-2.4-.1-4c1-3.6.4-6.7-1-5.8-.7.5-.9-.2-.6-2 .6-2.8.1-3.5-.8-1.1m11.6 4c.7.9 1.5 1.3 1.7 1.1.7-.7-.7-2.6-1.9-2.6-.6 0-.6.6.2 1.5"/><path d="M5 35.1c0 .5.5.7 1 .4.6-.3 1-.8 1-1.1 0-.2-.4-.4-1-.4-.5 0-1 .5-1 1.1M131 43c0 .5.5 1 1.1 1 .5 0 .7-.5.4-1-.3-.6-.8-1-1.1-1-.2 0-.4.4-.4 1M1.1 52.1c0 4.1.4 8.3.8 9.4s.7-2 .5-6.8c-.3-10.8-1.4-13-1.3-2.6m131.8.1c-.6 2.1-.5 3.8.2 3.8.5 0 .9-.9.9-2 0-1.6-.7-2.8-1.1-1.8M9.2 61c0 1.9.2 2.7.5 1.7.2-.9.2-2.5 0-3.5-.3-.9-.5-.1-.5 1.8m46.9 15.6c0 1.1.3 1.4.6.6.3-.7.2-1.6-.1-1.9-.3-.4-.6.2-.5 1.3m2.5.6c.3.5 1 .6 1.5.3 1.3-.9 1.1-1.2-.6-1.2-.8 0-1.2.4-.9.9m-55.3 2c.2 1.5.6 3 1 3.4 1 1 .8-1.7-.3-4.1-.8-1.7-.9-1.6-.7.7m1.3 5.4c-1.1 1.1-1.4 2.3-1 3.8.4 1.1.7 3.3.6 4.8-.2 2.4 1.6 5.2 1.9 3.1.7-3.6.6-7.3-.2-7.3-1.4 0-1.1-3.8.4-4.3.6-.2.9-.7.6-1.1-.4-.4-1.4 0-2.3 1m53.7-.9c-1.5.5-1.7 3.9-.4 4.8.5.3 1.2.1 1.6-.5.3-.5.1-1-.5-1-.8 0-.8-.6 0-2 .6-1.1.9-2 .8-1.9-.2 0-.9.3-1.5.6M46 86.9c0 1.2.5 2.1 1 2.1.6 0 1-.6 1-1.4s-.4-1.8-1-2.1c-.5-.3-1 .3-1 1.4m97.1 8.1c0 4.3.2 5.1 1 3.7.7-1.2.8-3 .1-5.5-1-3.7-1-3.7-1.1 1.8m-86.2.3c0 2.7-.2 2.9-.9 1.2-.5-1.2-.6.4-.2 3.9.3 3.9.2 5.7-.5 5.3-.6-.4-.8.4-.5 2 .4 2.2.2 2.5-1.4 2-1.8-.7-1.8-.6-.1.7 1 .8 1.8 1.7 1.7 2.1s.1 1 .5 1.3c.4.4.6.2.5-.3-.4-1.8 0-4.8.5-4.3 1.8 1.8 2.2 10.1.6 10.6-.6.2-1.1 1-1.1 1.8s-.7 1.1-1.7.8c-1.5-.5-1.6-.4-.3.5 1.1.8 1.8.6 2.8-.7.7-.9 2.1-1.6 3.1-1.4s2.1-.4 2.4-1.2q.6-1.5-.9-.9c-1.1.4-1.4-.4-1.4-3.1 0-2.2.5-3.6 1.3-3.7.6 0 .2-.5-1-1.1-2.5-1.2-2.9-3.4-1.3-5.8.8-1.1.9-.7.5 1.5-.6 2.9-.6 2.9 1.1 1 1.3-1.6 1.6-1.7 1.1-.3-.3 1-.1 2 .5 2.4.7.5.8-1 .2-4.7-.9-6.7-.9-7.9-.1-10.5.6-1.8.3-2.1-2.3-2.2-2.7-.1-3 .2-3.1 3.1M129 99c0 .5.5 1 1 1 .6 0 1-.5 1-1 0-.6-.4-1-1-1-.5 0-1 .4-1 1m14.3 11c0 3 .2 4.3.4 2.7.2-1.5.2-3.9 0-5.5-.2-1.5-.4-.2-.4 2.8m-115 2c0 2.5.2 3.5.4 2.2.2-1.2.2-3.2 0-4.5-.2-1.2-.4-.2-.4 2.3m17.3-1.5c-.3.8-.1 1.5.4 1.5.6 0 1-.7 1-1.5s-.2-1.5-.4-1.5-.6.7-1 1.5m84.4 5.6c0 2.1.4 2.7 1.5 2.3.8-.4 1.5-1.6 1.5-2.8 0-1.4-.6-2.3-1.5-2.3-1 0-1.5 1-1.5 2.8m13.1 5.1c0 2.1.4 3.8.9 3.8.6 0 1-.6 1-1.4s.3-2.3.6-3.3c.5-1.4.4-1.5-.4-.4s-1.1 1-1.5-.5c-.2-1-.5-.2-.6 1.8m-138.9.3c0 1.6.2 2.2.5 1.2.2-.9.2-2.3 0-3-.3-.6-.5.1-.5 1.8m28 .5c0 1.4.2 1.9.5 1.2.2-.6.2-1.8 0-2.5-.3-.6-.5-.1-.5 1.3m13.8-.1c0 2.5.6 2.7 1.3.6.4-.8.2-1.7-.3-2-.6-.4-1 .3-1 1.4m82.1 2.8c0 2.4.4 4.3.9 4.3.6 0 1 1.1 1 2.5s.5 2.5 1.1 2.5c.7 0 .9-1.2.4-3.6-.4-2.6-.2-4 .7-4.6.9-.7.7-.8-.9-.5-1.8.4-2.3 0-2.6-2.2-.3-1.7-.5-1.1-.6 1.6m2.9-2.3c0 .9.5 1.6 1 1.6.6 0 1-.4 1-.9 0-.6-.4-1.3-1-1.6-.5-.3-1 .1-1 .9m-70.4 1.3c-.6 1.4-.5 1.5.5.6.7-.7 1-1.5.7-1.8s-.9.2-1.2 1.2m60.6 2.3c0 1.4.2 1.9.5 1.2.2-.6.2-1.8 0-2.5-.3-.6-.5-.1-.5 1.3M66 128.7c0 2.2.2 2.5 1 1.3 1.3-2 1.3-4 0-4-.5 0-1 1.2-1 2.7m-5.3-1.1c-.4.4-.7 2-.7 3.6 0 1.8-.5 2.8-1.5 2.8-1.8 0-3.9 3.6-2.5 4.5.5.3.7 1.3.4 2.3-.5 1.4-.4 1.4.4.2.6-.8.8-1.8.6-2.2-.3-.4.1-.8.8-.8 1 0 1-.2-.1-.9-.9-.6-1-1.1-.2-1.5.6-.4 1.1-.4 1.1 0s.9-.5 2-1.9c1.4-1.8 1.8-3.1 1.2-4.7-.4-1.1-1.1-1.8-1.5-1.4m-8.7 3.1c0 1.3.5 2.3 1 2.3 1.3 0 1.3-1.1 0-3-.8-1.2-1-1.1-1 .7m69.2 2.3c0 1.9.2 2.7.5 1.7.2-.9.2-2.5 0-3.5-.3-.9-.5-.1-.5 1.8m-91 0c0 1.4.2 1.9.5 1.2.2-.6.2-1.8 0-2.5-.3-.6-.5-.1-.5 1.3m14.5 2.4c-.3.8.1 2 .8 2.6.8.7 1.2 1.6.9 2.1s.2.6 1.1.3c.9-.4 1.3-1.2 1-1.8s-.8-1.9-1.1-2.9c-.8-2.1-2-2.2-2.7-.3m6.9 1.5c.5 2.7.3 3.2-.7 2.5-1.2-.6-1.2-.5 0 .9.7.9 1.9 1.7 2.5 1.6.7 0 .7-.2-.1-.5-.7-.3-1-1.1-.7-1.8s0-2.3-.6-3.7c-.9-2.1-.9-2-.4 1m9.4-.2c0 1-.7 2.7-1.5 3.7-.8 1.1-1.5 2.7-1.4 3.5 0 .9.4.6 1-.8.5-1.3 1.9-3.2 3-4.2 1.2-1 1.8-2.3 1.4-2.8-1-1.7-2.5-1.3-2.5.6M31.2 141c0 1.9.2 2.7.5 1.7.2-.9.2-2.5 0-3.5-.3-.9-.5-.1-.5 1.8m33.8-1.9c0 .5.5.7 1 .4.6-.3 1-.8 1-1.1 0-.2-.4-.4-1-.4-.5 0-1 .5-1 1.1m56-.1c0 .5.5 1 1.1 1 .5 0 .7-.5.4-1-.3-.6-.8-1-1.1-1-.2 0-.4.4-.4 1m-77.8 8.4c.7.8 1.5 1.2 1.7 1.1.5-.6-1-2.5-2-2.5-.5 0-.4.6.3 1.4m5.4 5.4c-.3.5.1.9.9.9s1.5-.4 1.5-.9c0-.4-.4-.8-.9-.8-.6 0-1.2.4-1.5.8"/></g><g fill="#55552a" stroke-width="0"><path d="M5.8 9.7c.2 5.4.7 10.9 1.3 12.3 1.3 3.5.8 9.3-1.1 10.7-.9.8-1.1 1.2-.3 1.3.6 0 1.4-.4 1.7-.8.2-.4 1.7-.8 3.3-.7 2.3 0 2.9.5 3.4 3l.7 3L15 35c.3-3.9.3-3.5-1.2-10-1.3-5.8-1.9-23-.7-23 .5 0 .8 1 .7 2.2 0 1.3.8 4.5 1.8 7.3 1.3 3.2 1.9 7.2 1.9 11.2-.1 3.9.3 6.3.9 6.3.7 0 .7.3.1.8-1.7 1.2-1.2 5.9.7 7.1 1.1.7 1.8.7 1.8.1 0-.5.5-1 1-1 1.2 0 .3 4.8-1.3 6.7-.6.9-.6 1.3.1 1.3.6 0 1.3-.6 1.5-1.3.3-.6.6-.3.6.8.1 1.5.3 1.7 1 .6.5-.8.9 1.8.9 6.5.1 4.4.6 13.3 1.3 19.9.6 6.6 1.1 19.2 1.1 28v16l1-13.3c.8-10.9 1.3-13 2.3-11.6 1.1 1.6 1.2 1.6 1.8 0 .4-1 1.1-1.4 1.7-1.1 1.1.7 1.4-3.4.4-5.9-.7-1.8-3.4-2.2-3.4-.5 0 .5-.4.7-1 .4-1.4-.9-.9-7.3.7-8.6.7-.6 1.3-2.6 1.3-4.5 0-1.8.4-3.6 1-3.9.5-.3 1-1.8 1-3.2 0-2-.3-2.3-1.3-1.5-2.1 1.8-3.8-.1-3.1-3.6.4-1.7.9-3 1.3-2.8.7.5.5-7-.3-9.1-.3-.7-1-1.3-1.7-1.3-.6 0-.9.6-.6 1.3s-.4 2.4-1.4 3.8c-1 1.3-1.9 1.9-1.9 1.2 0-.6.4-1.4.9-1.7.4-.3.7-3 .6-6.1-.1-3 .2-5.5.7-5.5.9 0 .5-3.5-.8-8.3-.3-.9-1.4-1.7-2.5-1.7-2.5 0-3.5-2.5-2.1-5.5.6-1.3.7-2.7.3-2.9-1.3-.9-1.9-5.2-.9-7 .5-.8.6-3.8.2-6.6l-.7-5H11v4.1c0 2.5-.4 3.8-1 3.4s-.8-2.1-.4-4.1C10.2.3 10 0 7.9 0 5.5 0 5.5.1 5.8 9.7m113.9-8c1.1 3.2 1.5 3.4 3.1 2.1 1.2-1 1.4-1 .8-.1-.7 1.3 0 1.5 5.1 1.6 1.2.1 2.1.3 1.8.5-.2.2 0 1.4.5 2.7.6 1.7.5 2.5-.5 2.9-.8.3-1.2 1.4-.9 2.8 1.9 10.7 2.4 17.5 1.4 19.6-.5 1.3-1 3.2-1 4.3s-.4 1.8-.9 1.5c-.8-.5-.7 10.8.2 15.4 1.6 8.1 1.9 14.2.8 14.9-1.2.8-1.7 2.3-2.2 6.6-.1 1.1-.5 0-.9-2.5-.5-3-.7-.9-.6 6.7.1 6.1.4 10.9.7 10.7.4-.2.9.6 1.3 1.9.8 3.1.6 4.6-.3 2.2-.7-1.7-.9-1.5-1.3 1.2-.2 1.8-.1 3 .3 2.8.4-.3.9 1.2 1.2 3.3 2.1 15.1 5.5 13.1 6-3.6.1-3.9.6-7.2 1.1-7.2.4 0 .6-1.4.4-3.1-.4-2.2.1-3.4 1.5-4.4 3.9-2.7 4.2-1.3 4.3 17.3 0 9.7.4 20.8.9 24.7.8 6.8.9 6.9 1.6 3 .4-2.2.3-4.2-.2-4.3-.5-.2-.8-4.9-.7-10.5.1-7.1.3-8.2.5-3.7.2 3.6.6 8.1.9 10 .5 3 .8 3.2 1.4 1.5 1.2-2.9 1.2-5.7 0-5-.6.4-1-.7-1-2.5s.4-2.9 1-2.5 1-19.3 1-56V0h-14c-12.8 0-13.9.1-13.3 1.7M132.5 43c.3.5.1 1-.4 1-.6 0-1.1-.5-1.1-1 0-.6.2-1 .4-1 .3 0 .8.4 1.1 1m1.5 11c0 1.1-.4 2-.9 2-.7 0-.8-1.7-.2-3.8.4-1 1.1.2 1.1 1.8m10.1 44.7c-.8 1.4-1 .6-1-3.7.1-5.5.1-5.5 1.1-1.8.7 2.5.6 4.3-.1 5.5M131 99c0 .5-.4 1-1 1-.5 0-1-.5-1-1 0-.6.5-1 1-1 .6 0 1 .4 1 1M87 3c0 .6.7 1.3 1.5 1.6.8.4 1.2 1 .9 1.6-.3.5-1.1.5-1.9-.2s-1.6-.7-1.9-.2c-.8 1.3 1.7 2.2 4.2 1.5 1.3-.3 1.8-1.1 1.5-1.9s0-1.4.6-1.4S93 3.5 93 3c0-.6-1.3-1-3-1-1.6 0-3 .5-3 1M4.1 5.6c0 1.1.3 1.4.6.6.3-.7.2-1.6-.1-1.9-.3-.4-.6.2-.5 1.3m91.2 1.9c1.1.7 2.5 1.1 3.3.8 2.5-1 1.5-2.3-1.8-2.3-3.1.1-3.2.2-1.5 1.5M81 9c0 .5.5 1 1 1 .6 0 1-.5 1-1 0-.6-.4-1-1-1-.5 0-1 .4-1 1m-3.5 4.9c-.4 1.3-1.5 2.1-2.7 2.1s-1.8.3-1.4.7c1.3 1.3 3 .9 5-.9 1.5-1.3 1.7-2.1.9-2.9s-1.3-.5-1.8 1"/><path d="M6.2 45.1c-.1 3.4-.3 6.3-.5 6.6-.3.2-1.2-1.5-2-3.9-1.4-3.8-1.6-4-1.6-1.5-.1 1.6.4 3.7.9 4.7.7 1.3.7 2.1 0 2.5-.5.3-1 2-1 3.7 0 2.6.3 3 2.1 2.5 1.5-.4 2.3.1 3.2 2.1l1.1 2.7.4-3.2c.2-1.7 1-3.7 1.8-4.3.8-.7 1.4-2 1.4-2.9-.1-1.4-.2-1.4-1.4.2-1.2 1.5-1.4 1.6-2 .2-.3-.8-.1-1.5.4-1.5.6 0 1-1.2 1-2.7 0-1.4.3-2.3.7-1.9.6.6 3.2-6.3 3.3-8.6 0-.8-2.1-.5-3.8.6-.7.4-1.9.3-2.6-.3-1.1-.9-1.3.1-1.4 5M53 41.9c0 .6.4 1.3 1 1.6s.7-.1.4-.9c-.7-1.8-1.4-2.1-1.4-.7m-38.3.8c-1.2 1.1-.8 2.3.8 2.3.8 0 1.5-.7 1.5-1.5 0-1.6-1.2-2-2.3-.8m37.5 3.9c-.7.8-.8 1.4-.3 1.4 1 0 2.5-1.9 2-2.5-.2-.1-1 .3-1.7 1.1M9.8 62.5c-.6 3-.3 4.3.8 3.3.3-.4.4-1.9.2-3.5l-.3-2.8z"/><path d="M3.8 62.7c-.2.5-.1 2.4.3 4.3.5 3 .7 3.1.8.8 0-1.4.4-3.3.7-4.2.6-1.6-1.1-2.3-1.8-.9m50.5 2.4c.9.6 1.5 1.4 1.3 1.8-.3.4.1.8.8.8 1.1 0 1.2-.4.3-1.9-.7-1-1.9-1.8-2.7-1.8-1.2.1-1.1.3.3 1.1m66.4 2.6c-.4.3-.7 1.1-.7 1.7s.5.5 1.2-.2c.6-.6.9-1.4.7-1.7-.3-.3-.9-.2-1.2.2M4.4 72.9c0 1.1.4 1.7.8 1.5.4-.3.8.3.8 1.3 0 1.4.2 1.5.9.4.5-.7 1.4-1 2.1-.6.8.5 1.1 0 .8-1.6-.4-3.2-5.4-4.1-5.4-1m52.6-.8c0 .5.5.7 1 .4.6-.3 1-.8 1-1.1 0-.2-.4-.4-1-.4-.5 0-1 .5-1 1.1m-18.9 2.5c0 1.1.3 1.4.6.6.3-.7.2-1.6-.1-1.9-.3-.4-.6.2-.5 1.3m-5.6 2.3c-.7 1.2 1.2 2.4 2.5 1.6 1.1-.7.4-2.5-1-2.5-.5 0-1.1.4-1.5.9M46 78.4c0 1.3-.7 2.9-1.5 3.6-1.1.9-1.2 1.7-.4 3.2s.8 1.9 0 1.4c-.6-.4-1.1-.1-1.1.8 0 .8.5 1.8 1 2.1.6.3 1 1.6 1 2.8.1 2.9 2 5.4 4.3 5.4 1.8 0 2.4-3.2.7-4.2-.5-.3-1-.1-1 .4 0 .6-.7 1.1-1.5 1.1-1.7 0-2.1-3.5-.5-4.5.6-.3 1-.1 1 .6s.3.9.7.5c1.1-1.1 1.3-7.7.2-7.1-.5.4-.9-.1-.9-1s-.4-1.4-.9-1c-.6.3-.7-.9-.4-3 .3-1.9.3-3.5-.1-3.5-.3 0-.6 1.1-.6 2.4m2 9.2c0 .8-.4 1.4-1 1.4-.5 0-1-.9-1-2.1 0-1.1.5-1.7 1-1.4.6.3 1 1.3 1 2.1m0-9.6c0 1.1.5 2 1 2 .6 0 1-.9 1-2s-.4-2-1-2c-.5 0-1 .9-1 2m3.2 1c0 1.9.2 2.7.5 1.7.2-.9.2-2.5 0-3.5-.3-.9-.5-.1-.5 1.8m-46.3-.5s-.2 1.2-.3 2.8c-.1 1.9.2 2.6 1.1 2.3.7-.3 1.3-.1 1.3.4 0 .6-.4 1-1 1-.5 0-1 .9-1 2 0 3.2 1.7 2.3 2.4-1.2.4-2 .2-3.4-.6-3.9-.9-.6-.8-1 .5-1.5 2.3-.9 2.2-2.3-.3-2.1-1.1.1-2 .1-2.1.2"/><path d="M40.8 85.5c-.5.6 0 9.1.8 11.3.2.7.8 1 1.4.7.6-.4 1 1 1 3.4 0 3.2-.3 3.9-1.5 3.5-2-.8-1.9 1.6.1 6 1.1 2.1 2.2 3.2 3.1 2.9.8-.3 1.2 0 1 .8s-.2 1.1 0 .6c.3-.4 1.1-.7 1.9-.7s1.4-.5 1.4-1.1c0-.5-.4-.7-1-.4-.5.3-1-.2-1.1-1.2 0-1-.3-1.3-.6-.6-.9 2.4-1.8 1.3-2-2.5-.2-2 .2-4.7.8-5.9 1.4-2.7.5-5.3-2-6-1.6-.4-1.9-1.4-1.9-5.5-.1-5-.4-6.3-1.4-5.3m4.2 23.6c0 .6-.4.7-1 .4-.5-.3-1-1.1-1-1.6 0-.6.5-.7 1-.4.6.3 1 1.1 1 1.6m93.1-22.5c0 1.1.3 1.4.6.6.3-.7.2-1.6-.1-1.9-.3-.4-.6.2-.5 1.3m-85.8 3.1c-1.7.6-1.7 4.2 0 4.9 1.4.5 1.1 8.1-.4 9.9-.5.7.1 1.1 1.8 1.1 2.5 0 2.5 0 1.9-6.5-.4-3.7-1.1-6.7-1.6-6.9s-.6-1-.3-1.8c.5-1.5.5-1.5-1.4-.7m2.4 12.5c-.3.8-.6.5-.6-.6-.1-1.1.2-1.7.5-1.3.3.3.4 1.2.1 1.9M7 90c-.1.3-.3 1.6-.5 3s-.8 4.3-1.4 6.5-1 6.9-.9 10.5l.1 6.5.8-8c.4-4.4 1.3-9.6 2-11.6.6-2 .9-4.4.6-5.5-.2-1-.6-1.7-.7-1.4m117.2 3c0 1.4.2 1.9.5 1.2.2-.6.2-1.8 0-2.5-.3-.6-.5-.1-.5 1.3m-92.4 4.7c-.4 3.4.6 15.6 1.1 14.3.8-1.6.9-18 .2-18-.4 0-1 1.7-1.3 3.7m89.2 8.8c0 .8.7 1.5 1.5 1.5 1.8 0 3.8 3.7 3.2 5.9-.2 1.1.1 1.8 1 1.8 1.4 0 1.3-3.5-.3-9-.7-2.1-5.4-2.4-5.4-.2m-62.9 1.1c-.1 1.2.6 2.4 1.4 2.8.8.3 1.5.1 1.5-.3 0-.5.3-1.8.6-2.8.5-1.6.4-1.6-.7.2-1.2 1.9-1.2 1.9-2 0-.7-1.9-.8-1.9-.8.1m-7.5 1c-.8 2.1-.8 2.1.8 2.1.8 0 1.1-.8.8-1.9-.5-2.2-.8-2.3-1.6-.2m66.6 3.4c0 1.9.2 2.7.5 1.7.2-.9.2-2.5 0-3.5-.3-.9-.5-.1-.5 1.8"/><path d="M120.8 109.5c-.8.8.1 13 1.1 15.6.8 1.8 1 .1.8-6.8-.2-8.6-.5-10.1-1.9-8.8m-66.2 4.8c.3 1 .9 1.5 1.2 1.2s0-1.1-.7-1.8c-1-.9-1.1-.8-.5.6M32.2 118c0 1.4.2 1.9.5 1.2.2-.6.2-1.8 0-2.5-.3-.6-.5-.1-.5 1.3m9.8-1c0 .5.5 1 1 1 .6 0 1-.5 1-1 0-.6-.4-1-1-1-.5 0-1 .4-1 1m90 1c-1.2.8-1.3 1.3-.2 3 1.5 2.4 1.6 5 .1 5-.7 0-.8 1.4-.4 4s.3 4-.4 4c-.6 0-1.1-1.1-1.1-2.5s-.4-2.5-1-2.5c-1.5 0-1.2 4.6.4 6 .8.6 1.7 2.1 1.9 3.3.3 1.7.5 1.6.7-.8.3-2.8.3-2.7 1 1 .5 2.7.8-.3.8-8.8 0-7-.1-12.7-.2-12.7zm-4.7 4.5c0 2.7.2 3.8.4 2.2.2-1.5.2-3.7 0-5-.2-1.2-.4 0-.4 2.8m-100 3c0 3.8.2 5.3.4 3.2.2-2 .2-5.2 0-7-.2-1.7-.4-.1-.4 3.8m16.7-5.3c0 .7.5 2 1 2.8.8 1.2 1 1 1-.8 0-1.3.4-2 1-1.7s1 .1 1-.4c0-.6-.9-1.1-2-1.1s-2 .6-2 1.2m18.1-.3c-.1.8-.8 1.1-2.1.8s-2 0-2 .8c0 .9.8 1.2 2.1 1 2.7-.5 3.2-1.1 2.6-2.7-.4-1-.6-1-.6.1m-21.5 1.8c-.3.4-.6 1.5-.6 2.5 0 1.6.3 1.7 2 .8 1.1-.6 2-1.5 2-1.9 0-1.1-2.6-2.2-3.4-1.4m15.1 3.5c.7 4.4 1.3 4.9 1.3 1 0-1.7-.4-3.3-.9-3.6-.5-.4-.7.8-.4 2.6m-3.4-.8c.1 1.1.9 2.1 1.7 2.3 1 .3 1.1.2.4-.4-.6-.4-1.4-1.5-1.7-2.3-.5-1.1-.6-.9-.4.4m5.7 4.5c0 3.4.5 5.1 1.5 5.4 1.1.5 1.2.1.4-2-.7-1.8-.6-3 .3-4 1-1.3 1.3-1.3 2 .4.6 1.3.7 1.1.5-1.1-.1-2.2-.8-3-2.4-3.2-2.1-.4-2.3 0-2.3 4.5m60.2-2.9c0 1.4.2 1.9.5 1.2.2-.6.2-1.8 0-2.5-.3-.6-.5-.1-.5 1.3m-75.1 3.6c0 1.1.3 1.4.6.6.3-.7.2-1.6-.1-1.9-.3-.4-.6.2-.5 1.3m75.9-.1c-.9 4-.7 6.5.3 6.5.7 0 1.8.9 2.5 2 .7 1.3.8 2 .2 2s-1.3-.7-1.6-1.5c-.8-2-2.4-1.9-2.4.2 0 .9.3 1.3.7 1 1.3-1.3 3.3 1.6 3.3 4.8 0 2.4-.5 3.5-1.7 3.8-1.4.4-1.2.5.5.6 2 .1 2.2-.4 2.2-4.4 0-2.9.4-4.5 1.3-4.5.6 0 .4-.5-.6-1.1-1.2-.7-1.6-1.8-1.3-3.2.3-1.2.3-1.7 0-1s-1.2.9-2 .6c-.9-.3-1.2-.9-.7-1.2s.6-1.7.2-3.1-.8-2.1-.9-1.5m-78.8 4.8c0 2.6.2 4.6.4 4.4.9-.8 1.1-6.6.3-7.9-.5-.8-.8.6-.7 3.5m-10.1 4.9c0 2.6.3 4.9.7 5.2.4.2.6-1.2.4-3.2-.6-6.2-1-6.9-1.1-2m18.1-1.2c.7 1 1.4 1.7 1.7 1.5.2-.3 1 0 1.8.7.7.6 1.6.8 2 .4.3-.3.1-.6-.5-.6-.7 0-1.2-.7-1.2-1.6 0-.8-.4-1.3-.9-.9-.5.3-1.2.1-1.6-.5-.3-.5-1-1-1.6-1-.5 0-.4.9.3 2m17.7 1.2c-.5 1.7-.4 4.8.3 4.8.4 0 .8-1.1.8-2.5 0-2-.7-3.4-1.1-2.3m19.8 1.3c.3.8.9 1.2 1.4.9 1.2-.7 1.1-1.1-.5-1.7-1-.4-1.3-.1-.9.8m-47.4 2.2c-.7.2-1.3 1.3-1.3 2.3s.6 2.2 1.3 2.6c.6.4.9.4.5 0-.4-.5-.3-1.9.2-3.2s.8-2.4.7-2.3c-.1 0-.8.3-1.4.6M59 145c0 3.2 1.4 4 2.4 1.4 1-2.7.7-4.4-.9-4.4q-1.5 0-1.5 3m-27.8 3c0 1.4.2 1.9.5 1.2.2-.6.2-1.8 0-2.5-.3-.6-.5-.1-.5 1.3m33.5-1.3c-.4.3-.7 1.3-.7 2.2.1 1.3.3 1.3 1.1-.2 1.1-1.9.8-3.3-.4-2m-21.6 2c-.1 1.2-.7 2.4-1.3 2.6q-1.5.6 0 .6c1.5.1 2.6-2.3 1.9-4.1-.3-.7-.6-.3-.6.9m19-.1c0 1.1.3 1.4.6.6.3-.7.2-1.6-.1-1.9-.3-.4-.6.2-.5 1.3M35.8 151c-.7 2.4-.3 3.8.8 2.8.3-.4.4-1.7.2-3l-.3-2.3zm22.3.4c-1 1.2-.8 1.3.8.9 1.2-.3 2.1-.9 2.1-1.4 0-1.4-1.6-1.1-2.9.5m62.2-.3c.9.5 1.7 1.7 1.7 2.6 0 1.2.3 1.4 1 .7 1.6-1.6.1-4.4-2.4-4.4-1.9.1-1.9.2-.3 1.1m-69.2 1.5c0 1.1.3 1.4.6.6.3-.7.2-1.6-.1-1.9-.3-.4-.6.2-.5 1.3m-6.1.1c.8.3 1.8 1.1 2.2 1.7.5.7.8.4.8-.7s-.7-1.7-2.2-1.6c-1.6 0-1.8.2-.8.6"/></g><g fill="#552a00" stroke-width="0"><path d="M9.6 3.2c-.3 1.7-.2 3.6.4 4.2.7.7 1-.4 1-3.2 0-5-.5-5.4-1.4-1m2.5 8.4c0 3.8.4 8.2.9 9.9 2.7 9.4 2.8 13.4.6 20.5-.8 2.4-.7 2.4.7.6 1.4-1.9 1.4-1.9 2.5 0 1.4 2.5 4.3.9 5.4-3.1.8-3.1.2-4.7-1-2.8-.5.8-1.1.8-2.2 0-1.7-1.4-2-5.8-.5-6.9.6-.5.6-.8-.1-.8-.6 0-1-2.4-.9-6.3.1-5.8-2.3-14.8-4.5-17.1-.5-.5-.9 2.2-.9 6"/><path d="M22.1 44.6c-.1 1.9-.6 2.2-4.8 2-4.1-.1-5 .2-6 2.3-1.5 2.8-1.6 3.4-.4 2.7 1.3-.8 2.2 6.4 1.1 8.5-.6 1-1 2.7-1 3.8 0 2.5-1.8 2.8-2.7.5-.3-.8-1.2-1.3-1.9-1s-1.6.1-1.9-.4c-.4-.6.1-1 .9-1 .9 0 1.6-.5 1.6-1 0-.6-.9-1-2-1-2.1 0-2.8 2.4-1 3.5.6.3 1 2.1 1 4 0 2.7.4 3.4 2.3 3.7 1.4.2 2.3 1.1 2.5 2.7.2 1.4 0 2.1-.6 1.7s-1.3-.2-1.6.2c-.3.5.4.9 1.7.8 1.8-.1 2.3-1 3.2-5.3.5-2.8 1.3-5.5 1.8-5.9 1.1-1.1.9-4.6-.3-3.9-.5.3-1 .1-1-.4 0-.6.9-1.1 2-1.1s2-.5 2-1.1c0-.8.5-.8 1.5.1.8.7 1.5 2.1 1.5 3 0 1 .4 2 .9 2.2.5.1 1.2 3.7 1.5 7.7.4 4.1 1.1 7.8 1.7 8.1.6.4 1.4 2.9 1.9 5.6.8 4.4.9 4.3.4-2.1-.2-3.9-.8-10.6-1.2-15s-.6-12-.6-16.8c.1-4.9-.2-8.3-.6-7.7-.6.9-.9.9-1.3-.1-.3-.9-.6-.5-.6.7M4.5 76c0 1.5.3 2.6.7 2.3 1-.6 1-4 0-4.7-.4-.2-.8.8-.7 2.4m3 4.9c-.3.5-.1 1.2.5 1.6.5.3 1-.1 1-.9 0-1.8-.6-2.1-1.5-.7m132 4.1c.3.5 1 1 1.6 1 .5 0 .9-.5.9-1 0-.6-.7-1-1.6-1-.8 0-1.2.4-.9 1M7.6 91.1c.4 3.7.3 5.9-.5 6.3-.6.4-1 2.2-1 3.9.1 2.4.3 2.6.6.9.2-1.2.8-2.2 1.3-2.2 1.4 0 1.7-8.4.3-11.5-1.2-2.8-1.2-2.6-.7 2.6m34.9.9c-.5 1.5-.2 2.5.6 3.1 1 .6 1.5.2 1.7-1.2.5-3.1-1.4-4.6-2.3-1.9m96.5-.4c0 1.4-.3 1.4-1.5.4-1.1-.9-1.5-.9-1.5-.1 0 .7-.3 1-.7.8-.5-.3-.9 2.7-1 6.6-.1 4-.5 9.7-.8 12.7-.4 3.9-.3 5.1.4 4 .6-.8 1.1-2.9 1.2-4.5 0-1.7.5-3.9 1-5 .7-1.5.8-1.2.3 1.2-.3 1.8-.1 4 .5 5 .9 1.6 1 1.6 1.1-.4 0-3 2-4 2-1.1 0 1.8.2 2 1 .8.5-.8.8-4.9.5-9-.2-4.1-.5-8.7-.5-10.3 0-1.5-.4-2.7-1-2.7-.5 0-1 .7-1 1.6M26 95.2c-.3 2.6-.1 4.3.3 3.9.5-.5.7-2.6.5-4.7l-.3-3.9zm20.7 6c-.8 1.8-1.8 4.5-2.1 6.1-.6 2.7-.6 2.7 1.2 1 1-1 1.8-2 1.6-2.3-.1-.3.2-1.2.8-2 .8-1.3.9-1.2.5.1-.3.9 0 2.2.6 2.8.9 1 .9 1.2-.3.9-.8-.2-1.5.3-1.4.9.3 3.8.5 4.2 2.3 3.8 1.4-.2 2 .3 2.4 2.1.3 1.8 0 2.4-1.4 2.4-1 0-2.3-.9-2.9-1.9-1-1.9-5-2.5-5-.8 0 1.8 2.1 4.7 3.5 4.7.9 0 1.5 1 1.5 2.6 0 2-.4 2.5-2.2 2.2-1.7-.2-2.4.3-2.6 1.9-.2 1.3.2 2.3.8 2.3s.9-.4.5-1c-.6-1 4.7-.6 6.5.5.6.4.8-.6.4-2.9-.4-3.1-.3-3.5 1.2-2.9 1.3.5 1.5.3.9-.8-.8-1.2-.6-1.2.8 0 1.5 1.2 1.7 1.1 1.7-1.2 0-2.8-1.9-7.8-3.4-8.9-.5-.3-1.6-.3-2.5 0-1.3.5-1.4.3-.4-.9 1.4-1.8 1.2-11.1-.4-11.6-.6-.2-1.8 1.1-2.6 2.9M47 115c0 .5-.5 1-1.1 1-.5 0-.7-.5-.4-1 .3-.6.8-1 1.1-1 .2 0 .4.4.4 1m7.1-13.4c0 1.1.3 1.4.6.6.3-.7.2-1.6-.1-1.9-.3-.4-.6.2-.5 1.3M5.2 108c0 1.4.2 1.9.5 1.2.2-.6.2-1.8 0-2.5-.3-.6-.5-.1-.5 1.3m117.9 12.9c0 7.7.3 13 .8 12.7.5-.4.7-1.6.4-2.9-.4-1.6-.3-1.9.6-1.1 2.7 2.5 2.2 8.4-.8 8.4-1.4 0-1.4.2-.1 1 1.2.7 1.2 1.2.2 2.2-.6.6-1.2 3-1.2 5.3.1 3.5.2 3.7 1.2 2 .6-1.1 1.7-2.4 2.5-2.8.7-.4 1.3-2.3 1.3-4.2 0-3.7 1.6-5.6 2.3-2.8.4 1.6.5 1.6.6-.1 0-1.1-.6-2.7-1.5-3.7-1.1-1.2-1.8-4.5-2.1-10.3-.3-4.8-1-8.6-1.6-8.6-.5 0-.7-.8-.5-1.8.3-1.1 0-2.9-.7-4.2-1-1.9-1.3-.2-1.4 10.9m21.9-6.3c0 1.4.4 2.3.9 2s.7-1.5.4-2.6c-.7-2.8-1.3-2.5-1.3.6"/><path d="M49 115c0 .5.5 1 1 1 .6 0 1-.5 1-1 0-.6-.4-1-1-1-.5 0-1 .4-1 1m92.1 7.6c.1 2.7.5 6 .9 7.4.5 1.5.6-.2.3-4.5-.7-8.3-1.3-9.9-1.2-2.9m4.5.9c-.3.9-.6 2.2-.5 2.8 0 .7.5.1 1-1.2s.8-2.6.5-2.8c-.2-.2-.6.3-1 1.2m-91.2 2.9c-.9 1-.9 2.5.1 6.1.9 3.9 1.3 4.4 1.6 2.4.2-1.3.2-4-.1-6-.4-2.8-.8-3.4-1.6-2.5m-8.4 1.8c-2.3.9-2.4 1-.7 2.2.9.7 1.7 2.2 1.7 3.2 0 1.1.9 2.5 2 3.2 1.8 1.1 2 1 2-1 0-1.3.3-3.3.6-4.5.8-2.8-2.1-4.4-5.6-3.1m96.5 8.8c.2 1.4.5 2.9.5 3.3 0 .5.5.5 1 .2.6-.3 1-1.5 1-2.6s-.4-1.8-.9-1.5c-.5.4-1.2 0-1.5-.6-.4-.7-.4-.2-.1 1.2M62 141.2c0 1.3-.2 4.1-.5 6.3-.5 3.8-.4 3.9.5 1 1.6-4.6 2.1-9.5 1-9.5-.5 0-1 1-1 2.2m69.6.6c-.4 1.8-.5 3.6-.2 3.9 1.1 1.2 1.7-.5 1.4-3.9l-.3-3.3zm2.5 2.8c0 1.1.3 1.4.6.6.3-.7.2-1.6-.1-1.9-.3-.4-.6.2-.5 1.3M30.2 146c0 1.4.2 1.9.5 1.2.2-.6.2-1.8 0-2.5-.3-.6-.5-.1-.5 1.3m7.5.7c-.4.3-.7 1.2-.7 2 0 1.1.5 1.1 2 .3 1.6-.9 2-.8 2 .7 0 1.3.3 1.4 1.2.5 1-1 .8-1.6-.5-2.9-1.1-1.1-1.7-1.3-1.7-.5 0 .7-.5 1.2-1.1 1.2-.5 0-.7-.5-.4-1 .7-1.1.2-1.3-.8-.3m85.9 6.8c-.3.8-.1 1.5.4 1.5.6 0 1-.7 1-1.5s-.2-1.5-.4-1.5-.6.7-1 1.5"/></g><path fill="#805555" d="M98 8.3c0 .3.7 1.8 1.5 3.3 1.1 2.1 1.5 2.4 1.5 1.1 0-1-.7-2.5-1.5-3.3-.8-.9-1.5-1.3-1.5-1.1m-28.6 6.1c.1 1.7.7 2.1 3 1.9 3.5-.3 5.3-1.7 3.5-2.8-.7-.5-1-.4-.6.2s-.5 1-2.2.9c-2-.1-2.6-.5-2-1.2.5-.7.4-1.1-.5-1.1-.7 0-1.3 1-1.2 2.1m-3.9-.3c-1.1 1.6-.1 1.9 1.3.3.7-.8.8-1.4.3-1.4s-1.3.5-1.6 1.1m38 3.9c2.1 2.4 2.6 2.5 1.9.6-.3-.8-1.3-1.7-2.2-2.1-1.3-.5-1.3-.2.3 1.5m-26.9.9c-.3.5 0 1.3.7 1.9 1 .8 1.3.6 1.3-.9 0-2-1.1-2.5-2-1m42.7 11.6c0 2.7.2 3.8.4 2.2.2-1.5.2-3.7 0-5-.2-1.2-.4 0-.4 2.8m-65.1 3c0 1.6.2 2.2.5 1.2.2-.9.2-2.3 0-3-.3-.6-.5.1-.5 1.8m-2.8.3c.2.4-1.1.6-3 .4-2.2-.3-3.4 0-3.4.8 0 .7-.6 1-1.4.7-.9-.4-1.3 0-1.1 1.1.1.9.8 1.6 1.4 1.4.6-.1 1.1 1.1 1.1 2.8 0 2.6.4 3 2.6 3 1.5 0 3.5-1 4.5-2.2 2.5-2.8 2.4-3.6-.1-1.3-1.1 1-2.3 1.5-2.7 1.1-.4-.3.3-1.5 1.5-2.6 2.3-2.1 3-6 1.1-6-.5 0-.8.4-.5.8m73.7 4.8c0 1.1.3 1.4.6.6.3-.7.2-1.6-.1-1.9-.3-.4-.6.2-.5 1.3M39 41c-.9.6-1 1-.3 1 .6 0 1.5-.5 1.8-1 .8-1.2.4-1.2-1.5 0m87.1 1.6c0 1.1.3 1.4.6.6.3-.7.2-1.6-.1-1.9-.3-.4-.6.2-.5 1.3M42 45.4c0 1.4.5 2.8 1 3.1.6.3 1-.5 1-1.9s-.4-2.8-1-3.1-1 .5-1 1.9m-7 13c0 .8.4 1.7.9 2 .5.4.7-.3.4-1.4-.6-2.3-1.3-2.6-1.3-.6m82 8.5c0 .6.5 1.3 1 1.6.6.3 1-.1 1-.9 0-.9-.4-1.6-1-1.6-.5 0-1 .4-1 .9m-78.8 2.6c.4.4.3 1.4-.4 2.2-.6.7-.9 1.5-.7 1.8.3.2 1-.4 1.7-1.5.9-1.5.9-2.1-.1-2.6-.6-.4-.9-.4-.5.1M55 75.3c0 2 .4 3.7.8 3.7.9 0 .7-5.8-.2-6.7-.3-.4-.6 1-.6 3m2.9-3.1c-.6 2.1-.5 3.8.1 3.8.5 0 .8-.9.7-2-.1-1.7-.5-2.6-.8-1.8m5.6 3.8c-.4.6-1 .8-1.5.5s-1.1-.1-1.5.5c-.3.5 0 1 .9 1 .8 0 1.6.3 1.9.7.2.5.3.3.1-.3-.1-.6.3-1.7.9-2.3s.8-1.1.5-1.1c-.4 0-1 .5-1.3 1m55.6.6c0 1.1.3 1.4.6.6.3-.7.2-1.6-.1-1.9-.3-.4-.6.2-.5 1.3m-54.5 5.9c.4.8 1.3 1.5 2.1 1.5 1.2 0 1.2-.2-.1-1.5-.8-.8-1.7-1.5-2-1.5s-.3.7 0 1.5m54.9 2.4c-.3 1-.1 2.9.4 4.2.9 2.1 1 1.9 1-1.9.1-4.5-.4-5.4-1.4-2.3m-59.2 2c-1 1.6-.9 1.8.8 1.4 2.4-.7 2.4.4.2 3.1l-1.7 2.1 2.2-2c1.5-1.4 2-2.7 1.6-4.3-.8-2.7-1.6-2.8-3.1-.3m61 9.1c-.1 1.1.2 1.8.8 1.5 1.1-.7 1.2-3.5.1-3.5-.4 0-.8.9-.9 2M39 98.7c0 .6.8 1.7 1.8 2.4 1.6 1.3 1.6 1.3.2-.6-.8-1.1-1.6-2.2-1.7-2.4q-.3-.3-.3.6m23 5.2c0 .6.5 1.3 1 1.6.6.3 1-.1 1-.9 0-.9-.4-1.6-1-1.6-.5 0-1 .4-1 .9M28.2 106c0 1.4.2 1.9.5 1.2.2-.6.2-1.8 0-2.5-.3-.6-.5-.1-.5 1.3m33.6 4.7c.7.3 1.6.2 1.9-.1.4-.3-.2-.6-1.3-.5-1.1 0-1.4.3-.6.6m-.2 6.9c-1.1.8-1.6 1.4-1 1.4 1.3 0 3.9-1.8 3.4-2.4-.3-.2-1.4.2-2.4 1m5.6 6.4c0 1.4.2 1.9.5 1.2.2-.6.2-1.8 0-2.5-.3-.6-.5-.1-.5 1.3m52.4 5.3c.3 1 .9 1.5 1.2 1.2s0-1.1-.7-1.8c-1-.9-1.1-.8-.5.6m-52.5 12.3c0 1.1.3 1.4.6.6.3-.7.2-1.6-.1-1.9-.3-.4-.6.2-.5 1.3"/><g fill="#808055" stroke-width="0"><path d="M62.7 2.2c-.3.8-2.6 2-5.1 2.7-2.5.6-4.6 1.6-4.6 2.2s-.7 1.7-1.5 2.5c-1 1.1-1.2 2.1-.5 3.8.5 1.3.6 2.7.3 3-.4.3-.1.6.5.6.7 0 1.1.3 1.1.7-.3 1.9.2 3.4.9 2.9.5-.3.9.1.9.7 0 .7-.9 1.4-1.9 1.4-1 .1-1.8-.3-1.8-.8 0-.6-.8-.6-2 .1-1.1.6-2 .7-2 .3s-.5 0-1.1 1c-.6.9-1.4 1.5-1.8 1.2-1.1-.6-.3 5.5.9 7 .5.6.6 1.6.2 2.1-.4.4.1.2 1.1-.5.9-.7 1.7-.9 1.7-.3 0 .5.9 1.2 2 1.5s1.8.1 1.4-.4c-.3-.5 0-.9.5-.9 1.9 0 1.2 3.9-1.1 6-1.2 1.1-1.8 2.3-1.4 2.7.3.4 1.5-.2 2.6-1.3 1.4-1.4 2-3.6 2.2-8.1.2-3.3.6-5.6 1-5 .7 1.1 1.3-.4.9-2.6 0-.4.4-.7.9-.7.6 0 1-.7 1-1.5 0-.9 1.1-2 2.5-2.7 1.3-.6 2.2-1.6 1.8-2.1-.4-.6 0-.8.9-.4 1.6.6 2.8-3.4 2.8-9.9 0-3.7-2.4-7.5-3.3-5.2m1.9 5.4c-.3.9-.6 2.1-.6 2.7 0 1.6-2.3-.9-2.6-2.8-.1-.9.6-1.5 1.8-1.5 1.4 0 1.8.5 1.4 1.6M25 4.4c0 .9.5 1.6 1 1.6.6 0 1-.4 1-.9 0-.6-.4-1.3-1-1.6-.5-.3-1 .1-1 .9m9.4 5.1c-.3 1.9-.4 4.2 0 5 .3.8.2 1.5-.3 1.5-.4 0-1.3 1.2-2 2.7-1 2.1-.9 2.9.1 3.9 1.1 1.1 1.8 1 3.8-.6s2.2-2 .8-2c-1 0-1.8-.7-1.8-1.5s.9-1.5 2.1-1.5c1.1 0 1.8-.4 1.5-.8-.2-.4-.1-1.4.3-2.1.8-1.3-1.2-6.5-2.9-7.6-.5-.3-1.2 1-1.6 3m-.7 10.7c-.3.8-.6.5-.6-.6-.1-1.1.2-1.7.5-1.3.3.3.4 1.2.1 1.9M28 8.1c0 .5.5.7 1 .4.6-.3 1-.8 1-1.1 0-.2-.4-.4-1-.4-.5 0-1 .5-1 1.1m3.6 1.4c-.3.8-.1 1.5.4 1.5.6 0 1-.7 1-1.5S32.8 8 32.6 8s-.6.7-1 1.5M2 10c0 .5.5 1 1.1 1 .5 0 .7-.5.4-1-.3-.6-.8-1-1.1-1-.2 0-.4.4-.4 1M.1 20.5c0 6.4.3 8.4 1 7 .7-1.5.8-.9.4 2s-.3 3.6.4 2.5c.9-1.2 1.1-1 1.2 1 .1 1.4 0 3.4-.1 4.5-.2 2-.2 2 1.9.1 2.2-2 2.8-3.2 1.1-2.1-.6.4-.8-1.5-.3-5.4.4-4.6.3-6.1-.7-6.1-.9 0-1.1-.9-.7-3 .5-2.3.3-2.8-.8-2.4-1 .4-1.6-.3-2-2.3C.3 11.1.2 11.5.1 20.5M5 27c0 .5-.5 1-1.1 1-.5 0-.7-.5-.4-1 .3-.6.8-1 1.1-1 .2 0 .4.4.4 1m61-12.6c0 .2.7.7 1.6 1 .8.3 1.2.2.9-.4-.6-1-2.5-1.4-2.5-.6m36 3.9c0 .8.6 2 1.4 2.7.8.6 1.3 1.7 1 2.4-.6 1.4 2.3 4.2 3.3 3.2.3-.3.1-.6-.5-.6-.8 0-.9-1.1-.5-3.2.5-2.7.4-3-1.1-2.5-.9.4-1.5.3-1.2-.2s-.1-1.4-.9-2.1c-1.2-1-1.5-1-1.5.3m12.6 8.4c3.7.7 3.9 8.7.3 9.6-1.3.4-1.7 1-1.2 2.3s.3 1.5-.7.9c-.8-.5-1.1-.4-.6.3.4.7 1.5.8 3 .2 1.5-.5 3.7-.5 5.9.2 3.1.9 3.5 1.5 3.5 4.4 0 1.9-.4 3.7-.9 4s-.7 1-.4 1.5-.1.6-.9.3c-.9-.3-1.6-.1-1.6.5s.7 1.1 1.5 1.1c1.9 0 3.5-3.9 3.5-8.4 0-2.7-.6-3.6-3.3-5.1-3-1.6-3.4-2.3-3.6-6.3-.3-5.7-.6-6.2-3.9-6.1-2.2.1-2.3.2-.6.6M.2 38.5c0 1.6.2 2.2.5 1.2.2-.9.2-2.3 0-3-.3-.6-.5.1-.5 1.8M38 37c0 .5.5 1 1 1 .6 0 1-.5 1-1 0-.6-.4-1-1-1-.5 0-1 .4-1 1m40.7-.4c-.4.4-.4 1-.1 1.5.6 1 3.4 0 3.4-1.2 0-1-2.4-1.2-3.3-.3M42 40.4c0 1.4.5 2.8 1 3.1.6.3 1-.5 1-1.9s-.4-2.8-1-3.1-1 .5-1 1.9m-5-.4c0 .5.7 1 1.6 1 .8 0 1.2-.5.9-1-.3-.6-1-1-1.6-1-.5 0-.9.4-.9 1M3.1 41.2c.1.7.5 2.4.9 3.8.8 2.4.8 2.4.9-.7.1-1.7-.3-3.5-.9-3.8-.5-.3-1 0-.9.7M.2 45c0 1.4.2 1.9.5 1.2.2-.6.2-1.8 0-2.5-.3-.6-.5-.1-.5 1.3m48.3 0c.3.5.8 1 1.1 1 .2 0 .4-.5.4-1 0-.6-.5-1-1.1-1-.5 0-.7.4-.4 1M.2 50.5c0 1.6.2 2.2.5 1.2.2-.9.2-2.3 0-3-.3-.6-.5.1-.5 1.8M116 50c0 .5.9 1 2.1 1 1.1 0 1.7-.5 1.4-1-.3-.6-1.3-1-2.1-1s-1.4.4-1.4 1M.1 65.6c0 1.1.3 1.4.6.6.3-.7.2-1.6-.1-1.9-.3-.4-.6.2-.5 1.3m3.1 1.1c-.1 1.2-.5 2.9-.8 3.8-.5 1.3-.8 1.4-1.5.3-.6-.9-.9-.6-.9 1 0 1.3.4 2.1.9 1.8.5-.4 1.1 0 1.4.6.9 2.7 1.8-.2 1.4-4.8-.2-2.7-.4-3.9-.5-2.7M57 77c0 .5.5 1 1.1 1 .5 0 .7-.5.4-1-.3-.6-.8-1-1.1-1-.2 0-.4.4-.4 1m5.7.1c.7.7 1.5 1 1.8.7s-.2-.9-1.2-1.2c-1.4-.6-1.5-.5-.6.5m-.9 2.1c1.1 1.4 1 2-.7 3.7-2.2 2.2-2.7 4.1-1.1 4.1.6 0 1-.5 1-1 0-1.9 1.8-1 2.4 1.2.5 1.8.8 2 1.5.9.5-.8.5-2.6.1-4.2-.5-1.7-.5-2.9.1-2.9.5 0 .9-.5.9-1.1 0-.5-.5-.7-1-.4-.6.4-1.9.1-2.8-.7-1.5-1.2-1.6-1.1-.4.4M64 83c0 .5-.8 1-1.7 1-1.5 0-1.6-.2-.3-1 1.9-1.2 2-1.2 2 0"/><path d="M55.7 79.6c.7.3 1.5.5 1.9.4s1.1.4 1.6 1.2c.8 1.1.9 1 .6-.1-.2-.8-1.5-1.5-2.9-1.7-1.3-.1-1.8 0-1.2.2m63.4 4c0 1.1.3 1.4.6.6.3-.7.2-1.6-.1-1.9-.3-.4-.6.2-.5 1.3m-116 1c0 1.1.3 1.4.6.6.3-.7.2-1.6-.1-1.9-.3-.4-.6.2-.5 1.3m47.9.5c0 .5.5.7 1 .4.6-.3 1-.8 1-1.1 0-.2-.4-.4-1-.4-.5 0-1 .5-1 1.1m5.1.4c-.1 1.2.4 2.6 1.1 3.3.8.8.8 1.5-.1 2.6-.7.8-1.1 2.7-.8 4.3.4 2.7.4 2.7.6-.5.1-2.5.5-3.2 2.1-3.2 3.2 0 3.5.3 3.2 3-.6 5.3 0 9.2 1.2 7.9.2-.2.6-3.2.8-6.7.3-4.9.1-6.2-.9-5.8-.7.3-1.3-.1-1.3-.9 0-.9-.8-1.4-2.2-1.2-1.5.1-2.4-.5-2.9-2.3-.6-2.1-.7-2.2-.8-.5m-18 1.1c0 1.1.3 1.4.6.6.3-.7.2-1.6-.1-1.9-.3-.4-.6.2-.5 1.3m.9 6.2c0 1.5-.5 3.3-1.2 4-.9.9-.8 1.2.5 1.2s1.7-.9 1.7-4c0-2.2-.2-4-.5-4s-.5 1.3-.5 2.8m7.6 1.4c.3.5 1 .6 1.5.3 1.3-.9 1.1-1.2-.6-1.2-.8 0-1.2.4-.9.9M4.2 98c0 1.4.2 1.9.5 1.2.2-.6.2-1.8 0-2.5-.3-.6-.5-.1-.5 1.3m46.9-.4c0 1.1.3 1.4.6.6.3-.7.2-1.6-.1-1.9-.3-.4-.6.2-.5 1.3m71.1-.4c-.8 1-.4 1.3 1.6 1.4 1.5.1 2.1-.1 1.4-.3-.6-.3-1-.9-.6-1.4.8-1.4-1.2-1.1-2.4.3m-83.6 5.2c-.3 1.3-.9 3.2-1.3 4.2-.4 1.1-.3 1.5.5 1 .6-.3 1.2.3 1.5 1.6s.4.6.4-1.5c-.1-2.1.4-4.2 1.1-4.6 1-.6 1-1-.1-2-1.2-.9-1.6-.7-2.1 1.3m-9.8-.4c-.2.8-.1 3 .3 4.7.4 1.8.3 5-.2 7-.5 2.1-.8 6-.7 8.8.1 4.6.1 4.5 1.1-2.5.8-5.8 1.2-6.9 1.8-5 1.2 4.2.9-.7-.5-8-.7-3.6-1.5-5.8-1.8-5"/><path d="M34.6 103.2c-1 2.9-1.4 11-.5 9.7.7-1.1.9-.9.9.7 0 1.2.7 2.4 1.5 2.8 1.1.4 1.5-.2 1.5-2.4 0-1.7-.4-3-.9-3-1.4 0-2.3-6.3-1-7.1.8-.5.8-.8 0-1.3-.6-.4-1.3-.1-1.5.6M3.3 107c0 2.5.2 3.5.4 2.2.2-1.2.2-3.2 0-4.5-.2-1.2-.4-.2-.4 2.3m115.3-1.8c-1.1 1.2-1.5 2.6-1 3.6.7 1.8 1 2.8 1.2 5.1.3 2.7 1.3.3 1.6-3.8.2-2.5 1-4.7 2-5.4 1.6-1.2 1.6-1.3-.2-1.4-1-.1-2.7.8-3.6 1.9M56.2 115c0 4.5.2 4.9.8 2.5.4-1.7.8-2.4.9-1.6 0 .8.4 1.1.7.8.4-.4.2-1.2-.3-1.9-.6-.7-1.3-2.2-1.6-3.3-.2-1.1-.5.5-.5 3.5m4.8-2.9c-1.3.9-1.2 1 .3.5 1.2-.4 1.7 0 1.7 1.4 0 1-.5 2.2-1.2 2.6-.6.4-.8.3-.4-.4.3-.6.2-1.3-.4-1.7-.5-.3-1 .3-1 1.4 0 2.4 1 2.7 2.8.9 1.3-1.3 1.7-5.8.5-5.8-.5 0-1.5.5-2.3 1.1M3.2 114c0 1.4.2 1.9.5 1.2.2-.6.2-1.8 0-2.5-.3-.6-.5-.1-.5 1.3m125.7 1.6c-.8 5 .1 10.3 1.6 9.7.8-.2 1.1-1.1.9-1.8-.3-.7-.9-3.5-1.3-6.1-.7-4.5-.8-4.7-1.2-1.8m-88.8 0c0 1.1.3 1.4.6.6.3-.7.2-1.6-.1-1.9-.3-.4-.6.2-.5 1.3m-6.9 3.4c0 1.4.2 1.9.5 1.2.2-.6.2-1.8 0-2.5-.3-.6-.5-.1-.5 1.3m29.8.4c0 .8.5 1.6 1.1 1.8s1.2 1.6 1.2 3.1.4 2.4.9 2.1c.5-.4.8-1.5.5-2.5s-.1-1.9.3-2.1c.5-.2-.3-1.1-1.6-2.1-2-1.5-2.4-1.5-2.4-.3M31.2 121c0 1.4.2 1.9.5 1.2.2-.6.2-1.8 0-2.5-.3-.6-.5-.1-.5 1.3m88.4 2.2c-.4 2.4-.3 4.5.4 5.2s1-.6 1-4.2c0-2.9-.2-5.2-.4-5.2s-.6 1.9-1 4.2m-62.4.3c0 1.6.2 2.2.5 1.2.2-.9.2-2.3 0-3-.3-.6-.5.1-.5 1.8m-20-.3c-.7.7-1.2 2.1-1.2 3.2 0 1.7.3 1.6 1.5-.8 1.7-3.2 1.5-4.2-.3-2.4m-5.9 1.5c-.7.2-1.2 1.9-1.2 3.6.2 2.8.2 2.9.7.7.4-2.3.5-2.4 1.3-.5.6 1.6.8 1.4.8-1.3.1-1.7 0-3.2-.1-3.1-.2 0-.9.3-1.5.6m6.7 4.2c0 .7-.4 1-.9.7s-1.2.1-1.5 1c-.8 2.1-.8 2.4.4 2.4s3.4-4 2.6-4.8c-.3-.3-.6 0-.6.7m28.2 2.6c-1.6 3.4-1.5 5.3.2 7 1.2 1.2 1.5.9 2-1.7.3-1.8.2-3.6-.3-4.1s-.7-1.6-.4-2.3c.9-2.5-.3-1.5-1.5 1.1M28.3 136c0 3.3.2 6 .5 6 1 0 1.4-8.9.4-10.5-.4-.8-.8 1.1-.9 4.5m34.7-4.5c0 .8-.4 1.5-.9 1.5s-1.1.6-1.4 1.3.2 1.3 1.2 1.3 1.7-1 1.8-2.8c.1-1.5 0-2.8-.2-2.8-.3 0-.5.7-.5 1.5m-11 1.9c0 .2.7.7 1.6 1 .8.3 1.2.2.9-.4-.6-1-2.5-1.4-2.5-.6m67.5 3.6c.3.5.8 1 1.1 1 .2 0 .4-.5.4-1 0-.6-.5-1-1.1-1-.5 0-.7.4-.4 1m-84.7 3.5c.3 2.7.1 3.5-1.2 3.5-1.5 0-1.5.2 0 2.5.8 1.3 1.3 2.9.9 3.5-.3.5-.2 1 .3 1 1.3 0 2.2-3.9 1.1-4.6-.5-.3-.9-1.1-.9-1.7 0-.7.4-.6 1 .3.6 1 .8.2.3-2.5-.7-5-2-6.7-1.5-2m9.9-1.6c.3 1.1.8 2 1.2 1.9 2.7-.3 5.1.4 5.1 1.6 0 .8.7 1.7 1.6 2 1.5.6 1.5.4.2-1.6-.9-1.3-2.4-2.5-3.4-2.7-1.1-.1-2.7-1-3.6-1.8-1.5-1.3-1.6-1.3-1.1.6m46.6 1.2c-.1 1.5.2 3.1.7 3.4.4.3.7-.3.6-1.2-.2-1 .1-2.1.6-2.4s.3-1.1-.4-1.7c-1-.8-1.3-.4-1.5 1.9m-3.7-.6c.4.8.8 1.5 1 1.5s.4-.7.4-1.5-.4-1.5-1-1.5c-.5 0-.7.7-.4 1.5m-33.3 2.2c1.1 2.5 3.3 3.2 2.3.7-.3-.9-.6-1.9-.6-2.3s-.6-.8-1.4-.8c-1.1 0-1.2.5-.3 2.4m3.4-2c-1 .9-.9 2.3.2 2.3.5 0 1.1-.7 1.5-1.5.5-1.5-.5-2-1.7-.8m6.6 3.8c0 2.2.2 3 .4 1.7.2-1.2.2-3 0-4-.3-.9-.5.1-.4 2.3M87 143c0 .6.7 1 1.5 1s1.5-.2 1.5-.4-.7-.6-1.5-1c-.8-.3-1.5-.1-1.5.4m32.3.4c.4 1 .7 2.4.7 3.2s.5 1.4 1.1 1.4c1.5 0 .6-5.3-1-5.8-1-.3-1.2 0-.8 1.2M57.5 146c-.4.6-.2 1.7.4 2.4s.8 1.6.4 2 .1.4 1 0c1.6-.6 1.6-.8.2-2.4-.8-.9-1.2-2-.8-2.3.3-.4.4-.7 0-.7-.3 0-.9.5-1.2 1m-13.1 1.9c0 1.1.4 1.7.8 1.5.4-.3.8-1.2.8-2s-.4-1.4-.8-1.4-.8.9-.8 1.9m9.6 3.5c0 .2.7.7 1.6 1 .8.3 1.2.2.9-.4-.6-1-2.5-1.4-2.5-.6m66.3 1.1c0 .8.4 1.2.9.9s.6-1 .3-1.5c-.9-1.3-1.2-1.1-1.2.6m1.7 11.4c0 .6.4 1.3 1 1.6s.7-.1.4-.9c-.7-1.8-1.4-2.1-1.4-.7"/></g><path fill="#550" d="M7.5 77c-.3.5-.1 1 .4 1 .6 0 1.1-.5 1.1-1 0-.6-.2-1-.4-1-.3 0-.8.4-1.1 1"/><path fill="#552a2a" d="M13 45.8c0 .8 1.5 1.2 4.5 1q4.5-.15 4.5-1.5c0-.9-1.3-1.2-4.5-1.1-2.8.2-4.5.8-4.5 1.6m-3.1 6.5c-.9.7-1.4 1.8-1.1 2.5.3 1 .9.7 1.9-.8 1.8-2.5 1.4-3.3-.8-1.7M25.2 64c0 1.9.2 2.7.5 1.7.2-.9.2-2.5 0-3.5-.3-.9-.5-.1-.5 1.8m36.3 10.8c-.4 1 0 1.2 1.1.8.8-.3 1.8-.6 2-.6s.4-.4.4-.8c0-1.5-2.9-.9-3.5.6M27 89.3l.5 7.2.3-6.4c.2-3.5-.1-6.8-.5-7.2s-.6 2.4-.3 6.4m110.4-4.8c-1.5 1-2 2.2-1.7 3.9.6 3.2 3.3 5.7 3.3 3.1 0-1 .5-1.5 1.3-1.2 1.7.7 1.7-3.5-.1-4.6-.7-.5-1-1.2-.7-1.8.8-1.3.3-1.1-2.1.6m1.3 2.7c-.3.8-.6.5-.6-.6-.1-1.1.2-1.7.5-1.3.3.3.4 1.2.1 1.9M45 95.7c0 .6.8 1.7 1.8 2.4 1.6 1.3 1.6 1.3.2-.6-.8-1.1-1.6-2.2-1.7-2.4q-.3-.3-.3.6m-29.4 4.2c-.4.5-.2 1.2.3 1.5.5.4 1.2.2 1.5-.3.4-.5.2-1.2-.3-1.5-.5-.4-1.2-.2-1.5.3m10.6 1.6c0 1.6.2 2.2.5 1.2.2-.9.2-2.3 0-3-.3-.6-.5.1-.5 1.8m108 1c0 1.6.2 2.2.5 1.2.2-.9.2-2.3 0-3-.3-.6-.5.1-.5 1.8m1.9 4.1c0 1.1.3 1.4.6.6.3-.7.2-1.6-.1-1.9-.3-.4-.6.2-.5 1.3m-14.1 6.7c0 2 .5 3.9 1.1 4.2.7.5.8-.5.3-3.2-.9-5.1-1.4-5.4-1.4-1m3 .6c0 .6.4 1.3 1 1.6s.7-.1.4-.9c-.7-1.8-1.4-2.1-1.4-.7m-97.9 3.7c0 1.1.3 1.4.6.6.3-.7.2-1.6-.1-1.9-.3-.4-.6.2-.5 1.3m90.1 1.4c0 1.4.2 1.9.5 1.2.2-.6.2-1.8 0-2.5-.3-.6-.5-.1-.5 1.3m5 10c0 1.4.2 1.9.5 1.2.2-.6.2-1.8 0-2.5-.3-.6-.5-.1-.5 1.3m-4.1.6c0 1.1.3 1.4.6.6.3-.7.2-1.6-.1-1.9-.3-.4-.6.2-.5 1.3m26 1.2c0 1.3-.5 2-1.1 1.7-1.3-.8-1.3 1.5 0 3.5.8 1.2 1 1.2 1.5-.2.4-.9.5-2.9.2-4.5-.3-2.3-.4-2.4-.6-.5m-11.1 14c0 1.8.5 3.2 1 3.2.6 0 .8-1.1.4-2.8-1-3.9-1.4-4-1.4-.4m-72.1 6.9c-1.3 1.6-1.2 1.7.4.4s2.1-2.1 1.3-2.1c-.2 0-1 .8-1.7 1.7m64.7 13c-.6 1.4-.5 1.5.5.6.7-.7 1-1.5.7-1.8s-.9.2-1.2 1.2"/><g fill="#aa8055" stroke-width="0"><path d="M61.4 7.5c.3 1.9 2.6 4.4 2.6 2.8 0-.6.3-1.8.6-2.7.4-1.1 0-1.6-1.4-1.6-1.2 0-1.9.6-1.8 1.5M33.1 19.6c0 1.1.3 1.4.6.6.3-.7.2-1.6-.1-1.9-.3-.4-.6.2-.5 1.3m70.2 4.8c1.9 3.8 2.5 4.2 4.3 3.4 1.3-.6 3.4-.6 5.7 0 2.1.6 3.7.7 3.7.2 0-1.1-6.7-2.2-9-1.5-2.2.7-5.5-3.2-4-5 .6-.7.3-1.1-1-1.2-1.9-.2-1.9 0 .3 4.1M3.5 27c-.3.5-.1 1 .4 1 .6 0 1.1-.5 1.1-1 0-.6-.2-1-.4-1-.3 0-.8.4-1.1 1M116 34c-.6 1.1-.7 2-.2 2 .6 0 1.2-.9 1.5-2s.3-2 .1-2-.8.9-1.4 2M8.8 33.7c.7.3 1.6.2 1.9-.1.4-.3-.2-.6-1.3-.5-1.1 0-1.4.3-.6.6M38.5 39c.3.5.8 1 1.1 1 .2 0 .4-.5.4-1 0-.6-.5-1-1.1-1-.5 0-.7.4-.4 1m76.6 2.6c0 1.1.3 1.4.6.6.3-.7.2-1.6-.1-1.9-.3-.4-.6.2-.5 1.3m6.9.3c1.4 1.1 2.7 1.5 2.9 1 .4-1.3.2-1.5-2.9-2.3l-2.5-.7zm1.2 5.9c-1.1 2.5-1.1 2.5.4 1 .9-.9 1.5-2.1 1.3-2.7s-1 .2-1.7 1.7m-3.7 2.2c.3.5.8 1 1.1 1 .2 0 .4-.5.4-1 0-.6-.5-1-1.1-1-.5 0-.7.4-.4 1M.5 60.5c.2 2.7.4 6.6.4 8.5.1 2.6.4 3.1 1.1 2 1.3-2 1.3-6.7 0-7.5-.6-.4-.8-1-.6-1.4.3-.4.1-2.1-.4-3.7-.7-2.4-.8-2-.5 2.1m10-2.5c-.3.5-.1 1 .4 1 .6 0 1.1-.5 1.1-1 0-.6-.2-1-.4-1-.3 0-.8.4-1.1 1M.7 73.6c-1.1 1.1-.8 2.6.3 1.9.6-.4 1.1.8 1.1 2.7.2 3 .2 3 .6.6.5-2.9-.9-6.3-2-5.2m57.1 5.1c.6.2 1.8.2 2.5 0 .6-.3.1-.5-1.3-.5s-1.9.2-1.2.5m4.5 3.1c0 1.2.5 2.2.9 2.2 1.1 0 1-1.2-.2-3-.7-1.2-.9-1-.7.8m-3.5-.1c-1 .2-1.8.8-1.8 1.3 0 .4.9.6 2 .3s2-.9 2-1.4-.1-.8-.2-.8c-.2.1-1.1.3-2 .6M2 85.5c0 1.9.2 3.5.4 3.5s.6-1.6.8-3.5 0-3.5-.4-3.5-.8 1.6-.8 3.5m1.3 12c0 3.3.2 4.5.4 2.7s.2-4.5 0-6-.4 0-.4 3.3m32.2 9.7c.4 1.8 1.1 3.4 1.6 3.6s.9 1.6.9 3.1c0 1.9-.5 2.7-1.8 2.7-1.4 0-1.7-.6-1.4-2.6.3-1.4.1-2.1-.4-1.7-.5.5-.9 2.5-1 4.5-.2 11-.5 13.7-1.4 11.7-.8-1.8-.9-1.7-.9.6-.2 6.3 1.2 14.9 2.5 14.9.7 0 1.4.4 1.6 1 .2.5.4-3.8.5-9.6.2-7.7.6-11.1 1.7-12.3.8-.9 1.8-2.8 2.1-4.4.9-3.4-.3-11.9-1.6-11.2-.5.4-.9-.3-.9-1.4 0-1.2-.5-2.1-1.1-2.1-.7 0-.8 1.2-.4 3.2m-.8 19c-.2 1.3-.4.5-.4-1.7-.1-2.2.1-3.2.4-2.3.2 1 .2 2.8 0 4m0 11c-.3.7-.5.2-.5-1.2s.2-1.9.5-1.3c.2.7.2 1.9 0 2.5M52 106.9c0 .5.7 1.1 1.5 1.5.8.3 1.5.1 1.5-.3 0-.5-.7-1.1-1.5-1.5-.8-.3-1.5-.1-1.5.3M.2 115c0 1.9.2 2.7.5 1.7.2-.9.2-2.5 0-3.5-.3-.9-.5-.1-.5 1.8m60.9-2.1c-.9.6-1 1.1-.2 1.5.6.4.8 1.3.5 1.9-.4.7-.3.9.1.4.8-.7 1.8-4.7 1.2-4.7-.1 0-.8.4-1.6.9m-31.5 5.2c-.4 3.2-.3 5.6.3 6.2.8.8 1.1-.8 1.1-5.1 0-3.4-.2-6.2-.4-6.2s-.6 2.3-1 5.1m27.6-.6c0 1.6.2 2.2.5 1.2.2-.9.2-2.3 0-3-.3-.6-.5.1-.5 1.8m-54 4.5c0 1.4.2 1.9.5 1.2.2-.6.2-1.8 0-2.5-.3-.6-.5-.1-.5 1.3m60.8 3.5c-.7.9-1.1 1.7-.9 2 .3.2 1-.5 1.7-1.5 1.4-2.4 1-2.6-.8-.5"/><path d="M37 127.7c0 2.1.3 2.4.9 1.4.5-.8.7-2 .4-2.8-.8-2.1-1.3-1.5-1.3 1.4m-9 .5c0 .7.5 2 1 2.8.8 1.2 1 1.1 1-.7 0-1.2-.4-2.5-1-2.8-.5-.3-1 0-1 .7m8.6 4.1c.3 1 .9 1.5 1.2 1.2s0-1.1-.7-1.8c-1-.9-1.1-.8-.5.6m6.7.2c-.3.9-.3 1.8-.1 2.1.3.3.8-.4 1.1-1.6.6-2.3-.1-2.7-1-.5m20.3 3.5c.8 4.3 1.4 5.1 1.4 1.9 0-1.3-.5-3.1-1-3.9-.7-1.1-.8-.5-.4 2m-11.1 1c.4.6 1.1.8 1.6.5 1.4-.9 1.1-1.5-.7-1.5-.8 0-1.2.5-.9 1m6 1c-1.9.8-1.9.9.3.9 1.2.1 2.2-.4 2.2-.9 0-.6-.1-1-.2-.9-.2 0-1.2.4-2.3.9m-14.4 1.7c-.1 2 .3 2.3 3.7 2.1 3.6-.1 3.6-.1.5-.5-1.9-.3-3.4-1.1-3.6-2.1-.3-1.2-.5-1-.6.5m13 4.9c0 1.1.3 1.4.6.6.3-.7.2-1.6-.1-1.9-.3-.4-.6.2-.5 1.3m-24.6 3.1c0 1.5.4 2.7 1 2.6 1.5-.3 1.6-1.7.2-3.7-1.2-1.6-1.3-1.5-1.2 1.1"/></g><path fill="#2a0000" d="M13 79c0 .5.5 1 1.1 1 .5 0 .7-.5.4-1-.3-.6-.8-1-1.1-1-.2 0-.4.4-.4 1m-2.1 4.2c-.5.9-.6 1.9-.2 2.1.5.3.8 3.7.7 7.6 0 3.9.3 7.1.8 7.1.4 0 .8-.8.8-1.8 0-.9 1.1-2.6 2.5-3.6 6.2-4.7 6.2-4.7 3.4-4-2 .4-3 0-4.2-1.6-1.8-2.6-1.2-5 1.2-5.1q1.5 0 .3-.6c-.6-.2-1-.8-.8-1.2.3-.4-.4-.7-1.6-.7-1.1 0-2.4.8-2.9 1.8m-2.1 20.9c-1 .5-1.8 1.5-1.8 2.1s.8.4 1.8-.5c2.3-2.1 3.1-2.1 4.9 0 1.3 1.6 1.3 1.6.3-.5-1.2-2.4-2.5-2.7-5.2-1.1M19 107c0 2.3.5 3.1 2.4 3.6 2 .5 2.6 1.5 3.4 6.2.9 5.6.9 5.6 1.1 1.5.1-4.8-3.6-14.3-5.6-14.3-.8 0-1.3 1.2-1.3 3m-12.9 7.6c0 1.1.3 1.4.6.6.3-.7.2-1.6-.1-1.9-.3-.4-.6.2-.5 1.3m-.5 9.1c-.6 1.4-.5 1.5.5.6.7-.7 1-1.5.7-1.8s-.9.2-1.2 1.2m130.6 2.8c-.7 2.5-1.2 9.5-1.2 15.5 0 6.1-.4 11-.8 11-.5 0-1.5-1.8-2.2-4-1.6-4.8-2.6-5.1-3.5-1.1q-.6 3-2.1 2.4c-.8-.3-1.4-.1-1.4.5s.6 1.2 1.3 1.5c.9.3.9.7-.2 2-.7 1-.9 1.7-.3 1.7.5 0 1.5-.7 2.2-1.4.9-1.1 1.8-1.3 3.7-.5 2.8 1 4.3 0 4.3-3.2 0-.9.7-2 1.6-2.3 2.3-.9 3.6-.7 2.9.4-.3.5 0 1 .8 1s1.8.8 2.2 1.7c.6 1.7.7 1.7 1.9.1 1.1-1.5 2.4-26.9 1.2-25.7-.2.2-.6 5.1-1 10.8-.3 5.7-.8 10.6-1.1 10.9-1.4 1.4-2.6-2.1-3.1-9.4-.3-4.3-1.1-8.7-1.6-9.7s-1.1-2.8-1.3-3.9c-.7-3.3-1-3-2.3 1.7m2.8 11.2c0 1.3-.4 2.3-1 2.3-.5 0-1-1.7-1-3.8 0-2.7.3-3.3 1-2.2.5.8 1 2.5 1 3.7m-22.9-12.1c0 1.1.3 1.4.6.6.3-.7.2-1.6-.1-1.9-.3-.4-.6.2-.5 1.3m-89.8 2.9c0 2.2.2 3 .4 1.7.2-1.2.2-3 0-4-.3-.9-.5.1-.4 2.3m97.4 6.9c-.4 1-.5 2.1-.2 2.4.9.9 1.7-.6 1.3-2.5-.3-1.7-.4-1.7-1.1.1m-55.5 7.1c0 1.6.2 2.2.5 1.2.2-.9.2-2.3 0-3-.3-.6-.5.1-.5 1.8m13.6 3.7c.2 1 .6 1.8.7 1.8s.5-.8.7-1.8c.3-1.1 0-1.9-.7-1.9s-1 .8-.7 1.9m2.2.8c0 .5.5 1 1.1 1 .5 0 .7-.5.4-1-.3-.6-.8-1-1.1-1-.2 0-.4.4-.4 1m-55.2 2.5c.2 1.4.8 2.5 1.2 2.5s.5-1.1.2-2.5c-.2-1.4-.8-2.5-1.2-2.5s-.5 1.1-.2 2.5m63.4-1.4c.2.7 1 1.5 1.7 1.7.8.3 1.2-.1.9-.9-.2-.7-1-1.5-1.7-1.7-.8-.3-1.2.1-.9.9m-4.4.6c.6.2 1.8.2 2.5 0 .6-.3.1-.5-1.3-.5s-1.9.2-1.2.5m-24.4 4.5-1.9 2.3 2.3-1.9c2.1-1.8 2.7-2.6 1.9-2.6-.2 0-1.2 1-2.3 2.2m-25.8.6c-.3.5.8.9 2.5.9 1.9 0 2.5-.3 1.7-.9-1.7-1-3.5-1-4.2 0"/><g stroke-width="0"><path d="M87 8.6c-6 2.6-7 4.1-7 10.6 0 3.2-.3 5.8-.7 5.8-.5 0-1.8-1.8-3.1-4-2-3.5-2.7-4-6-4-4.3 0-9.5 2.9-11.3 6.2-2.8 5.1-4.4 16.1-3.7 24.8.4 4.7.8 8.9.9 9.5.1.5-.1 2.1-.5 3.5-.7 2.4-.7 2.4.9.5 1.5-1.8 1.5-1.8.9 1.3-.4 1.7-.2 3.8.4 4.4.5.7 1.3 2.8 1.7 4.5.8 3.8 1.3 4 3.1 1.5 1.1-1.4 1.3-1.5 1.7-.2.3.8 1.2 3.6 2.1 6.2 1.6 4.3 1.6 4.9 0 8.5-1.2 2.7-1.8 7.6-2.2 17l-.4 13.3h2.8c5.4 0 5.9 1 4.4 9.2-.7 4-1.6 10-2 13.3-.7 6.4-2.6 10.9-5.6 13.7-1.6 1.4-3.6 1.6-11.6 1.3-5.3-.1-10.1-.6-10.6-.9-.6-.3-2.2-.2-3.6.4-2.2.8-2.8.6-3.8-1-.7-1.1-2-2-2.9-2-1 0-1.9-1.1-2.3-3-.8-4.2-2.1-3.8-2.4.7-.2 2.1-.7 4-1.2 4.1-.6.2-1 1-1 1.7 0 2.6-7 8.3-11.5 9.4-5.8 1.5-11.2 1.4-11.8-.2-.3-.6-.6-.2-.6 1L0 168h147v-9.2c0-8.2-.2-9-1.4-7.2-1.4 1.8-1.5 1.8-2.1.1-.4-.9-1.4-1.7-2.2-1.7s-1.1-.5-.8-1c.7-1.1-.6-1.3-2.9-.4-.9.3-1.6 1.4-1.6 2.3 0 3.2-1.5 4.2-4.3 3.2-1.8-.7-2.8-.6-3.6.3-.6.7-3 1.2-5.3 1.2l-4.3-.1-1.2-16c-.6-8.8-1.2-21.3-1.2-27.8L116 100h2.6c2.3 0 2.5-.3 2-2.8-1.2-5.4-2.5-17-3.6-31.7-1.5-19.4-3.8-25.8-11.5-33.2-5.5-5.1-5.5-5.2-5.4-11 .2-6.1-1-10.1-3.2-12-2.5-1.9-6.4-2.2-9.9-.7m4 25.3c0 .4-.5 1.2-1.2 1.9s-1.3 2.9-1.4 5c-.1 2-1.3 6.2-2.6 9.2l-2.5 5.5-2.1-3.5c-1.2-1.9-3-4.6-4.2-5.8-2.1-2.5-2.7-5.2-1-5.2.6 0 1-1.1 1-2.5 0-1.8.5-2.5 1.9-2.5 1.8 0 4.5-2.3 3.7-3.1-.3-.2 1.6-.2 4 0 2.4.1 4.4.6 4.4 1m1.6 98.6c-.4 2-.3 3.5.3 3.5 1 0 2.7 12.7 1.8 13.6-.3.4-1.1.3-1.8-.1-.6-.4-2.8-1-4.8-1.2s-4.1-.4-4.8-.5c-3.6-.4-1-7 5.2-12.8 1.4-1.3 2.5-3.2 2.5-4.2s.5-1.8 1.1-1.8c.7 0 .9 1.2.5 3.5m37.9 31.2 4 .7-3 .7c-1.6.4-5.4.7-8.2.8-4.1.1-5.3-.2-5.3-1.4 0-1.7 5.4-2 12.5-.8m-93 1.3c.4.6-.5 1-2 1s-2.4-.4-2-1c.8-1.3 3.2-1.3 4 0"/><path d="M8.7 105.8c-1.2 1.3-1.8 4.2-2 10-.2 4.5-.7 8.5-1 8.9-1.2 1.1 1.5 3.3 4 3.3 1.3 0 3.8.7 5.6 1.6 3.6 1.8 9.7 8.2 9.7 10.1 0 .7.5 1.3 1.1 1.3 1.3 0 .7-9.9-1.2-22.7-1-6.3-1.4-7.2-3.6-7.8-1.3-.3-2.8-.3-3.3 0s-2-1-3.2-2.9c-2.6-4-3.8-4.4-6.1-1.8M137 136.2c0 2.1.5 3.8 1 3.8 1.3 0 1.3-4 0-6-.7-1.1-1-.5-1 2.2"/></g><path fill="#2a2a00" d="M17 58.9c0 .6-.9 1.1-2 1.1s-2 .5-2 1.1c0 .5.5.7 1 .4.6-.3 1 .3 1 1.4s-.4 2.2-.9 2.5c-.5.4-1.2 2.9-1.6 5.6-.4 2.8-1.3 5.4-2.1 5.8-1.4.8-1.6 3.4-1.5 18.2 0 2.4-.4 4.7-1 5-1.1.7-2.9 13.6-2.7 20 0 2.5.5.3 1-5 .7-6.8 1.4-9.9 2.5-10.8 2.7-2 4.2-1.4 6 2.3 2.1 4.3 4.3 4.6 4.3.5 0-1.8.5-3 1.3-3 2.1 0 5.1 7.9 5.8 15 .6 6.2.6 6.1.7-3 .1-5.2-.2-11.1-.6-13s-.5-5.5-.2-8c.6-5.4-.5-14.1-2-15-.5-.3-1-1.7-1-3.1.1-4.7-1.3-12.9-2.1-12.9-.5 0-.9-.8-.9-1.9 0-1-.7-2.4-1.5-3.1-1-.9-1.5-.9-1.5-.1M14.5 79c.3.5.1 1-.4 1-.6 0-1.1-.5-1.1-1 0-.6.2-1 .4-1 .3 0 .8.4 1.1 1m.9 3.1c-.2.4.2 1 .8 1.2q1.2.6-.3.6c-2.4.1-3 2.5-1.2 5.1 1.2 1.6 2.2 2 4.2 1.6 2.8-.7 2.8-.7-3.4 4-1.4 1-2.5 2.7-2.5 3.6 0 1-.4 1.8-.8 1.8-.5 0-.8-3.2-.8-7.1.1-3.9-.2-7.3-.7-7.6-1.3-.8 1.1-3.9 3.1-3.9 1.2 0 1.9.3 1.6.7m2.6 18.4c0 1.9-1.3 2.5-3 1.5-1.1-.7-1.1-1.1-.1-2.4 1.5-1.7 3.1-1.3 3.1.9m38.1-38.1c-.7.8-.8 1.7-.3 2 .6.3 1.2-.3 1.5-1.4.6-2.4.4-2.5-1.2-.6m-9.1 43c0 .2.8 1 1.8 1.7 1.5 1.3 1.6 1.2.3-.4s-2.1-2.1-2.1-1.3m87.7 7.6c-.4 3-.6 11.1-.5 18 .1 12.3.1 12.4.8 4.5.9-8.8 3.2-17.7 3-11 0 .3.6 1.8 1.4 3.3.7 1.5 1.7 6.3 2 10.6.5 7.1 1.7 10.8 3 9.5.3-.2.6-2.3.9-4.7.3-3.2.1-4-.8-3.2-1.7 1.4-2.2-1-3-13-.3-5.2-.8-11.5-1.1-13.9-.5-4.3-1.8-4.6-2.6-.6-.4 1.5-.7 1.2-1.5-1.5l-.9-3.5zm-83.9-.5c-.4.4-.4 1.3-.1 2.1s.1 1.4-.5 1.4-1.3-.6-1.5-1.3c-.4-.9-.6-.9-.6.1-.1 1.3 2.2 2.6 3.7 2 .4-.1.6-1.3.3-2.6-.4-1.3-.9-2.1-1.3-1.7m16 6.2c.7.3 1.6.2 1.9-.1.4-.3-.2-.6-1.3-.5-1.1 0-1.4.3-.6.6m-15.7 3.9c0 1.1.3 1.4.6.6.3-.7.2-1.6-.1-1.9-.3-.4-.6.2-.5 1.3m65.6-.9c-.3.5-.1 2.8.3 5.3l.8 4.5-.1-5.3c0-5.2-.2-5.9-1-4.5M44.5 127c.3.5 1.1 1 1.6 1 .6 0 .7-.5.4-1-.3-.6-1.1-1-1.6-1-.6 0-.7.4-.4 1m4.2.1c.7.7 1.5 1 1.8.7s-.2-.9-1.2-1.2c-1.4-.6-1.5-.5-.6.5m-44.7.3c0 .2.7.7 1.6 1 .8.3 1.2.2.9-.4-.6-1-2.5-1.4-2.5-.6m141.2 1.6c0 1.4.2 1.9.5 1.2.2-.6.2-1.8 0-2.5-.3-.6-.5-.1-.5 1.3m-20.9 1.7c.3 1.3.1 2.6-.4 2.9s-.9 1.1-.9 1.7c0 .7.4.6 1-.3.8-1.2 1-1 1 1 .1 2 .2 2.2 1 .9 1.1-1.9.5-5.8-1.1-7.3-.9-.8-1-.5-.6 1.1m20.9 4.3c0 1.9.2 2.7.5 1.7.2-.9.2-2.5 0-3.5-.3-.9-.5-.1-.5 1.8M27 137.3c0 1.8-.4 3.7-.9 4.2-.6.6-.4 1.5.5 2.3 1.2 1.1 1.4.5 1.4-4.3 0-3-.2-5.5-.5-5.5s-.5 1.5-.5 3.3m101.7.3c-.4.4-.7 2.2-.7 4s-.6 3.7-1.4 4.1c-2.1 1.3-4.1 5.6-2.7 6.1.6.2 1.1 1.1 1.1 2 0 1.3.2 1.4 1.3.3 1-1.1 1-1.4 0-1.8-.7-.3-1.3-.9-1.3-1.5s.6-.8 1.4-.5q1.5.6 2.1-2.4c.4-1.6 1.1-2.9 1.6-2.9 1 0 1.1-3.7 0-6.3-.3-1-1-1.5-1.4-1.1M83.5 141c-.3.5-.1 1 .4 1 .6 0 1.1-.5 1.1-1 0-.6-.2-1-.4-1-.3 0-.8.4-1.1 1m-1.6 3.7c-1 1.1-1 1.4-.1.9.7-.4 1.2-.2 1.2.4s.4.9.9.5c.5-.3 1.2-.1 1.6.5.8 1.4 2.5 1.3 2.5-.1 0-1.1-2.9-3.8-4.1-3.9-.4 0-1.3.8-2 1.7m9.7 2c-.6 1.4-.5 1.5.5.6.7-.7 1-1.5.7-1.8s-.9.2-1.2 1.2m-26.1 2c-.4 1.6-1 2.2-1.2 1.5-.4-1-.9-.8-1.9.7-.9 1.2-2.1 1.8-3.2 1.5-1.5-.5-1.5-.4.1.6.9.6 1.5 1.5 1.2 2.1-.4.5-.3.9.2.9 1.2-.1 6.3-7.1 6.3-8.7 0-2.2-.7-1.5-1.5 1.4m66-1c.4 1 1 2.6 1.2 3.5.8 2.7 2.3 2.1 2.3-.8 0-1.4-.4-2.3-1-1.9-.5.3-1-.1-1-.9 0-.9-.5-1.6-1.1-1.6-.7 0-.8.7-.4 1.7M30 149.4c0 .8.4 1.7.9 2 .5.4.7-.3.4-1.4-.6-2.3-1.3-2.6-1.3-.6m8.9-.2c-.9.7-1.9 2.3-2.2 3.6-.4 1.9-.3 2.1.9 1.1 1.1-.9 2.1-.9 4.3.1 1.7.7 3.5 1 4.2.8s-.2-1-1.9-1.7-3.2-2.2-3.4-3.3c-.3-1.6-.5-1.7-1.9-.6m-5.5 2.9c-.3.6-.1 1.6.5 2.2.8.8 1.1.5 1.1-1.1 0-2.4-.5-2.8-1.6-1.1m.2 12.7c-.2.4.4.8 1.4.8s1.6-.4 1.4-.8c-.3-.4-.9-.8-1.4-.8s-1.1.4-1.4.8m94 0c-.3.5.8.6 2.5.4 1.6-.2 2.9-.6 2.9-.8 0-.8-4.9-.4-5.4.4"/><path fill="#555" d="M76.9 17.7c-1.3 1.6-1.2 1.7.4.4.9-.7 1.7-1.5 1.7-1.7 0-.8-.8-.3-2.1 1.3m.8 2.6c-.3.8-.2 2 .3 2.6.5.9.8.4.8-1.3 0-2.9-.3-3.2-1.1-1.3M117 69.9c0 1.2.5 2.1 1 2.1.6 0 1-.6 1-1.4s-.4-1.8-1-2.1c-.5-.3-1 .3-1 1.4m.1 31.7c0 1.1.3 1.4.6.6.3-.7.2-1.6-.1-1.9-.3-.4-.6.2-.5 1.3m-47 20c0 1.1.3 1.4.6.6.3-.7.2-1.6-.1-1.9-.3-.4-.6.2-.5 1.3m50.1 42.3c-1.1.7-1.1.9.2 1.4 1 .4 1.6.1 1.6-.8 0-1.7-.1-1.7-1.8-.6m3.5.2c.7.7 1.5 1 1.8.7s-.2-.9-1.2-1.2c-1.4-.6-1.5-.5-.6.5"/><g fill="#2a2a2a" stroke-width="0"><path d="M79.2 18c0 1.9.2 2.7.5 1.7.2-.9.2-2.5 0-3.5-.3-.9-.5-.1-.5 1.8m-.6 5.7c-.6 1.4-.5 1.5.5.6.7-.7 1-1.5.7-1.8s-.9.2-1.2 1.2m39.5 55.9c0 1.1.3 1.4.6.6.3-.7.2-1.6-.1-1.9-.3-.4-.6.2-.5 1.3M15.2 99.2c-.7.7-1.2 1.5-1.2 1.9 0 1.2 2.9 1.9 3.5.8.4-.5.2-.8-.3-.7-.6.2-.9-.2-.8-.7 0-.6.5-.9.9-.7.5.1.6-.2.2-.8-.8-1.3-.8-1.3-2.3.2m101.1 8.3c0 4.4.2 6.1.4 3.7.2-2.3.2-5.9 0-8-.2-2-.4-.1-.4 4.3m-.1 11.5c0 1.9.2 2.7.5 1.7.2-.9.2-2.5 0-3.5-.3-.9-.5-.1-.5 1.8m-45.1 1.6c0 1.1.3 1.4.6.6.3-.7.2-1.6-.1-1.9-.3-.4-.6.2-.5 1.3m-69.3 7.1c-1.4.3-1.7 1.4-1.6 5.1.1 2.6.3 3.9.6 2.9.2-.9.9-1.8 1.5-1.8.7-.1 2.3-.3 3.7-.4 4.7-.6 6.5.4 6.6 3.6.1 2.1-.2 2.7-.9 2-1.5-1.5-6.4-1.4-6.4.2 0 .7.8 1.3 1.8 1.3s1.5-.4 1.3-.8c-.3-.4.2-.8 1-.8 1.4 0 2 1.2 1.7 3.2 0 .5.6.8 1.5.8 1 0 1.2.4.7 1.2-1.6 2.7-1.4 5.8.4 5.8 1.5 0 1.5.1-.2 1.4-1.1.8-1.6 2-1.3 3.3.4 1.5-.1 2.4-1.7 3.3-2.9 1.5-8.8.9-9.7-1-.4-.8-.6.5-.5 2.9.3 6 1.9 6.9 9.8 5.2 5-1 6.9-2 10-5.1 2.2-2.2 3.9-4.6 3.9-5.5 0-.8.5-1.5 1.1-1.5.7 0 .9-1 .7-2.5-.3-1.4-.1-2.5.4-2.5s.7-.4.4-.9c-.4-.5-.1-1.1.5-1.3.8-.3.6-.9-.5-2-.9-.9-1.6-2-1.6-2.5 0-5-9.4-12.8-15.5-12.9-2.3 0-4.6-.3-5.1-.6-.5-.2-1.7-.3-2.6-.1m1.8 33.9c.2 1.2-.1 1.3-1.2.3-.7-.6-1.1-1.6-.8-2.1.7-1.1 1.7-.3 2 1.8M91 130.1c0 .5.5.7 1 .4.6-.3 1-.8 1-1.1 0-.2-.4-.4-1-.4-.5 0-1 .5-1 1.1m26.2 2.9c0 1.4.2 1.9.5 1.2.2-.6.2-1.8 0-2.5-.3-.6-.5-.1-.5 1.3m-31.7 5c-.3.6.1.7.9.4 1.8-.7 2.1-1.4.7-1.4-.6 0-1.3.4-1.6 1m8.1 6.7c-.4.9-.2 2.1.4 2.7.7.7 1 .2 1-1.7 0-3.1-.5-3.4-1.4-1m24.5 1.9c0 1.1.3 1.4.6.6.3-.7.2-1.6-.1-1.9-.3-.4-.6.2-.5 1.3"/><path d="M5.2 146.7c-.6.3-1 .9-.6 1.4.3.5-.2.9-1.1.9-1.3 0-1.4.2-.3 1.4.7.8 1.5 1.2 1.7 1s1 .1 1.8.7c1 .9 1.3.5 1.3-1.9 0-3.3-.7-4.2-2.8-3.5m-.6 6.1c-.3.6-.1 1.4.5 1.7 1.4.9 2 .2 1-1.4q-.9-1.2-1.5-.3m122 11.9c-.6 1.4-.5 1.5.5.6.7-.7 1-1.5.7-1.8s-.9.2-1.2 1.2"/></g><path fill="#aaaa80" d="M103.3 27.2c.2 3.3 2.3 5.3 3 2.8.3-1.3.1-1.7-.9-1.3-1 .3-1.2 0-.8-1 .3-.8.1-1.8-.5-2.1-.5-.4-.9.3-.8 1.6m10.5 1.5c.7.3 1.6.2 1.9-.1.4-.3-.2-.6-1.3-.5-1.1 0-1.4.3-.6.6m-1.3 6.2c-1.6.3-2.5.9-2 1.3 1 .6 5.5-.7 5.5-1.7 0-.3-.1-.4-.2-.4-.2.1-1.6.4-3.3.8m-30.4 1.2c-.1.9-1.1 2.4-2.3 3.3-1.9 1.4-2 1.5-.3.8 1.1-.5 3.5-.7 5.3-.5 2.4.2 3.2-.1 3.2-1.4 0-.9-.3-1.3-.7-1-.3.4-1.2.2-2-.4-1-.9-1.3-.8-1.4.2 0 .8-.4.5-.9-.6-.7-1.5-.9-1.6-.9-.4m31.7 4.5c-.4.6-.1 1.9.6 2.9 1 1.4 1.5 1.5 2.1.5.5-.8.4-1.1-.3-.6-.6.4-1.2-.3-1.4-1.6-.2-1.4-.6-1.8-1-1.2m2.2-.2c0 .2 1.8 1.3 4 2.4s4 1.6 4 1.1-.2-.9-.4-.9-2-.7-4-1.5-3.6-1.3-3.6-1.1m1.3 8.3c.9.2 2.3.2 3 0 .6-.3-.1-.5-1.8-.5-1.6 0-2.2.2-1.2.5M.1 83c0 .8.4 2.4.9 3.5l.9 2v-2c0-1.1-.4-2.7-.9-3.5-.9-1.3-1-1.3-.9 0M2 98.5c0 1.4-.4 2.5-.8 2.5-.5 0-.9 1.8-1 4.1-.1 2.5.2 3.8.8 3.4.7-.4 1 1.3.9 4.9-.1 3.1 0 5.9.3 6.2s.6-4.9.6-11.6c0-6.6-.2-12-.4-12S2 97.1 2 98.5m32.1 27.1c0 1.1.3 1.4.6.6.3-.7.2-1.6-.1-1.9-.3-.4-.6.2-.5 1.3m33.9-.4c0 .7.5 2 1 2.8.8 1.2 1 .9 1-1.3 0-1.5-.4-2.7-1-2.7-.5 0-1 .6-1 1.2m-3.8 6.8c0 1.9.2 2.7.5 1.7.2-.9.2-2.5 0-3.5-.3-.9-.5-.1-.5 1.8m-11.7 3c.3.5.8 1 1.1 1 .2 0 .4-.5.4-1 0-.6-.5-1-1.1-1-.5 0-.7.4-.4 1m36.5 2.4c0 2.6 1.5 4.3 2.4 2.7.4-.5.2-1.2-.4-1.6s-.8-1-.5-1.5.1-1.1-.5-1.5-1 .4-1 1.9M41.2 141c0 1.4.2 1.9.5 1.2.2-.6.2-1.8 0-2.5-.3-.6-.5-.1-.5 1.3m11.5 2.6c-1 1.1.3 2.4 2.4 2.4 1 0 1.9-.5 1.9-1.2 0-.6-.3-.8-.7-.5-.3.4-1.1.2-1.8-.3s-1.5-.7-1.8-.4m-6.5 4.4c0 1.4.2 1.9.5 1.2.2-.6.2-1.8 0-2.5-.3-.6-.5-.1-.5 1.3m10.4 1.7c-.6 1.4-.5 1.5.5.6.7-.7 1-1.5.7-1.8s-.9.2-1.2 1.2"/><path fill="#d4aa80" d="M101 22.5c0 .5.5 1.7 1 2.5s1 1 1 .5c0-.6-.5-1.7-1-2.5s-1-1.1-1-.5M118 43c.8.5 2.2 1 3 1 1.3 0 1.3-.1 0-1-.8-.5-2.2-1-3-1-1.3 0-1.3.1 0 1M.6 77.3c-.5.9-.5 2.9 0 4.5.7 2.5.8 2.6 1.1.4.3-1.2.3-3.2 0-4.5-.3-1.9-.4-2-1.1-.4M60 80.1c0 .5.5.7 1 .4.6-.3 1-.8 1-1.1 0-.2-.4-.4-1-.4-.5 0-1 .5-1 1.1M.5 87.5c.4 1.6.9 4.3 1.2 5.9.3 1.7.2 2.6-.4 2.3-.6-.4-.7.7-.4 2.6.5 3.1.5 3 1.4-1.5.7-3.8.6-5.6-.7-8.5C.1 84.9 0 84.8.5 87.5m.6 27.1c0 1.1.3 1.4.6.6.3-.7.2-1.6-.1-1.9-.3-.4-.6.2-.5 1.3m.6 7.4c-.3 1.1-.1 2 .4 2s.9-.9.9-2-.2-2-.4-2-.6.9-.9 2m44.1 20.7c.7.3 1.6.2 1.9-.1.4-.3-.2-.6-1.3-.5-1.1 0-1.4.3-.6.6m4 3.1c-1.3.5-1.5 1.1-.8 2.2.6.9 1 1 1 .3s.7-1 1.8-.7c1.3.5 1.4.4.3-.4s-1.1-1 0-1.5c.8-.3 1-.5.4-.6-.5 0-1.8.3-2.7.7"/><path fill="#aa5" d="M108.8 27.7c.6.2 1.8.2 2.5 0 .6-.3.1-.5-1.3-.5s-1.9.2-1.2.5m7.2 14.5c-1 2.2-1 2.2.4.4.9-1.1 2.2-1.6 3.1-1.2.9.3 1.3.2 1-.4-1.1-1.7-3.4-1.1-4.5 1.2"/><path fill="#80802a" d="M112.8 25.7c.7.3 1.6.2 1.9-.1.4-.3-.2-.6-1.3-.5-1.1 0-1.4.3-.6.6M2.6 40.2C1.7 41.4 1 43.1 1.1 44c0 .8.5.3 1.1-1.3.5-1.5 1.3-2.5 1.7-2.3.4.3.8-.1.8-.9 0-2-.3-1.9-2.1.7m115.2 11.5c.7.3 1.6.2 1.9-.1.4-.3-.2-.6-1.3-.5-1.1 0-1.4.3-.6.6"/><path fill="#d4aaaa" d="M121.5 100.1c-.4.6-.5 1.2-.2 1.5.2.3.7-.2 1-1.1.7-1.7.1-2-.8-.4M1.1 111.6c0 1.1.3 1.4.6.6.3-.7.2-1.6-.1-1.9-.3-.4-.6.2-.5 1.3m.1 9.4c0 1.4.2 1.9.5 1.2.2-.6.2-1.8 0-2.5-.3-.6-.5-.1-.5 1.3m-.2 4.1c0 .5.5.7 1 .4.6-.3 1-.8 1-1.1 0-.2-.4-.4-1-.4-.5 0-1 .5-1 1.1"/><path fill="#ffd4aa" d="M115.1 31.6c0 1.1.3 1.4.6.6.3-.7.2-1.6-.1-1.9-.3-.4-.6.2-.5 1.3m3.7 13.1c.6.2 1.8.2 2.5 0 .6-.3.1-.5-1.3-.5s-1.9.2-1.2.5m0 3c.7.3 1.6.2 1.9-.1.4-.3-.2-.6-1.3-.5-1.1 0-1.4.3-.6.6m-76.3 89.2c-.3.5-.1 1.2.5 1.6.5.3 1-.1 1-.9 0-1.8-.6-2.1-1.5-.7m-.8 6.6c-.4.8.3 1 1.9.7 2.9-.5 3-.8.5-1.5-1.1-.3-2.2.1-2.4.8m6 .5c-1.6 1.9-1.6 2 .3 1.7 1.1-.2 2.3-.7 2.7-1.2.5-.4.2-.4-.6 0-1.1.6-1.3.4-.8-.8.8-2.2.5-2.1-1.6.3m6.4 3.7c-.1 1.7 1.6 2.5 2.5 1.2.4-.7.3-.9-.4-.5-.5.3-1.3 0-1.5-.6-.4-.9-.6-1-.6-.1M47 150c-.8.5-1.1 1.2-.7 1.7.5.4 1.2.2 1.6-.5s1.5-1 2.4-.6c1 .3 1.7.1 1.7-.5 0-1.3-2.9-1.4-5-.1"/><path fill="#ffffd4" d="M108.3 30.5c-.7 2.1.1 2.8 3.7 3 2.4.1 3-.2 3-1.8 0-1.3-.5-1.7-1.5-1.4-.8.4-1.7.2-2-.3-.9-1.5-2.5-1.2-3.2.5M8.4 35.1C7.3 37 9.7 38.5 11.5 37c1.3-1.1 1.3-1.5.3-2.1-1.8-1.2-2.6-1.1-3.4.2m76.5.2c.7.7 1.4.8 2.1.1.6-.6.2-1-1.2-1.1-1.6-.2-1.8.1-.9 1m-6 7.4c-1 1.1-1 1.4-.1.9.6-.4 1.2-.2 1.2.4s1.2 1.5 2.6 2c2.7 1.1 2.4 2.9-.4 3.1-1.1 0-1.2.2-.4.6 1.8.7 4.2-1.6 3.5-3.4-.4-1.1-.2-1.4.5-.9.7.4 1.2.1 1.2-.9 0-1.1-.5-1.5-1.6-1.1-.8.3-1.3.2-1-.3s-.1-1.2-1-1.5c-2.4-.9-3-.8-4.5 1.1m37.5 3.2c1 1.5 5.5 1.9 6 .5.4-1-.4-1.4-3-1.4-1.9 0-3.3.4-3 .9M42 139.6c0 .8.5 1.2 1 .9.6-.4.8-1.1.5-1.6-.9-1.4-1.5-1.1-1.5.7m2 4.4c-1.4.3-2 .8-1.5 1.1 1.7 1 6.9.3 7.1-1 .2-.7 0-.7-.3-.1-.3.7-1 .7-1.6.2-.7-.5-2.3-.6-3.7-.2m8.6 3.8c-.4.7-.4 1.7-.1 2.2.8 1.3 3.5-.6 3.5-2.4 0-.6-.4-.5-.9.3-.7 1.1-.9 1.1-1.3 0-.3-1-.6-1-1.2-.1"/><path fill="#d4d4aa" d="M111.6 29.1c.3.5 1.4.9 2.4.9s2.1.5 2.3 1c.3.6.4.5.3-.2-.1-.6-1.4-1.5-2.9-1.9-1.6-.4-2.5-.3-2.1.2m-4.6 3.3c0 .2.8 1 1.8 1.7 1.5 1.3 1.6 1.2.3-.4s-2.1-2.1-2.1-1.3M83 35c0 .9 3.9 2.5 4.5 1.8.2-.2-.7-.8-2.1-1.5-1.3-.6-2.4-.7-2.4-.3m-4.4 5.8c-.2.4 1 .6 2.7.6 1.8-.1 4 .6 5.1 1.5 1.7 1.5 1.8 1.5 1.5-.4-.3-1.6-1.3-2.1-4.6-2.2-2.3-.2-4.4.1-4.7.5m37.3 3.9c-1.3 1.6-1.2 1.7.4.4.9-.7 1.7-1.5 1.7-1.7 0-.8-.8-.3-2.1 1.3M.5 92c.3.5.8 1 1.1 1 .2 0 .4-.5.4-1 0-.6-.5-1-1.1-1-.5 0-.7.4-.4 1m122.4 8.9c.9.6 1 1 .2 1.4s-.8.5.1.3c2-.4 2.1-2.6.1-2.6-1.4 0-1.5.2-.4.9M42.5 142c.3.5.8 1 1.1 1 .2 0 .4-.5.4-1 0-.6-.5-1-1.1-1-.5 0-.7.4-.4 1m8.4 2.2c-.6 2.3-.7 4.8-.1 4.8.4 0 .8-1.1.8-2.5 0-2.1-.4-3.3-.7-2.3m2.1 2.2c0 .2.9.6 2 .9s2 .1 2-.4-.9-.9-2-.9-2 .2-2 .4m2 3.6c-.9.6-1 1-.3 1 .6 0 1.5-.5 1.8-1 .8-1.2.4-1.2-1.5 0m-2.5 4c-1.9.8-1.9.9.2.9 1.2.1 2.5-.4 2.8-.9.7-1.2-.2-1.2-3 0"/><path fill="#aa8080" d="M112 37.5c0 .8.2 1.5.4 1.5s.6-.7 1-1.5c.3-.8.1-1.5-.4-1.5-.6 0-1 .7-1 1.5m7.5 64.5c.3.5.8 1 1.1 1 .2 0 .4-.5.4-1 0-.6-.5-1-1.1-1-.5 0-.7.4-.4 1M2.7 118.1c.4 1.3.8 1.8 1.1 1 .2-.7-.1-1.8-.6-2.3-.8-.8-.9-.4-.5 1.3m116.6 1.9c0 2.5.2 3.5.4 2.2.2-1.2.2-3.2 0-4.5-.2-1.2-.4-.2-.4 2.3M.2 121c0 1.9.2 2.7.5 1.7.2-.9.2-2.5 0-3.5-.3-.9-.5-.1-.5 1.8M89 145.9c0 1.2.5 2.1 1 2.1.6 0 1-.6 1-1.4s-.4-1.8-1-2.1c-.5-.3-1 .3-1 1.4"/><path fill="gray" d="M83 52c-.8.5-1.2 1.2-.9 1.5.4.3 1.2-.1 1.9-1 1.4-1.7 1.1-1.9-1-.5m35.4 49.8c.4.7.2 1.2-.3 1.2-.6 0-1.1.7-1.1 1.5s.5 1.5 1.2 1.5c.6 0 .8-.3.5-.7-.4-.3-.2-1.2.4-1.9.7-.8.6-1.4-.2-2-.8-.4-.9-.3-.5.4m-53.3 17.6c.2.2 1.3.8 2.5 1.4 1.6.9 2.1.8 2.1-.4 0-.8-1-1.4-2.5-1.4-1.4 0-2.3.2-2.1.4m-37 24.2c0 1.1.3 1.4.6.6.3-.7.2-1.6-.1-1.9-.3-.4-.6.2-.5 1.3"/><path fill="#fff" d="M78.5 43.9c-.9 1.5.3 3.1 2.3 3.1 1.5 0 1.5.2.2 1-1.2.8-1.1 1 .6 1 3.1 0 5-2.5 2.1-2.7-1.2-.1-2.7-.9-3.3-1.8-.8-1-1.4-1.2-1.9-.6M1.1 141c.1 5.1.5 7 1.5 7 .8 0 1.4-.6 1.4-1.4 0-.7.9-1.6 2-1.9 2-.5 2.1-.2 1.8 5.1-.2 4.5-.7 5.8-2 6-1.3.3-1.8-.3-1.8-2.2 0-1.6-.6-2.6-1.5-2.6-2.4 0-1.8 4.7.9 6.5 2.3 1.5 6.1 1.1 5-.6-.3-.5.2-.6 1-.3 2 .8 3.1-5.3 1.9-10.3-.8-3.4-1.2-3.8-4.1-3.8-2.8 0-3.2-.3-3.2-2.7 0-2.5.3-2.8 3.5-2.8 2.4 0 3.5-.5 3.5-1.5 0-1.1-1.2-1.5-5-1.5H.9z"/><path fill="#aaa" d="M90.1 134.6c0 1.1.3 1.4.6.6.3-.7.2-1.6-.1-1.9-.3-.4-.6.2-.5 1.3m-83.8 3.1c.9.2 2.5.2 3.5 0 .9-.3.1-.5-1.8-.5s-2.7.2-1.7.5"/><path fill="#002a2a" d="M7.8 133.7c.7.3 1.6.2 1.9-.1.4-.3-.2-.6-1.3-.5-1.1 0-1.4.3-.6.6m3.7 5.3c.3.5.8 1 1.1 1 .2 0 .4-.5.4-1 0-.6-.5-1-1.1-1-.5 0-.7.4-.4 1m-4.1 1.2c-.4.7-.3.8.5.4.6-.4 2-.2 2.9.6 1.5 1.2 1.6 1.1.3-.5-1.6-2-2.7-2.2-3.7-.5m5.1 10.8c-.3.6.1.7.9.4 1.8-.7 2.1-1.4.7-1.4-.6 0-1.3.4-1.6 1"/><path fill="#558080" d="M1.8 148.7c.7.3 1.6.2 1.9-.1.4-.3-.2-.6-1.3-.5-1.1 0-1.4.3-.6.6"/><path fill="#8080aa" d="M.1 142.6c0 1.1.3 1.4.6.6.3-.7.2-1.6-.1-1.9-.3-.4-.6.2-.5 1.3"/></svg>